<svg id="Layer_1" data-name="Layer 1" width="35" fill="white" xmlns="http://www.w3.org/2000/svg" xmlns:xlink="http://www.w3.org/1999/xlink" viewBox="0 0 266.5 228.5"><defs><linearGradient id="linear-gradient" x1="43" y1="43" x2="215" y2="43" gradientUnits="userSpaceOnUse"><stop offset="0" stop-color="#434343"/><stop offset="1"/></linearGradient><linearGradient id="linear-gradient-2" x1="0" y1="129" x2="129" y2="129" xlink:href="#linear-gradient"/></defs><title>os</title><polygon points="172 0 129 0 86 0 43 0 43 43 86 43 129 43 172 43 172 86 215 86 215 43 215 0 172 0" fill="url(#linear-gradient)"/><polygon points="0 86 0 129 0 172 0 215 43 215 86 215 129 215 129 172 86 172 43 172 43 129 43 86 43 43 0 43 0 86" fill="url(#linear-gradient-2)"/><polygon points="266.5 143.5 266.5 100.5 224 100.5 224 100 181 100 181 143 181 185.5 138.5 185.5 138.5 228.5 181.5 228.5 224.5 228.5 224.5 185.5 224 185.5 224 143.5 266.5 143.5" fill="#151513"/></svg>