<svg xmlns="http://www.w3.org/2000/svg" width="31" height="29.54" viewBox="0 0 31 29.54"><path d="M152.35,57.026V54.811a1.548,1.548,0,0,0-1.61-1.477H144.3a1.548,1.548,0,0,0-1.61,1.477v2.215h-2.415a1.548,1.548,0,0,0-1.61,1.477V79.92a1.548,1.548,0,0,0,1.61,1.477h14.488a1.548,1.548,0,0,0,1.61-1.477V58.5a1.548,1.548,0,0,0-1.61-1.477Z" transform="translate(-132.021 -52.595)" fill="#eaeff0"/><path d="M138.667,202.667v16.247a1.548,1.548,0,0,0,1.61,1.477h14.488a1.548,1.548,0,0,0,1.61-1.477V202.667Z" transform="translate(-132.021 -191.59)" fill="#009ae0"/><path d="M111.835,286.195H107.4a.739.739,0,0,1-.739-.739v-7.385a.739.739,0,0,1,.739-.739h4.431a3.692,3.692,0,0,1,3.692,3.692V282.5A3.692,3.692,0,0,1,111.835,286.195Z" transform="translate(-101.922 -261.086)" fill="#8fa5a5"/><path d="M70.125,51.359a6.4,6.4,0,0,0-2.659-.57V48.574a2.275,2.275,0,0,0-2.325-2.215h-1.55V44.882a2.275,2.275,0,0,0-2.325-2.215h-6.2a2.275,2.275,0,0,0-2.325,2.215v1.477h-1.55a2.275,2.275,0,0,0-2.325,2.215v2.215a4.8,4.8,0,0,1-1.994-.427,4.443,4.443,0,0,1-2.656-4V43.4a.776.776,0,0,0-1.55,0v2.954A5.923,5.923,0,0,0,46.207,51.7a6.4,6.4,0,0,0,2.659.57v5.908h-.775a1.516,1.516,0,0,0-1.55,1.477v.739h-3.1a.739.739,0,1,0,0,1.477h3.1v2.954h-3.1a.739.739,0,1,0,0,1.477h3.1v.739a1.516,1.516,0,0,0,1.55,1.477h.775V69.99a2.275,2.275,0,0,0,2.325,2.215h13.95a2.275,2.275,0,0,0,2.325-2.215V64.082a6.066,6.066,0,0,0,6.2-5.908V56.7A5.923,5.923,0,0,0,70.125,51.359ZM50.416,48.574a.758.758,0,0,1,.775-.739h2.325a.757.757,0,0,0,.775-.739V44.881a.758.758,0,0,1,.775-.738h6.2a.758.758,0,0,1,.775.739V47.1a.757.757,0,0,0,.775.738h2.325a.758.758,0,0,1,.775.739V53h-15.5Zm0,5.908h15.5v8.123H57.391a4.549,4.549,0,0,0-4.65-4.431H50.416ZM48.091,67.036V59.651h4.65a3.033,3.033,0,0,1,3.1,2.954v1.477a3.033,3.033,0,0,1-3.1,2.954ZM65.916,69.99a.758.758,0,0,1-.775.739H51.191a.758.758,0,0,1-.775-.739V68.513h2.325a4.549,4.549,0,0,0,4.65-4.431h8.525Zm6.2-11.816a4.549,4.549,0,0,1-4.65,4.431V52.266a4.8,4.8,0,0,1,1.993.427,4.443,4.443,0,0,1,2.657,4Z" transform="translate(-42.666 -42.666)"/></svg>