<svg xmlns="http://www.w3.org/2000/svg" width="31" height="33.971" viewBox="0 0 31 33.971"><path d="M126.592,43.858a5.111,5.111,0,0,0,.738-2.585c0-2.041-1.879-2.829-2.175-5.539l-.039-2.585.189-1.859a8.5,8.5,0,0,0-8.086-9.954l-.221,0-.221,0a8.5,8.5,0,0,0-8.086,9.954l.189,1.859-.039,2.585c-.3,2.71-2.175,3.5-2.175,5.539a5.111,5.111,0,0,0,.738,2.585,12.6,12.6,0,0,0,19.186,0Z" transform="translate(-101.499 -20.595)" fill="#2d4a60"/><path d="M70.307,250.386v6.3h4.083a5.905,5.905,0,0,1,5.773,4.67l1.214,5.669H53.332l1.214-5.669a5.905,5.905,0,0,1,5.773-4.67H64.4v-6.3Z" transform="translate(-51.855 -233.789)" fill="#ffd188"/><path d="M135.132,190.927a4.993,4.993,0,0,1-1.087.253,1.554,1.554,0,0,1-1.553-1.555h0a1.554,1.554,0,0,1,1.553-1.555h0a1.456,1.456,0,0,1,.718.272h12.542a1.456,1.456,0,0,1,.718-.272,1.554,1.554,0,0,1,1.553,1.555h0a1.554,1.554,0,0,1-1.553,1.555h0a4.992,4.992,0,0,1-1.087-.253Z" transform="translate(-125.535 -175.788)" fill="#ffd188"/><path d="M138.668,400.575a15.289,15.289,0,0,1,1.475-5.908,9.689,9.689,0,0,1,6.64,2.215,9.689,9.689,0,0,1,6.64-2.215,15.289,15.289,0,0,1,1.475,5.908v.739h-16.23Z" transform="translate(-131.283 -368.081)" fill="#fd3730"/><path d="M213.332,256.1a5.786,5.786,0,0,0,2.954.776h0a5.786,5.786,0,0,0,2.954-.776v-5.715h-5.908Z" transform="translate(-200.786 -233.789)" fill="#f9a06f"/><path d="M179.518,121.414s-.216,2.474-.247,3.3c-.128,3.432-2.473,6.1-5.908,6.1s-5.78-2.67-5.908-6.1c-.03-.793-.237-3.167-.237-3.167a.738.738,0,0,1,.7-.793c1.579-.08,5.216-.579,6.923-3.425a6.929,6.929,0,0,0,4.123,3.313.739.739,0,0,1,.555.771Z" transform="translate(-157.864 -109.945)" fill="#ffd188"/><path d="M405.332,151.548l1.312-.656a.554.554,0,0,0,.248-.248l.656-1.312.656,1.312a.554.554,0,0,0,.248.248l1.312.656-1.312.656a.554.554,0,0,0-.248.248l-.656,1.312-.656-1.312a.554.554,0,0,0-.248-.248Z" transform="translate(-379.501 -139.732)" fill="#fac100"/><path d="M42.668,204.882l1.312-.656a.554.554,0,0,0,.248-.248l.656-1.312.656,1.312a.554.554,0,0,0,.248.248l1.312.656-1.312.656a.554.554,0,0,0-.248.248l-.656,1.312-.656-1.312a.554.554,0,0,0-.248-.248Z" transform="translate(-41.93 -189.374)" fill="#fac100"/><path d="M226.471,239.8a2.568,2.568,0,0,1-2.45,0,.739.739,0,0,0-.659,1.322,4.04,4.04,0,0,0,3.77,0,.738.738,0,1,0-.66-1.321Z" transform="translate(-209.747 -223.86)"/><path d="M279.757,170.666a.738.738,0,0,0-.739.739v.641a.739.739,0,0,0,1.477,0V171.4a.739.739,0,0,0-.738-.739Z" transform="translate(-261.926 -159.588)"/><path d="M213.125,173.554v-.641a.739.739,0,0,0-1.477,0v.641a.739.739,0,0,0,1.477,0Z" transform="translate(-199.217 -160.999)"/><path d="M68.638,34.3a6.591,6.591,0,0,0-.712-.495,5.861,5.861,0,0,0,.571-2.46,5.051,5.051,0,0,0-1.057-2.86,6.026,6.026,0,0,1-1.114-2.714,2.275,2.275,0,0,0-.036-2.582l.176-1.727a9.322,9.322,0,0,0-2-7.459,9.111,9.111,0,0,0-6.8-3.333c-.159,0-.319,0-.478,0A9.111,9.111,0,0,0,50.386,14a9.324,9.324,0,0,0-2,7.459l.176,1.727a2.275,2.275,0,0,0-.036,2.582,6.027,6.027,0,0,1-1.114,2.714,5.05,5.05,0,0,0-1.057,2.86,5.862,5.862,0,0,0,.571,2.46,6.592,6.592,0,0,0-.712.495A6.668,6.668,0,0,0,43.9,38.072L42.68,43.741a.738.738,0,0,0,.722.893H71.449a.738.738,0,0,0,.722-.893l-1.214-5.669A6.667,6.667,0,0,0,68.638,34.3ZM66.59,33.173a6.64,6.64,0,0,0-2.128-.355H61.116v-1.66a6.857,6.857,0,0,0,2.8-4.428,2.6,2.6,0,0,0,.5.063A2.257,2.257,0,0,0,65,26.71a8.123,8.123,0,0,0,1.2,2.569,3.73,3.73,0,0,1,.823,2.062,4.366,4.366,0,0,1-.431,1.832Zm-3.259,3.371a10.906,10.906,0,0,0-5.9,1.962,10.906,10.906,0,0,0-5.9-1.962V34.3h2.952a.738.738,0,0,0,.738-.739V31.9a6.686,6.686,0,0,0,4.429,0v1.66a.738.738,0,0,0,.738.739h2.952Zm-5.9-5.747c-2.924,0-5.049-2.217-5.167-5.391-.029-.786-.222-3.009-.238-3.195,1.455-.073,4.8-.508,6.847-2.864a7.374,7.374,0,0,0,3.973,2.73c-.016.189-.218,2.51-.248,3.329C62.475,28.58,60.35,30.8,57.426,30.8Zm7.808-6.3a.817.817,0,0,1-.816.816,1.9,1.9,0,0,1-.34-.063c.02-.375.061-.928.1-1.465a.745.745,0,0,1,.237-.1.817.817,0,0,1,.816.816ZM51.525,14.938a7.636,7.636,0,0,1,5.7-2.795c.134,0,.27,0,.4,0a7.636,7.636,0,0,1,5.7,2.795,7.847,7.847,0,0,1,1.68,6.3c0,.016,0,.032-.007.048l-.1.976a2.286,2.286,0,0,0-.482-.053c-.038,0-.071.012-.108.015l0-.035a1.476,1.476,0,0,0-1.107-1.541,6.237,6.237,0,0,1-3.644-2.929.738.738,0,0,0-1.293-.05c-1.534,2.558-4.933,3-6.323,3.067a1.464,1.464,0,0,0-1.395,1.487c-.04,0-.077-.016-.118-.016a2.288,2.288,0,0,0-.482.053l-.1-.976q0-.024-.007-.048a7.847,7.847,0,0,1,1.68-6.3ZM49.618,24.5a.817.817,0,0,1,.814-.816.733.733,0,0,1,.238.1c.042.531.083,1.089.1,1.466a1.892,1.892,0,0,1-.34.063.817.817,0,0,1-.816-.816Zm-1.787,6.841a3.73,3.73,0,0,1,.823-2.062,8.123,8.123,0,0,0,1.2-2.569,2.261,2.261,0,0,0,.581.084,2.6,2.6,0,0,0,.5-.063,6.856,6.856,0,0,0,2.8,4.427v1.66H50.39a6.639,6.639,0,0,0-2.128.355,4.371,4.371,0,0,1-.431-1.832ZM44.315,43.157l1.023-4.776a5.121,5.121,0,0,1,4.707-4.057v2.756a15.757,15.757,0,0,0-1.476,6.076Zm5.73,0A14.1,14.1,0,0,1,51.252,38,9,9,0,0,1,56.9,39.987a.738.738,0,0,0,.523.218.729.729,0,0,0,.518-.215A9,9,0,0,1,63.6,38a14.1,14.1,0,0,1,1.207,5.155Zm16.238,0a15.758,15.758,0,0,0-1.476-6.076V34.325a5.121,5.121,0,0,1,4.707,4.057l1.023,4.776Z" transform="translate(-41.926 -10.663)"/><path d="M400.166,140.96l-1.257-.628-.628-1.257a.739.739,0,0,0-1.321,0l-.628,1.257-1.257.628a.739.739,0,0,0,0,1.321l1.257.628.628,1.257a.738.738,0,0,0,1.321,0l.628-1.257,1.257-.628a.738.738,0,0,0,0-1.321Zm-2.546,1.225a1.3,1.3,0,0,0-.564-.564.564.564,0,1,1,1.128,0,1.3,1.3,0,0,0-.564.564Z" transform="translate(-369.574 -129.805)"/><path d="M34.3,197.5a.739.739,0,0,0,1.321,0l.628-1.257,1.257-.628a.738.738,0,0,0,0-1.321l-1.257-.628-.628-1.257a.739.739,0,0,0-1.321,0l-.628,1.257-1.257.628a.739.739,0,0,0,0,1.321l1.257.628Zm.661-3.11a1.3,1.3,0,0,0,.564.564,1.3,1.3,0,0,0-.564.564,1.3,1.3,0,0,0-.564-.564,1.3,1.3,0,0,0,.564-.564Z" transform="translate(-32.004 -179.449)"/><path d="M424.844,263.033h-.332V262.7a.739.739,0,0,0-1.477,0v.332H422.7a.739.739,0,0,0,0,1.477h.332v.332a.739.739,0,0,0,1.477,0v-.332h.332a.739.739,0,0,0,0-1.477Z" transform="translate(-394.988 -244.57)"/><path d="M59.308,114.681h.369v.369a.739.739,0,1,0,1.477,0v-.369h.369a.739.739,0,1,0,0-1.477h-.369v-.369a.739.739,0,0,0-1.477,0v.369h-.369a.739.739,0,1,0,0,1.477Z" transform="translate(-56.724 -105.081)"/></svg>