<svg xmlns="http://www.w3.org/2000/svg" width="31" height="30.333" viewBox="0 0 31 30.333"><path d="M107.455,186.1V200.24l-11.061,5.14-11.061-5.14V186.1Z" transform="translate(-80.894 -175.786)" fill="#ff9500"/><path d="M256,205.379l11.837-5.14V186.1H256Z" transform="translate(-241.276 -175.786)" fill="#fbab01"/><path d="M96.394,122.28l-11.061-5.14L96.394,112l11.061,5.14Z" transform="translate(-80.894 -106.821)" fill="#ff9500"/><path d="M256,191.245l3.7,4.478,11.837-5.14-3.7-4.478Z" transform="translate(-241.276 -175.786)" fill="#fac100"/><path d="M47.536,191.245l-3.7,4.478L32,190.583l3.7-4.478Z" transform="translate(-31.26 -175.786)" fill="#fac100"/><path d="M58.006,57.579,61.52,53.14,50.274,48,46.76,52.439,43.246,48,32,53.14l3.514,4.439,11.246-5.14Z" transform="translate(-31.26 -47.26)" fill="#fac100"/><path d="M52.168,51.658l-3.151-4,3.148-3.967a.754.754,0,0,0,.145-.3.776.776,0,0,0,0-.34.753.753,0,0,0-.145-.3.707.707,0,0,0-.26-.2L40.632,37.395a.672.672,0,0,0-.444-.042.7.7,0,0,0-.378.247l-2.981,3.757L33.848,37.6a.7.7,0,0,0-.378-.246.673.673,0,0,0-.443.041l-11.273,5.14a.707.707,0,0,0-.26.2.754.754,0,0,0-.145.3.775.775,0,0,0,0,.34.754.754,0,0,0,.145.3l3.148,3.967-3.151,4a.755.755,0,0,0-.143.3.776.776,0,0,0,0,.339.754.754,0,0,0,.145.3.709.709,0,0,0,.259.2l3.1,1.413v7.565a.767.767,0,0,0,.115.406.715.715,0,0,0,.308.273L36.548,67.6h0a.671.671,0,0,0,.128.042l.007,0a.676.676,0,0,0,.285,0l.007,0a.674.674,0,0,0,.128-.042h0l11.273-5.139a.715.715,0,0,0,.308-.273.767.767,0,0,0,.115-.406V54.221l3.1-1.413a.708.708,0,0,0,.259-.2.755.755,0,0,0,.146-.3.776.776,0,0,0,0-.339.755.755,0,0,0-.143-.3ZM40.555,38.972,50.481,43.5,47.9,46.752l-9.926-4.526Zm5.778,8.679-9.5,4.333-9.5-4.333,9.5-4.333ZM33.1,38.972l2.583,3.254L25.76,46.752,23.177,43.5Zm-7.341,9.58,9.927,4.526L33.1,56.369l-9.927-4.527Zm.5,6.312,6.765,3.084a.674.674,0,0,0,.445.041.7.7,0,0,0,.379-.248l2.275-2.892V65.8l-9.864-4.5ZM47.4,61.3l-9.864,4.5V54.849l2.275,2.892a.7.7,0,0,0,.379.248.674.674,0,0,0,.445-.041L47.4,54.864Zm-6.84-4.932-2.589-3.291L47.9,48.552l2.589,3.291Z" transform="translate(-21.329 -37.333)"/></svg>