<svg xmlns="http://www.w3.org/2000/svg" width="31" height="32.494" viewBox="0 0 31 32.494"><path d="M39.206,338.526a6.026,6.026,0,0,0-3.814,1.374,6.565,6.565,0,0,0-2.209,3.544L32,348.321H61.523l-1.154-4.849a6.567,6.567,0,0,0-2.2-3.563,6.027,6.027,0,0,0-3.825-1.383Z" transform="translate(-31.261 -316.566)" fill="#2d4a60"/><path d="M141.808,314.947a6.955,6.955,0,0,0-3.526,2.964l-.182.3,1.483,1.632-1.483,2.449,3.708,4.081h7.415l3.708-4.081-1.483-2.449,1.483-1.632-.182-.3a6.955,6.955,0,0,0-3.525-2.964Z" transform="translate(-130.016 -294.619)" fill="#263f52"/><path d="M196.146,385.684l2.511,6.53h3.265l2.511-6.53Z" transform="translate(-184.79 -360.459)" fill="#eaeff0"/><path d="M215.372,256h-6.53v8.978h6.53Z" transform="translate(-196.607 -239.753)" fill="#f9a06f"/><path d="M180.821,358.816,183.783,360a.816.816,0,0,0,1.119-.758v-2.486a.816.816,0,0,0-1.119-.758l-2.962,1.185h-3.265L174.594,356a.816.816,0,0,0-1.119.758v2.486a.816.816,0,0,0,1.119.758l2.962-1.185Z" transform="translate(-163.688 -332.774)" fill="#fd3730"/><path d="M235.687,363.737a1.632,1.632,0,1,0-1.632,1.633A1.632,1.632,0,0,0,235.687,363.737Z" transform="translate(-218.554 -338.512)" fill="#d3241f"/><path d="M131.565,41.795l-.745-1.632c-2.012-4.894,2.805-6.62,2.805-6.62A11.221,11.221,0,0,1,133.8,32h6.859c3.793,0,6.282,4.407,4.873,8.265l-.558,1.529Z" transform="translate(-122.782 -31.261)" fill="#2d4a60"/><path d="M127.813,176.739a1.436,1.436,0,0,1-1.058-.478,1.711,1.711,0,0,1-.438-1.154h0a1.711,1.711,0,0,1,.438-1.154,1.436,1.436,0,0,1,1.058-.478h13.47a1.436,1.436,0,0,1,1.058.478,1.711,1.711,0,0,1,.438,1.154h0a1.711,1.711,0,0,1-.438,1.154,1.436,1.436,0,0,1-1.058.478Z" transform="translate(-119.048 -162.941)" fill="#ffd188"/><path d="M168.214,128.4a6.53,6.53,0,0,1-6.53-6.53v-4.244a3.1,3.1,0,0,1,3.1-3.1h6.856a3.1,3.1,0,0,1,3.1,3.1v4.244a6.53,6.53,0,0,1-6.53,6.53Z" transform="translate(-152.714 -108.074)" fill="#ffd188"/><path d="M416,119.548l1.312-.656a.554.554,0,0,0,.248-.248l.656-1.312.656,1.312a.554.554,0,0,0,.248.248l1.312.656-1.312.656a.554.554,0,0,0-.248.248l-.656,1.312-.656-1.312a.554.554,0,0,0-.248-.248Z" transform="translate(-390.169 -110.687)" fill="#fac100"/><path d="M34.668,239.364l1.2-.6a.508.508,0,0,0,.227-.227l.6-1.2.6,1.2a.508.508,0,0,0,.227.227l1.2.6-1.2.6a.508.508,0,0,0-.227.227l-.6,1.2-.6-1.2a.508.508,0,0,0-.227-.227Z" transform="translate(-33.745 -222.378)" fill="#fac100"/><path d="M221.834,239.846a.738.738,0,0,0,.33.991,4.205,4.205,0,0,0,3.925,0,.739.739,0,0,0-.659-1.322,2.734,2.734,0,0,1-2.608,0,.738.738,0,0,0-.989.331Z" transform="translate(-208.627 -224.338)"/><path d="M281.44,164.9a.738.738,0,0,0,.738-.739v-.708a.739.739,0,1,0-1.477,0v.708a.738.738,0,0,0,.738.739Z" transform="translate(-263.609 -152.915)"/><path d="M210.705,166.649a.739.739,0,0,0,.739-.738V165.2a.739.739,0,0,0-1.477,0v.708a.739.739,0,0,0,.738.738Z" transform="translate(-197.536 -154.561)"/><path d="M51.154,48.06A7.3,7.3,0,0,0,48.7,44.092a6.723,6.723,0,0,0-4.269-1.537h-.82a7.819,7.819,0,0,0-2.653-1.592,7.162,7.162,0,0,0,1.9-2.239,7.51,7.51,0,0,0,.876-2.853h.11a2.193,2.193,0,0,0,1.416-.519,2.384,2.384,0,0,0,.793-1.335,2.469,2.469,0,0,0-.181-1.561,2.311,2.311,0,0,0-1.075-1.1l.284-.745a7.178,7.178,0,0,0,.427-3.294,7.082,7.082,0,0,0-1.1-3.119,6,6,0,0,0-5.079-2.865H32.16a.685.685,0,0,0-.441.162.744.744,0,0,0-.247.416,11.208,11.208,0,0,0-.165,1.2,5.83,5.83,0,0,0-3.181,3.184,5.336,5.336,0,0,0,.288,4.272l.395.827A2.316,2.316,0,0,0,27.773,32.5a2.468,2.468,0,0,0-.151,1.547,2.379,2.379,0,0,0,.8,1.311,2.19,2.19,0,0,0,1.4.507h.11a7.51,7.51,0,0,0,.876,2.853,7.162,7.162,0,0,0,1.9,2.239,7.819,7.819,0,0,0-2.653,1.592h-.8A6.728,6.728,0,0,0,25,44.083a7.3,7.3,0,0,0-2.464,3.946l-1.185,4.877a.773.773,0,0,0-.007.333.755.755,0,0,0,.133.3.713.713,0,0,0,.247.21.678.678,0,0,0,.31.075H51.627a.679.679,0,0,0,.309-.075.712.712,0,0,0,.246-.209.755.755,0,0,0,.134-.3.774.774,0,0,0-.006-.332ZM39.415,52.35,40.608,49.1l.346.145a1.421,1.421,0,0,0,.71.1,1.442,1.442,0,0,0,.673-.258,1.533,1.533,0,0,0,.479-.559,1.615,1.615,0,0,0,.173-.729v-.028l.725,1.14L40.434,52.35Zm-3.657,0-1.394-3.8.512-.215a1.455,1.455,0,0,0,.5.435,1.383,1.383,0,0,0,.635.157H37.65a1.384,1.384,0,0,0,.635-.157,1.454,1.454,0,0,0,.5-.435l.512.215-1.394,3.8Zm-2.528,0-3.279-3.437.725-1.14V47.8a1.615,1.615,0,0,0,.173.729,1.532,1.532,0,0,0,.479.559,1.441,1.441,0,0,0,.673.258,1.42,1.42,0,0,0,.71-.1l.346-.145,1.192,3.25ZM43.71,44.835l-.722.757v-.276a1.615,1.615,0,0,0-.173-.729,1.533,1.533,0,0,0-.479-.559,1.442,1.442,0,0,0-.673-.258,1.421,1.421,0,0,0-.71.1l-.3.127V42.427a6.54,6.54,0,0,1,3.058,2.408Zm-4.616,2.04v-.632l2.383-1a.071.071,0,0,1,.036-.005.073.073,0,0,1,.034.013.077.077,0,0,1,.024.028.081.081,0,0,1,.009.036V47.8a.081.081,0,0,1-.009.036.076.076,0,0,1-.024.028.072.072,0,0,1-.034.013.071.071,0,0,1-.036-.005Zm.148-2.285-.455.191a1.454,1.454,0,0,0-.5-.435,1.384,1.384,0,0,0-.635-.157H36.014a1.383,1.383,0,0,0-.635.157,1.454,1.454,0,0,0-.5.435l-.455-.191V41.938a6.518,6.518,0,0,0,4.821,0ZM37.685,45.7v1.714a.038.038,0,0,1-.01.026.035.035,0,0,1-.025.011H36.014a.034.034,0,0,1-.025-.011.038.038,0,0,1-.01-.026V45.7a.038.038,0,0,1,.01-.026.034.034,0,0,1,.025-.011H37.65a.035.035,0,0,1,.025.011.038.038,0,0,1,.01.026Zm-5.5,2.172a.071.071,0,0,1-.036.005.072.072,0,0,1-.034-.013.077.077,0,0,1-.024-.028.081.081,0,0,1-.009-.036V45.315a.081.081,0,0,1,.009-.036.076.076,0,0,1,.024-.028.071.071,0,0,1,.069-.008l2.383,1v.632ZM33.013,44l-.3-.127a1.42,1.42,0,0,0-.71-.1,1.441,1.441,0,0,0-.673.258,1.532,1.532,0,0,0-.479.559,1.615,1.615,0,0,0-.173.729v.276l-.722-.757a6.54,6.54,0,0,1,3.058-2.407ZM43.84,34.393h-.074v-1.8a.643.643,0,0,0,.074.016h0a.819.819,0,0,1,.326.068.852.852,0,0,1,.277.194.9.9,0,0,1,.185.29.933.933,0,0,1,0,.684.9.9,0,0,1-.185.29.851.851,0,0,1-.277.194.819.819,0,0,1-.326.068ZM32.753,22.81H39.33a4.626,4.626,0,0,1,3.912,2.216,5.562,5.562,0,0,1,.863,2.449,5.638,5.638,0,0,1-.334,2.587l-.066.174a3.885,3.885,0,0,0-1.246-2.283,3.563,3.563,0,0,0-2.355-.907H33.561l-.021,0a.715.715,0,0,0-.1-.159C32.562,25.951,32.6,23.971,32.753,22.81ZM28.971,33.5a.918.918,0,0,1,.25-.632.835.835,0,0,1,.6-.262.634.634,0,0,0,.074-.016v1.8h-.074a.835.835,0,0,1-.6-.262.918.918,0,0,1-.25-.632Zm.969-3.041-.264-.554a3.793,3.793,0,0,1-.24-3.064,4.284,4.284,0,0,1,1.846-2.087,5.561,5.561,0,0,0,.761,2.65,3.7,3.7,0,0,0-1.434,1.238,3.94,3.94,0,0,0-.668,1.817Zm1.368,4.674V30.887a2.425,2.425,0,0,1,.661-1.67,2.206,2.206,0,0,1,1.593-.693H40.1a2.206,2.206,0,0,1,1.593.693,2.425,2.425,0,0,1,.661,1.67v4.244a5.936,5.936,0,0,1-1.618,4.1,5.347,5.347,0,0,1-7.814,0,5.936,5.936,0,0,1-1.618-4.1ZM23.9,48.394a5.832,5.832,0,0,1,1.77-2.978,5.392,5.392,0,0,1,3.086-1.359c-.036.054-.076.1-.11.159l-.192.3a.766.766,0,0,0-.115.482.754.754,0,0,0,.2.449l1.149,1.2L28.459,48.6a.766.766,0,0,0-.115.482.754.754,0,0,0,.2.449l2.691,2.82H22.943ZM42.427,52.35l2.691-2.82a.754.754,0,0,0,.2-.449.766.766,0,0,0-.115-.482l-1.237-1.945,1.149-1.2a.754.754,0,0,0,.2-.449.766.766,0,0,0-.115-.482l-.192-.3c-.035-.056-.076-.107-.113-.162a5.387,5.387,0,0,1,3.112,1.361,5.829,5.829,0,0,1,1.775,3l.938,3.931Z" transform="translate(-21.332 -21.333)"/><path d="M405.742,110.282l1.257.628.628,1.257a.739.739,0,0,0,1.321,0l.628-1.257,1.257-.628a.738.738,0,0,0,0-1.321l-1.257-.628-.628-1.257a.739.739,0,0,0-1.321,0L407,108.333l-1.257.628a.739.739,0,0,0,0,1.321Zm2.546-1.225a1.3,1.3,0,0,0,.564.564.564.564,0,1,1-1.128,0,1.3,1.3,0,0,0,.564-.564Z" transform="translate(-380.242 -100.76)"/><path d="M24.412,230.1l1.134.567.567,1.134a.739.739,0,0,0,1.321,0L28,230.664l1.133-.567a.738.738,0,0,0,0-1.321L28,228.209l-.567-1.134a.739.739,0,0,0-1.321,0l-.567,1.134-1.133.567a.739.739,0,0,0,0,1.321Zm2.361-1.053a.393.393,0,1,1,0,.786.393.393,0,0,1,0-.786Z" transform="translate(-23.819 -212.451)"/><path d="M400.642,253.155h.369v.369a.739.739,0,1,0,1.477,0v-.369h.369a.739.739,0,0,0,0-1.477h-.369v-.369a.739.739,0,1,0-1.477,0v.369h-.369a.739.739,0,1,0,0,1.477Z" transform="translate(-375.18 -234.693)"/><path d="M37.976,82.487h.369v.369a.739.739,0,1,0,1.477,0v-.369h.369a.739.739,0,1,0,0-1.477h-.369v-.369a.739.739,0,1,0-1.477,0v.369h-.369a.739.739,0,1,0,0,1.477Z" transform="translate(-36.13 -75.841)"/></svg>