<svg xmlns="http://www.w3.org/2000/svg" width="31" height="33.738" viewBox="0 0 31 33.738"><path d="M19.009,19.293c-2.618-2.23-4.894-2.648-6.491-1.051a3.3,3.3,0,0,0-.684,1,4.5,4.5,0,0,1-3.547,2.751A7.078,7.078,0,0,0,4.092,24c-3.011,3.011-2.9,6.986,1.179,11.069s8.058,4.189,11.069,1.179a7.078,7.078,0,0,0,2.01-4.2A4.5,4.5,0,0,1,21.1,28.509a3.3,3.3,0,0,0,1-.684c1.6-1.6,1.179-3.873-1.051-6.491Z" transform="translate(-1.275 -5.339)" fill="#f87600"/><path d="M15.568,34.634A10.628,10.628,0,0,1,5.033,25.376a6.977,6.977,0,0,0-.94.785c-3.011,3.011-2.9,6.986,1.179,11.068s8.057,4.19,11.068,1.179a7.074,7.074,0,0,0,2-4.153A10.632,10.632,0,0,1,15.568,34.634Z" transform="translate(-1.275 -7.497)" fill="#e55c00"/><path d="M17.626,20.77,31.38,7.015l.293-.887a2.827,2.827,0,0,1,.7-1.119l2.582-2.582a1.448,1.448,0,0,1,2.041,0l1.021,1.021a1.448,1.448,0,0,1,0,2.041L35.432,8.067a2.828,2.828,0,0,1-1.123.694l-.887.293L19.687,22.791Z" transform="translate(-8.167 -1.266)" fill="#c6512b"/><path d="M18.415,30.275a2.526,2.526,0,1,0-2.526-2.526A2.526,2.526,0,0,0,18.415,30.275Z" transform="translate(-6.015 -7.456)" fill="#ad4023"/><path d="M8.8,34.489A.733.733,0,1,0,7.76,35.526L11.332,39.1a.733.733,0,1,0,1.037-1.037Z" transform="translate(-2.751 -9.867)"/><path d="M31.428,2.656,30.49,1.635a1.89,1.89,0,0,0-2.831,0L25.287,4.217a3.64,3.64,0,0,0-.8,1.41l-.221.723-7,7.62c-3.378-2.849-5.443-1.622-6.393-.587a4.065,4.065,0,0,0-.771,1.225,3.755,3.755,0,0,1-1.077,1.553,3.326,3.326,0,0,1-1.645.762,6.942,6.942,0,0,0-4.252,2.219,7.165,7.165,0,0,0-1.646,2.6,7.686,7.686,0,0,0-.453,3.116,10.877,10.877,0,0,0,3.183,6.392c1.945,2.115,3.921,3.28,5.876,3.462.175.015.348.024.52.024a6.2,6.2,0,0,0,2.581-.631,6.7,6.7,0,0,0,2.15-1.676,8.071,8.071,0,0,0,2.04-4.62,3.952,3.952,0,0,1,.7-1.794,3.513,3.513,0,0,1,1.432-1.173A3.707,3.707,0,0,0,20.63,24c.95-1.033,2.078-3.28-.539-6.955l7-7.621.66-.24a3.261,3.261,0,0,0,1.3-.873l2.374-2.582a2.318,2.318,0,0,0,0-3.08ZM24.854,7.783l.923,1L15.888,19.546a2.949,2.949,0,0,0-.923-1ZM13.362,19.5a1.568,1.568,0,0,1,1.044.408,1.827,1.827,0,0,1,.569,1.036,1.931,1.931,0,0,1-.164,1.194,1.705,1.705,0,0,1-.823.81A1.523,1.523,0,0,1,12.88,23a1.666,1.666,0,0,1-.891-.72,1.915,1.915,0,0,1-.269-1.171,1.861,1.861,0,0,1,.475-1.091,1.643,1.643,0,0,1,.535-.388,1.53,1.53,0,0,1,.631-.136Zm6.314,3.467a2.368,2.368,0,0,1-.711.53,4.872,4.872,0,0,0-1.973,1.64,5.477,5.477,0,0,0-.956,2.492,6.565,6.565,0,0,1-1.655,3.762,5.2,5.2,0,0,1-1.9,1.452,4.8,4.8,0,0,1-2.288.407c-1.629-.151-3.324-1.173-5.037-3.038a9.438,9.438,0,0,1-2.792-5.48,6.07,6.07,0,0,1,.373-2.49A5.648,5.648,0,0,1,4.078,20.18a5.64,5.64,0,0,1,3.464-1.8,4.6,4.6,0,0,0,2.287-1.039A5.2,5.2,0,0,0,11.335,15.2a2.6,2.6,0,0,1,.489-.78c1.294-1.408,3.06-.569,4.482.593l-2.79,3.036a2.81,2.81,0,0,0-1.724.474,3.191,3.191,0,0,0-1.174,1.453,3.523,3.523,0,0,0-.21,1.921,3.362,3.362,0,0,0,.828,1.712,2.927,2.927,0,0,0,1.574.9,2.776,2.776,0,0,0,1.766-.228A3.091,3.091,0,0,0,15.911,23a3.485,3.485,0,0,0,.436-1.876l2.79-3.035C20.2,19.638,20.971,21.559,19.677,22.966ZM30.475,4.7,28.1,7.279a1.921,1.921,0,0,1-.768.513l-.421.153-1.288-1.4.142-.464a2.146,2.146,0,0,1,.472-.831l2.374-2.582a.617.617,0,0,1,.923,0l.938,1.021a.76.76,0,0,1,0,1Z" transform="translate(-1.011 -0.998)"/></svg>