<svg xmlns="http://www.w3.org/2000/svg" width="31" height="30.424" viewBox="0 0 31 30.424"><path d="M9.663,7h-5A1.666,1.666,0,0,0,3,8.666V33.653a1.666,1.666,0,0,0,1.666,1.666h5a1.666,1.666,0,0,0,1.666-1.666V8.666A1.666,1.666,0,0,0,9.663,7Z" transform="translate(-2.167 -5.728)" fill="#009ae0"/><path d="M7.165,35.319h-2.5A1.666,1.666,0,0,1,3,33.653V8.666A1.666,1.666,0,0,1,4.666,7h2.5Z" transform="translate(-2.167 -5.728)" fill="#0081bd"/><path d="M22.663,7h-5A1.666,1.666,0,0,0,16,8.666V33.653a1.666,1.666,0,0,0,1.666,1.666h5a1.666,1.666,0,0,0,1.666-1.666V8.666A1.666,1.666,0,0,0,22.663,7Z" transform="translate(-6.932 -5.728)" fill="#00cf66"/><path d="M20.165,35.319h-2.5A1.666,1.666,0,0,1,16,33.653V8.666A1.666,1.666,0,0,1,17.666,7h2.5Z" transform="translate(-6.608 -5.728)" fill="#00b157"/><path d="M34.5,6.526,29.673,7.819A1.666,1.666,0,0,0,28.5,9.86L34.963,34A1.666,1.666,0,0,0,37,35.174L41.83,33.88a1.666,1.666,0,0,0,1.178-2.04L36.541,7.7A1.666,1.666,0,0,0,34.5,6.526Z" transform="translate(-12.901 -5.639)" fill="#fd3730"/><path d="M39.417,34.668,37,35.314a1.666,1.666,0,0,1-2.041-1.178L28.5,10a1.666,1.666,0,0,1,1.178-2.04l2.415-.647Z" transform="translate(-12.901 -5.78)" fill="#d3241f"/><path d="M9.5,35.985h-5a2.5,2.5,0,0,1-2.5-2.5V8.5A2.5,2.5,0,0,1,4.5,6h5A2.5,2.5,0,0,1,12,8.5V33.486a2.5,2.5,0,0,1-2.5,2.5ZM4.5,7.666a.833.833,0,0,0-.833.833V33.486a.833.833,0,0,0,.833.833h5a.833.833,0,0,0,.833-.833V8.5A.833.833,0,0,0,9.5,7.666Z" transform="translate(-2 -5.561)"/><path d="M9.165,13.666H5.833a.833.833,0,0,1,0-1.666H9.165a.833.833,0,0,1,0,1.666Z" transform="translate(-2.501 -6.563)"/><path d="M9.165,35.666H5.833a.833.833,0,0,1,0-1.666H9.165a.833.833,0,0,1,0,1.666Z" transform="translate(-2.501 -10.239)"/><path d="M22.5,35.985h-5a2.5,2.5,0,0,1-2.5-2.5V8.5A2.5,2.5,0,0,1,17.5,6h5A2.5,2.5,0,0,1,25,8.5V33.486a2.5,2.5,0,0,1-2.5,2.5Zm-5-28.319a.833.833,0,0,0-.833.833V33.486a.833.833,0,0,0,.833.833h5a.833.833,0,0,0,.833-.833V8.5a.833.833,0,0,0-.833-.833Z" transform="translate(-6.726 -5.561)"/><path d="M22.165,13.666H18.833a.833.833,0,0,1,0-1.666h3.332a.833.833,0,0,1,0,1.666Z" transform="translate(-7.333 -6.563)"/><path d="M22.165,35.666H18.833a.833.833,0,0,1,0-1.666h3.332a.833.833,0,0,1,0,1.666Z" transform="translate(-7.333 -10.239)"/><path d="M36.4,35.9a2.5,2.5,0,0,1-2.408-1.853L27.525,9.91a2.5,2.5,0,0,1,1.767-3.06l4.827-1.294a2.506,2.506,0,0,1,3.061,1.767l6.469,24.135a2.5,2.5,0,0,1-1.767,3.06l-4.83,1.3A2.522,2.522,0,0,1,36.4,35.9ZM34.765,7.136a.833.833,0,0,0-.215.028L29.723,8.457a.833.833,0,0,0-.506.388.821.821,0,0,0-.083.631L35.6,33.613a.833.833,0,0,0,1.02.589l4.831-1.293a.833.833,0,0,0,.589-1.021L35.569,7.753a.833.833,0,0,0-.8-.617Z" transform="translate(-12.734 -5.473)"/><path d="M32.272,14.12a.833.833,0,0,1-.214-1.638l3.218-.863a.833.833,0,1,1,.431,1.609l-3.218.862a.805.805,0,0,1-.217.029Z" transform="translate(-11.796 -6.495)"/><path d="M37.967,35.37a.833.833,0,0,1-.215-1.638l3.218-.862a.833.833,0,0,1,.431,1.609l-3.218.862a.844.844,0,0,1-.217.028Z" transform="translate(-14.354 -10.046)"/></svg>