<svg xmlns="http://www.w3.org/2000/svg" width="31" height="32.269" viewBox="0 0 31 32.269"><path d="M17.767,33.8c8.155,0,14.767-6.9,14.767-15.4S25.922,3,17.767,3,3,9.9,3,18.4,9.611,33.8,17.767,33.8Z" transform="translate(-2.267 -2.267)" fill="#eaeff0"/><path d="M20.535,30.751A13.588,13.588,0,0,1,12.62,28.2a14.559,14.559,0,0,1-5.155-6.777,15.281,15.281,0,0,1-.6-8.637,14.811,14.811,0,0,1,4.172-7.48A14.921,14.921,0,0,0,5.812,9.973,15.781,15.781,0,0,0,3.18,16.614a16.064,16.064,0,0,0,.539,7.166A15.528,15.528,0,0,0,7.311,29.91a14.629,14.629,0,0,0,5.862,3.756,14.11,14.11,0,0,0,6.854.563,14.383,14.383,0,0,0,6.351-2.752,15.231,15.231,0,0,0,4.463-5.468,14.008,14.008,0,0,1-4.676,3.5A13.457,13.457,0,0,1,20.535,30.751Z" transform="translate(-2.266 -2.881)" fill="#d9e1e2"/><path d="M20.778,15.064l-5.024,3.651a1.467,1.467,0,0,0-.533,1.64l1.919,5.907a1.467,1.467,0,0,0,1.393,1.014h6.21a1.467,1.467,0,0,0,1.393-1.014l1.919-5.907a1.467,1.467,0,0,0-.533-1.64L22.5,15.064a1.467,1.467,0,0,0-1.722,0Z" transform="translate(-6.14 -5.409)" fill="#2d4a60"/><path d="M26.92,3.689,23.2,6.388a1.475,1.475,0,0,1-1.731,0l-3.711-2.7a15.559,15.559,0,0,1,9.16,0Z" transform="translate(-6.837 -2.267)" fill="#2d4a60"/><path d="M6.713,17.882l-3.7,2.692A15.237,15.237,0,0,1,5.826,11.89l1.415,4.349a1.467,1.467,0,0,1-.528,1.643Z" transform="translate(-2.269 -4.637)" fill="#2d4a60"/><path d="M6.669,17.838a14.725,14.725,0,0,1,.244-2.605L5.826,11.89A15.237,15.237,0,0,0,3.01,20.573l3.667-2.662A.5.5,0,0,1,6.669,17.838Z" transform="translate(-2.269 -4.637)" fill="#263f52"/><path d="M14.56,41.936a15.464,15.464,0,0,1-7.4-5.376h4.591a1.467,1.467,0,0,1,1.393,1.012Z" transform="translate(-3.376 -11.214)" fill="#263f52"/><path d="M38.15,36.56a15.464,15.464,0,0,1-7.4,5.376l1.415-4.364a1.466,1.466,0,0,1,1.393-1.012Z" transform="translate(-10.934 -11.214)" fill="#2d4a60"/><path d="M31.781,38.762l-1.027,3.174a15.464,15.464,0,0,0,7.4-5.376H36.959a14.591,14.591,0,0,1-5.178,2.2Z" transform="translate(-10.935 -11.214)" fill="#263f52"/><path d="M43.425,20.573l-3.7-2.692a1.467,1.467,0,0,1-.528-1.643l1.415-4.349a15.237,15.237,0,0,1,2.816,8.683Z" transform="translate(-13.166 -4.637)" fill="#2d4a60"/><path d="M17.5,2A15.07,15.07,0,0,0,8.889,4.719,16.013,16.013,0,0,0,3.18,11.96,16.749,16.749,0,0,0,2.3,21.282,16.35,16.35,0,0,0,6.54,29.544a15.322,15.322,0,0,0,7.936,4.416,14.934,14.934,0,0,0,8.955-.918A15.651,15.651,0,0,0,30.388,27.1,16.624,16.624,0,0,0,28.455,6.731,15.215,15.215,0,0,0,17.5,2ZM28.978,26.613H24.954a2.049,2.049,0,0,0-.6.094L22.22,23.649a2.227,2.227,0,0,0,.273-.57l1.84-5.907a2.267,2.267,0,0,0,.1-.612l3.449-1.166a2.148,2.148,0,0,0,.432.444l3.266,2.471A14.98,14.98,0,0,1,28.978,26.613Zm-18.332.094a2.044,2.044,0,0,0-.6-.094H6.022a14.98,14.98,0,0,1-2.607-8.3l3.267-2.472a2.161,2.161,0,0,0,.432-.44l3.448,1.166a2.277,2.277,0,0,0,.1.613L12.5,23.083a2.23,2.23,0,0,0,.273.57ZM5.214,10.975l.893,2.86a.769.769,0,0,1,0,.453.74.74,0,0,1-.253.368L3.513,16.424a14.983,14.983,0,0,1,1.7-5.449Zm8.633,11.652L12,16.72a.762.762,0,0,1,0-.453.732.732,0,0,1,.256-.367l4.826-3.65a.682.682,0,0,1,.829,0l4.826,3.65a.732.732,0,0,1,.256.367.762.762,0,0,1,0,.453l-1.844,5.907a.732.732,0,0,1-.256.366.686.686,0,0,1-.414.14H14.517a.686.686,0,0,1-.414-.14A.732.732,0,0,1,13.847,22.627Zm15.3-7.974a.741.741,0,0,1-.253-.37.771.771,0,0,1,0-.454l.893-2.854a14.983,14.983,0,0,1,1.7,5.449ZM28.793,9.4l-1.241,3.97a2.253,2.253,0,0,0-.1.625L24,15.163a2.127,2.127,0,0,0-.438-.45l-4.826-3.651a2.1,2.1,0,0,0-.538-.293V7a2.125,2.125,0,0,0,.542-.289L22,4.249A14.177,14.177,0,0,1,28.8,9.4ZM20.262,3.754,17.923,5.526a.69.69,0,0,1-.838,0L14.738,3.754a13.444,13.444,0,0,1,5.524,0ZM13,4.249l3.261,2.469A2.092,2.092,0,0,0,16.8,7v3.767a2.1,2.1,0,0,0-.538.293l-4.826,3.651a2.129,2.129,0,0,0-.438.45L7.548,14a2.265,2.265,0,0,0-.1-.623L6.2,9.4A14.177,14.177,0,0,1,13,4.249ZM7.172,28.079h2.874a.686.686,0,0,1,.413.14.733.733,0,0,1,.256.365l.889,2.854A14.189,14.189,0,0,1,7.172,28.079Zm6.13,4.058-1.248-4.008a2.264,2.264,0,0,0-.27-.558l2.139-3.064a2.031,2.031,0,0,0,.594.092h5.966a2.03,2.03,0,0,0,.594-.092l2.139,3.065a2.268,2.268,0,0,0-.271.56L21.7,32.137a13.573,13.573,0,0,1-8.394,0Zm10.093-.7.888-2.851a.733.733,0,0,1,.255-.367.686.686,0,0,1,.414-.141h2.874a14.189,14.189,0,0,1-4.43,3.36Z" transform="translate(-2 -2)"/></svg>