<svg xmlns="http://www.w3.org/2000/svg" width="31" height="29.334" viewBox="0 0 31 29.334"><path d="M34.98,15.79,18.824,19.86,17.467,19.5,16,15.1l.662-1.015L31.733,7.123l1.869.643,2.2,5.867Z" transform="translate(-7.735 -4.834)" fill="#eaeff0"/><path d="M17.177,19.4l.6,1.811,1.357.359L35.294,17.5l.821-2.156-.681-1.814Z" transform="translate(-8.049 -6.541)" fill="#d9e1e2"/><path d="M12.649,23.356l-5.2,1.84-1.712-.329L5,22.667l.821-1.8,5.2-1.839L12.334,19,13.8,21.934Z" transform="translate(-2.062 -8.001)" fill="#eaeff0"/><path d="M5.482,24.424l.38,1.141,1.712.329,5.2-1.84,1.151-1.423-.507-1.014Z" transform="translate(-2.191 -8.699)" fill="#d9e1e2"/><path d="M27,39.451l-5.239-6.718L21.8,32H16.807l.031.733L11.6,39.451a.4.4,0,0,0-.079.189.426.426,0,0,0,.022.209.358.358,0,0,0,.116.16.278.278,0,0,0,.172.059h1.553a.561.561,0,0,0,.251-.062.652.652,0,0,0,.21-.173l4.521-5.8V39.7a.4.4,0,0,0,.091.259.29.29,0,0,0,.22.107h1.247a.29.29,0,0,0,.221-.107.4.4,0,0,0,.091-.259V34.031l4.521,5.8a.652.652,0,0,0,.21.173.561.561,0,0,0,.251.062h1.553a.278.278,0,0,0,.172-.059.357.357,0,0,0,.116-.16.426.426,0,0,0,.022-.209A.4.4,0,0,0,27,39.451Z" transform="translate(-3.8 -11.467)" fill="#eaeff0"/><path d="M23.2,24.4A2.2,2.2,0,1,0,21,22.2,2.2,2.2,0,0,0,23.2,24.4Z" transform="translate(-7.698 -8.268)" fill="#8fa5a5"/><path d="M6.172,26.674,4.686,27.2a.8.8,0,0,1-1.014-.459L2.048,22.409a.763.763,0,0,1,.473-.985L4.008,20.9a.8.8,0,0,1,1.014.459L6.646,25.69a.762.762,0,0,1-.473.984Z" transform="translate(-1.263 -8.494)" fill="#2d4a60"/><path d="M7.086,26.969l-.494-1.32a1.314,1.314,0,0,1-.454.275l-2.451.868c-.012,0-.023.005-.034.009l.457,1.22a.8.8,0,0,0,1.014.459l1.487-.526a.762.762,0,0,0,.475-.984Z" transform="translate(-1.703 -9.774)" fill="#263f52"/><path d="M17.5,23.192l-1.487.526A.8.8,0,0,1,15,23.259L12.83,17.483A.762.762,0,0,1,13.3,16.5l1.487-.526a.8.8,0,0,1,1.014.459l2.165,5.776a.762.762,0,0,1-.473.984Z" transform="translate(-4.969 -7.181)" fill="#2d4a60"/><path d="M18.148,22.824l-2.974,1.051.458,1.223a.8.8,0,0,0,1.014.459l1.487-.526a.762.762,0,0,0,.473-.984Z" transform="translate(-5.716 -9.02)" fill="#263f52"/><path d="M43.184,15.154l-1.487.525a.8.8,0,0,1-1.014-.459L37.435,6.557a.763.763,0,0,1,.475-.985L39.4,5.046a.8.8,0,0,1,1.014.46l3.245,8.661a.763.763,0,0,1-.473.987Z" transform="translate(-13.438 -4.268)" fill="#2d4a60"/><path d="M44.229,15.837l-2.974,1.051.458,1.222a.8.8,0,0,0,1.014.459l1.487-.525a.763.763,0,0,0,.473-.985Z" transform="translate(-14.468 -7.158)" fill="#263f52"/><path d="M25.6,30H19.733a.733.733,0,0,0-.733.733v.733a.733.733,0,0,0,.733.733H25.6a.733.733,0,0,0,.733-.733v-.733A.733.733,0,0,0,25.6,30Z" transform="translate(-7.165 -10.934)" fill="#2d4a60"/><path d="M31.908,13.646,28.924,4.983a1.494,1.494,0,0,0-.728-.84,1.31,1.31,0,0,0-1.059-.054l-1.366.525a1.366,1.366,0,0,0-.474.306,1.507,1.507,0,0,0-.327.482,1.57,1.57,0,0,0-.11.433L11.9,12.35a1.363,1.363,0,0,0-.645-.313,1.307,1.307,0,0,0-.7.065l-1.367.526a1.364,1.364,0,0,0-.473.305,1.5,1.5,0,0,0-.327.482,1.586,1.586,0,0,0-.041,1.146l.007.022L4.677,16a1.37,1.37,0,0,0-.659-.344,1.306,1.306,0,0,0-.729.059l-1.367.526a1.363,1.363,0,0,0-.473.305,1.5,1.5,0,0,0-.326.482,1.586,1.586,0,0,0-.04,1.146l1.492,4.331a1.49,1.49,0,0,0,.729.845,1.306,1.306,0,0,0,1.064.049l1.366-.526a1.362,1.362,0,0,0,.472-.306,1.5,1.5,0,0,0,.325-.482,1.581,1.581,0,0,0,.1-.377l3.69-1.42.016.048a1.494,1.494,0,0,0,.728.84,1.31,1.31,0,0,0,1.06.053l1.366-.526a1.323,1.323,0,0,0,.551-.38,1.488,1.488,0,0,0,.319-.619,2.683,2.683,0,0,0,1.461,1.059v1.571H13.8a1.3,1.3,0,0,0-.953.43,1.535,1.535,0,0,0-.395,1.037v.733a1.533,1.533,0,0,0,.308.922L7.684,31.485a1.14,1.14,0,0,0-.258.564,1.189,1.189,0,0,0,.069.626,1.081,1.081,0,0,0,.374.482.952.952,0,0,0,.555.18H10.1a1.28,1.28,0,0,0,.542-.125,1.382,1.382,0,0,0,.453-.348l3.715-4.411v3.784a1.151,1.151,0,0,0,.3.778.971.971,0,0,0,.715.322H17.17a.971.971,0,0,0,.715-.322,1.151,1.151,0,0,0,.3-.778V28.453L21.9,32.874a1.374,1.374,0,0,0,.45.341,1.273,1.273,0,0,0,.537.121h1.678a.952.952,0,0,0,.554-.178,1.081,1.081,0,0,0,.374-.479,1.189,1.189,0,0,0,.072-.624,1.142,1.142,0,0,0-.253-.565l-5.083-6.034a1.533,1.533,0,0,0,.308-.922V23.8a1.535,1.535,0,0,0-.395-1.037,1.294,1.294,0,0,0-.953-.43H17.17V20.765a2.664,2.664,0,0,0,1.346-.906,3.052,3.052,0,0,0,.644-1.573l9.129-2.5a1.342,1.342,0,0,0,.663.378,1.269,1.269,0,0,0,.747-.056l1.366-.525a1.369,1.369,0,0,0,.474-.306,1.508,1.508,0,0,0,.327-.482,1.59,1.59,0,0,0,.042-1.146ZM5.28,21.491l-1.365.525a.057.057,0,0,1-.042,0,.063.063,0,0,1-.034-.028L2.375,17.623,3.741,17.1a.063.063,0,0,1,.024,0,.051.051,0,0,1,.03.006.058.058,0,0,1,.022.023l1.493,4.344a.042.042,0,0,1-.012.016A.037.037,0,0,1,5.28,21.491Zm1.059-1.225L5.32,17.308l3.511-1.35L9.85,18.916ZM10.1,31.87H9.188L14.131,26h.681v.279Zm6.058,0V26h.674V31.87Zm6.73,0-4.708-5.588V26h.681l4.945,5.867Zm-3.7-7.334H13.8V23.8h5.391ZM16.5,15a2.566,2.566,0,0,0-1.713.671,2.992,2.992,0,0,0-.93,1.7l-1.288-3.74,12.62-6.348,2.465,7.159L18.99,16.82A2.9,2.9,0,0,0,18,15.5,2.543,2.543,0,0,0,16.5,15Zm-3.453,4.321-1.366.525a.058.058,0,0,1-.042,0,.064.064,0,0,1-.034-.027L9.64,14.011l1.367-.525a.069.069,0,0,1,.024,0,.051.051,0,0,1,.029.007.057.057,0,0,1,.022.023L13.071,19.3a.046.046,0,0,1-.011.015.041.041,0,0,1-.016.009ZM16.5,19.4a1.272,1.272,0,0,1-.749-.247,1.447,1.447,0,0,1-.5-.658,1.587,1.587,0,0,1-.077-.848,1.511,1.511,0,0,1,.369-.751,1.317,1.317,0,0,1,.69-.4,1.246,1.246,0,0,1,.779.083,1.379,1.379,0,0,1,.6.54,1.561,1.561,0,0,1,.227.815,1.535,1.535,0,0,1-.395,1.037A1.294,1.294,0,0,1,16.5,19.4Zm14.122-5.207-1.366.525a.056.056,0,0,1-.043,0,.061.061,0,0,1-.034-.029L26.22,6l1.366-.526a.071.071,0,0,1,.024,0,.053.053,0,0,1,.03.007.059.059,0,0,1,.022.023l2.985,8.676a.046.046,0,0,1-.012.014.043.043,0,0,1-.017.007Z" transform="translate(-0.995 -4.002)"/></svg>