<svg xmlns="http://www.w3.org/2000/svg" width="31" height="26.586" viewBox="0 0 31 26.586"><path d="M57.241,74.667H34.8A2.882,2.882,0,0,0,32,77.621V95.345A2.882,2.882,0,0,0,34.8,98.3H57.241a2.882,2.882,0,0,0,2.8-2.954V77.621A2.882,2.882,0,0,0,57.241,74.667Z" transform="translate(-31.261 -73.928)" fill="#2d4a60"/><path d="M60.046,362.667v.738a3.036,3.036,0,0,1-.821,2.089,2.735,2.735,0,0,1-1.983.865H34.8a2.735,2.735,0,0,1-1.983-.865A3.036,3.036,0,0,1,32,363.405v-.738Z" transform="translate(-31.261 -341.989)" fill="#263f52"/><path d="M195.2,156.022l-7.533-4.349a.665.665,0,0,0-1,.576v8.7a.665.665,0,0,0,1,.576l7.533-4.349a.665.665,0,0,0,0-1.151Z" transform="translate(-175.945 -145.52)" fill="#eaeff0"/><path d="M325.539,288.41A5.539,5.539,0,1,0,320,282.872,5.539,5.539,0,0,0,325.539,288.41Z" transform="translate(-300.816 -262.563)" fill="#fac100"/><path d="M38.2,87.632H24.847a2.061,2.061,0,0,1-1.49-.65,2.276,2.276,0,0,1-.618-1.566H37.5a.673.673,0,0,0,.271-.054A.7.7,0,0,0,38,85.2a.741.741,0,0,0,.154-.241.773.773,0,0,0,0-.568A.741.741,0,0,0,38,84.153a.7.7,0,0,0-.23-.16.673.673,0,0,0-.271-.054H22.738V67.692a2.276,2.276,0,0,1,.618-1.566,2.061,2.061,0,0,1,1.49-.65H47.34a2.061,2.061,0,0,1,1.49.65,2.276,2.276,0,0,1,.618,1.566v8.493a.757.757,0,0,0,.208.518.679.679,0,0,0,.989,0,.757.757,0,0,0,.208-.518V67.692a3.794,3.794,0,0,0-1.031-2.61A3.435,3.435,0,0,0,47.34,64H24.847a3.435,3.435,0,0,0-2.484,1.083,3.793,3.793,0,0,0-1.031,2.61V85.416a3.794,3.794,0,0,0,1.031,2.61,3.435,3.435,0,0,0,2.484,1.083H38.2a.687.687,0,0,0,.493-.219.765.765,0,0,0,0-1.039.687.687,0,0,0-.493-.219Z" transform="translate(-21.332 -64)"/><path d="M178.1,141.1a1.4,1.4,0,0,0-2.1,1.215v8.7a1.4,1.4,0,0,0,2.1,1.215l7.533-4.349a1.4,1.4,0,0,0,0-2.43Zm-.628,9.785v-8.442l7.311,4.221Z" transform="translate(-166.014 -135.592)"/><path d="M365.824,309.55a.739.739,0,0,0-1.044,0l-1.846,1.846a.739.739,0,0,0,1.044,1.044l.586-.586v3.387a.738.738,0,0,0,1.477,0v-3.387l.586.586a.739.739,0,1,0,1.044-1.044Z" transform="translate(-340.579 -292.349)"/><path d="M315.609,266.667a6.284,6.284,0,1,0,4.437,1.841,6.278,6.278,0,0,0-4.437-1.841Zm0,11.077A4.806,4.806,0,1,1,319,276.337a4.8,4.8,0,0,1-3.393,1.408Z" transform="translate(-290.886 -252.636)"/></svg>