<svg xmlns="http://www.w3.org/2000/svg" width="31" height="38.337" viewBox="0 0 31 38.337"><path d="M30.5,42.692a.833.833,0,0,0,1.5-.117l1.308-3.348,3.557.541a.833.833,0,0,0,.85-1.241l-5.676-9.834-7.163,4.253Z" transform="translate(-8.141 -5.604)" fill="#fd3730"/><path d="M32.039,28.693l-7.163,4.253,2.779,4.813A17.408,17.408,0,0,0,35.2,34.17Z" transform="translate(-8.141 -5.604)" fill="#d3241f"/><path d="M14.9,42.692a.833.833,0,0,1-1.5-.117l-1.308-3.348-3.557.541a.833.833,0,0,1-.85-1.241l5.675-9.834,7.163,4.253Z" transform="translate(-6.266 -5.604)" fill="#fd3730"/><path d="M10.729,34.17a17.406,17.406,0,0,0,7.547,3.588l2.779-4.812-7.163-4.253Z" transform="translate(-6.793 -5.604)" fill="#d3241f"/><path d="M21.667,30.319A14.42,14.42,0,0,0,36.334,16.16,14.42,14.42,0,0,0,21.667,2,14.42,14.42,0,0,0,7,16.16,14.42,14.42,0,0,0,21.667,30.319Z" transform="translate(-6.17 -1.144)" fill="#fac100"/><path d="M21.159,31.151A14.119,14.119,0,0,0,31.172,27L11.147,6.979A14.16,14.16,0,0,0,21.159,31.151Z" transform="translate(-6.169 -1.976)" fill="#ff9500"/><path d="M22.5,26.99A10.258,10.258,0,0,0,33,17,10.258,10.258,0,0,0,22.5,7,10.258,10.258,0,0,0,12,17,10.258,10.258,0,0,0,22.5,26.99Z" transform="translate(-7.005 -1.979)" fill="#ff9500"/><path d="M22,27.577a9.961,9.961,0,0,0,7.067-2.928L14.928,10.515A10,10,0,0,0,22,27.577Z" transform="translate(-6.613 -2.567)" fill="#f87600"/><path d="M22.77,22.313l-3.789,1.348.111-4.02L16.64,16.454,20.5,15.317,22.77,12l2.273,3.317L28.9,16.454l-2.452,3.187.111,4.02Z" transform="translate(-7.273 -2.815)" fill="#fac100"/><path d="M22.77,22.989l3.789,1.348-.057-2.1-6.19-6.19L16.64,17.131l2.452,3.187-.111,4.02Z" transform="translate(-7.332 -3.491)" fill="#ff9500"/><path d="M32.264,26.755a14.866,14.866,0,0,0,4.4-7.667,14.534,14.534,0,0,0-.787-8.736,15.1,15.1,0,0,0-5.7-6.816,15.936,15.936,0,0,0-17.338,0,15.1,15.1,0,0,0-5.7,6.816,14.534,14.534,0,0,0-.787,8.736,14.867,14.867,0,0,0,4.4,7.667L6.726,33.479a1.609,1.609,0,0,0,.066,1.766,1.72,1.72,0,0,0,.737.593,1.786,1.786,0,0,0,.95.123l3-.441,1.1,2.732a1.674,1.674,0,0,0,.585.735,1.758,1.758,0,0,0,.9.319c.043,0,.086,0,.127,0a1.75,1.75,0,0,0,.859-.222,1.677,1.677,0,0,0,.626-.61l4.513-7.56c.431.035.869.064,1.311.064s.878-.029,1.311-.064l4.512,7.56a1.678,1.678,0,0,0,.627.61,1.75,1.75,0,0,0,.859.223,1.058,1.058,0,0,0,.127,0,1.759,1.759,0,0,0,.9-.32,1.673,1.673,0,0,0,.585-.738l1.1-2.728,3,.442a1.78,1.78,0,0,0,.948-.124,1.714,1.714,0,0,0,.734-.592,1.609,1.609,0,0,0,.065-1.766ZM14.181,37.644,12.83,34.3a.841.841,0,0,0-.371-.418.886.886,0,0,0-.56-.1l-3.679.537,3.851-6.453a15.67,15.67,0,0,0,6.278,2.809ZM7.723,15.988a13.019,13.019,0,0,1,2.322-7.4,13.69,13.69,0,0,1,6.183-4.908,14.212,14.212,0,0,1,7.96-.758,13.928,13.928,0,0,1,7.054,3.647,13.2,13.2,0,0,1,3.771,6.824,12.922,12.922,0,0,1-.784,7.7,13.433,13.433,0,0,1-5.074,5.981,14.12,14.12,0,0,1-17.392-1.662,13.125,13.125,0,0,1-4.04-9.419ZM31.1,33.771a.886.886,0,0,0-.56.1.841.841,0,0,0-.371.418l-1.35,3.352-4.168-6.977a15.667,15.667,0,0,0,6.279-2.809l3.847,6.453Z" transform="translate(-6.003 -0.972)"/><path d="M22.335,6a11.717,11.717,0,0,0-6.3,1.825,10.951,10.951,0,0,0-4.175,4.859,10.378,10.378,0,0,0-.645,6.256,10.687,10.687,0,0,0,3.1,5.544,11.509,11.509,0,0,0,5.8,2.963,11.829,11.829,0,0,0,6.549-.616,11.239,11.239,0,0,0,5.087-3.988,10.486,10.486,0,0,0,1.91-6.016,10.6,10.6,0,0,0-3.324-7.653A11.623,11.623,0,0,0,22.335,6Zm0,19.99a9.914,9.914,0,0,1-5.329-1.544,9.267,9.267,0,0,1-3.533-4.112,8.782,8.782,0,0,1-.546-5.294,9.043,9.043,0,0,1,2.625-4.691,9.739,9.739,0,0,1,4.911-2.507,10.01,10.01,0,0,1,5.542.521,9.511,9.511,0,0,1,4.3,3.374,8.873,8.873,0,0,1,1.616,5.09A8.97,8.97,0,0,1,29.114,23.3,9.836,9.836,0,0,1,22.335,25.99Z" transform="translate(-6.838 -1.812)"/><path d="M29.526,16.034a.833.833,0,0,0-.557-.541L25.4,14.439,23.29,11.367a.865.865,0,0,0-1.374,0L19.81,14.439l-3.572,1.054a.833.833,0,0,0-.425,1.307l2.272,2.95-.1,3.724a.833.833,0,0,0,1.111.807l3.51-1.246,3.51,1.249a.833.833,0,0,0,1.111-.807l-.1-3.727L29.394,16.8a.833.833,0,0,0,.132-.764Zm-3.9,2.936a.824.824,0,0,0-.172.531l.077,2.805-2.644-.94a.833.833,0,0,0-.558,0l-2.644.94.077-2.805a.825.825,0,0,0-.172-.531l-1.711-2.224,2.691-.794a.833.833,0,0,0,.451-.327L22.6,13.311l1.587,2.315a.832.832,0,0,0,.451.327l2.691.794Z" transform="translate(-7.106 -2.652)"/></svg>