<svg xmlns="http://www.w3.org/2000/svg" width="31" height="31.017" viewBox="0 0 31 31.017"><path d="M137.8,60.25a8.792,8.792,0,1,0-8.783-8.792A8.787,8.787,0,0,0,137.8,60.25Z" transform="translate(-122.299 -41.928)" fill="#fd3730"/><path d="M224.157,232.948a8.792,8.792,0,1,0-8.792-8.792A8.792,8.792,0,0,0,224.157,232.948Z" transform="translate(-202.687 -202.67)" fill="#009ae0"/><path d="M51.46,232.948a8.792,8.792,0,1,0-8.792-8.792A8.792,8.792,0,0,0,51.46,232.948Z" transform="translate(-41.929 -202.67)" fill="#fac100"/><path d="M264.108,215.618a8.808,8.808,0,0,1-5.979,5.11,8.791,8.791,0,0,0-2.121-3.023,8.8,8.8,0,0,1,8.1-2.088Z" transform="translate(-240.51 -202.665)" fill="#a754ba"/><path d="M147.1,217.707a8.8,8.8,0,0,0-2.122,3.023,8.808,8.808,0,0,1-5.978-5.11,8.8,8.8,0,0,1,8.1,2.088Z" transform="translate(-131.597 -202.666)" fill="#f87600"/><path d="M220.994,296.33a8.767,8.767,0,0,1-2.813,6.446,8.8,8.8,0,0,1-2.123-9.869,8.837,8.837,0,0,0,4.243,0,8.749,8.749,0,0,1,.692,3.423Z" transform="translate(-202.68 -274.843)" fill="#00b157"/><path d="M229.593,252.271a8.837,8.837,0,0,1-4.243,0,8.8,8.8,0,0,1,2.122-3.023,8.792,8.792,0,0,1,2.121,3.023Z" transform="translate(-211.972 -234.207)" fill="#c6512b"/><path d="M56.561,44.47a9.525,9.525,0,1,0-18.121,0A9.528,9.528,0,1,0,47.5,60.9,9.525,9.525,0,1,0,56.561,44.47ZM39.451,41.53A8.049,8.049,0,1,1,55.128,44.1a9.512,9.512,0,0,0-7.628,1.97,9.512,9.512,0,0,0-7.628-1.97A8.025,8.025,0,0,1,39.451,41.53ZM49.574,53.487a8.024,8.024,0,0,1-2.074,5.39,8.048,8.048,0,0,1-1.653-7.96,9.56,9.56,0,0,0,3.306,0,8.024,8.024,0,0,1,.42,2.57Zm-2.074-3.9a8.087,8.087,0,0,1-1.026-.065A8.1,8.1,0,0,1,47.5,48.1a8.1,8.1,0,0,1,1.026,1.421,8.087,8.087,0,0,1-1.026.065Zm-2.52-.4A8.091,8.091,0,0,1,40.5,45.5a8.088,8.088,0,0,1,1.026-.065A8,8,0,0,1,46.416,47.1a9.571,9.571,0,0,0-1.435,2.084Zm3.6-2.083a8,8,0,0,1,4.891-1.662A8.087,8.087,0,0,1,54.5,45.5a8.091,8.091,0,0,1-4.482,3.68A9.572,9.572,0,0,0,48.584,47.1ZM33.476,53.487a8.067,8.067,0,0,1,5.529-7.648,9.578,9.578,0,0,0,5.409,4.709,9.522,9.522,0,0,0,2,9.331,8.045,8.045,0,0,1-12.94-6.391Zm20,8.053a8,8,0,0,1-4.891-1.662,9.522,9.522,0,0,0,2-9.331,9.578,9.578,0,0,0,5.409-4.709,8.053,8.053,0,0,1-2.52,15.7Z" transform="translate(-32 -32)"/></svg>