<svg xmlns="http://www.w3.org/2000/svg" width="31" height="33.292" viewBox="0 0 31 33.292"><path d="M130.256,44.268a7.284,7.284,0,0,0,4.761-2.219,9.9,9.9,0,0,1-1.36-4.439l.34-6.154V29.841a9.161,9.161,0,0,0-.6-3.256,8.594,8.594,0,0,0-1.7-2.76,7.814,7.814,0,0,0-2.537-1.844,7.277,7.277,0,0,0-2.993-.648h0a7.515,7.515,0,0,0-5.531,2.492,8.9,8.9,0,0,0-2.291,6.016v1.614l.34,6.154a9.9,9.9,0,0,1-1.36,4.439,7.284,7.284,0,0,0,4.761,2.219Z" transform="translate(-110.675 -20.593)" fill="#2d4a60"/><path d="M40.561,352a6.77,6.77,0,0,0-3.7,1.1,7.273,7.273,0,0,0-2.591,2.985L32,360.878H61.52l-2.275-4.788a7.273,7.273,0,0,0-2.591-2.985,6.77,6.77,0,0,0-3.7-1.1Z" transform="translate(-31.26 -328.326)" fill="#00cf66"/><path d="M183.151,352l-1.36,3.627a1.48,1.48,0,0,0,1.569,1.988l3.49-.436,3.49.436a1.48,1.48,0,0,0,1.569-1.988L190.549,352Z" transform="translate(-171.35 -328.326)" fill="#d9e1e2"/><path d="M202.667,298.667v3.923a2.959,2.959,0,0,0,.856,2.082l2.843,2.873,2.843-2.873a2.959,2.959,0,0,0,.856-2.082v-3.923Z" transform="translate(-190.866 -278.692)" fill="#f9a06f"/><path d="M111.106,176.586h-2.219a2.22,2.22,0,0,1-2.219-2.219v-1.48a2.22,2.22,0,0,1,2.219-2.219h2.219Z" transform="translate(-101.075 -159.57)" fill="#8fa5a5"/><path d="M341.333,176.586h2.219a2.22,2.22,0,0,0,2.219-2.219v-1.48a2.22,2.22,0,0,0-2.219-2.219h-2.219Z" transform="translate(-320.364 -159.57)" fill="#8fa5a5"/><path d="M173.317,130.959V135.4a6.658,6.658,0,0,1-6.658,6.658h0A6.658,6.658,0,0,1,160,135.4v-4.439s5.919,0,8.878-2.959C168.878,128,170.358,130.959,173.317,130.959Z" transform="translate(-151.158 -119.862)" fill="#ffd188"/><path d="M258.589,261.333h-1.48a1.11,1.11,0,0,0,0,2.219h1.48a1.11,1.11,0,1,0,0-2.219Z" transform="translate(-240.6 -243.947)" fill="#8fa5a5"/><path d="M52.258,42.888,49.978,38.1a8.029,8.029,0,0,0-2.065-2.7,7.566,7.566,0,0,0-2.951-1.545,8.69,8.69,0,0,0,1.527-1.21.755.755,0,0,0,.2-.45.768.768,0,0,0-.115-.483A9.9,9.9,0,0,1,45.4,28.755a2.98,2.98,0,0,0,.333-.592,2.863,2.863,0,0,0,1.214-1.091,3.069,3.069,0,0,0,.455-1.608v-1.48a3.069,3.069,0,0,0-.482-1.653,2.854,2.854,0,0,0-1.279-1.089V19.915a9.046,9.046,0,0,0-8.807-9.248,9.046,9.046,0,0,0-8.807,9.248v1.328a2.853,2.853,0,0,0-1.279,1.089,3.068,3.068,0,0,0-.482,1.653v1.48a3.06,3.06,0,0,0,.578,1.791,2.82,2.82,0,0,0,1.492,1.059,9.65,9.65,0,0,1-1.247,3.4.768.768,0,0,0-.115.483.755.755,0,0,0,.2.45,8.69,8.69,0,0,0,1.527,1.21A7.566,7.566,0,0,0,25.752,35.4a8.029,8.029,0,0,0-2.065,2.7l-2.28,4.788a.772.772,0,0,0,.031.72.721.721,0,0,0,.256.257.679.679,0,0,0,.343.094H51.628a.679.679,0,0,0,.343-.094.721.721,0,0,0,.256-.257.772.772,0,0,0,.031-.72ZM31.2,22.477c1.521-.1,5.146-.536,7.6-2.545a5.694,5.694,0,0,0,3.677,2.519V26.2a6.138,6.138,0,0,1-.415,2.219H40.91a1.831,1.831,0,0,0-.649-.807,1.7,1.7,0,0,0-.963-.3H37.889a1.689,1.689,0,0,0-.679.136,1.757,1.757,0,0,0-.577.4,1.857,1.857,0,0,0-.386.6,1.935,1.935,0,0,0,0,1.423,1.857,1.857,0,0,0,.386.6,1.757,1.757,0,0,0,.577.4,1.689,1.689,0,0,0,.679.136H39.3a1.7,1.7,0,0,0,.963-.3,1.831,1.831,0,0,0,.649-.807h.315a5.624,5.624,0,0,1-2.846,1.991,5.377,5.377,0,0,1-3.418-.105,5.669,5.669,0,0,1-2.73-2.162A6.12,6.12,0,0,1,31.2,26.2Zm8.455,6.685a.38.38,0,0,1-.1.261.344.344,0,0,1-.249.108H37.889a.344.344,0,0,1-.249-.108.383.383,0,0,1,0-.523.344.344,0,0,1,.249-.108H39.3a.344.344,0,0,1,.249.108.38.38,0,0,1,.1.261ZM36.832,33.6a6.717,6.717,0,0,0,2.818-.622v1.586a2.3,2.3,0,0,1-.158.844,2.216,2.216,0,0,1-.454.717l-2.207,2.342-2.207-2.342a2.216,2.216,0,0,1-.454-.717,2.3,2.3,0,0,1-.158-.844V32.98a6.715,6.715,0,0,0,2.818.622Zm-4.158,4.627.557-1.561a3.7,3.7,0,0,0,.392.5l1.7,1.805-1.9.25a.674.674,0,0,1-.355-.05.709.709,0,0,1-.286-.226.759.759,0,0,1-.143-.345.773.773,0,0,1,.037-.374Zm7.367-1.061a3.7,3.7,0,0,0,.392-.5l.558,1.561a.774.774,0,0,1,.036.374.759.759,0,0,1-.143.344.709.709,0,0,1-.286.226.674.674,0,0,1-.355.05l-1.9-.25ZM41.06,33.6v-1.48s0-.009,0-.013A7.338,7.338,0,0,0,42.924,29.9h.249a2.682,2.682,0,0,0,1-.2,11.738,11.738,0,0,0,.908,2.27A6.6,6.6,0,0,1,41.06,33.6Zm4.932-8.138a1.52,1.52,0,0,1-.413,1.046,1.377,1.377,0,0,1-1,.434h-.74c.023-.243.036-.49.036-.74V22.5h.7a1.377,1.377,0,0,1,1,.434,1.52,1.52,0,0,1,.413,1.046ZM36.832,12.147a7.232,7.232,0,0,1,5.229,2.278,7.979,7.979,0,0,1,2.169,5.49v1.11H43.173c-2.337,0-3.586-2.527-3.6-2.55a.732.732,0,0,0-.213-.265.688.688,0,0,0-.3-.134.673.673,0,0,0-.329.026.7.7,0,0,0-.282.181c-2.575,2.7-7.9,2.743-7.957,2.743H29.435v-1.11a7.979,7.979,0,0,1,2.169-5.49,7.232,7.232,0,0,1,5.229-2.278ZM27.673,25.463v-1.48a1.52,1.52,0,0,1,.413-1.046,1.377,1.377,0,0,1,1-.434h.7v3.7c0,.25.013.5.036.74h-.74a1.377,1.377,0,0,1-1-.434,1.52,1.52,0,0,1-.413-1.046Zm2.067,2.959h.372a7.421,7.421,0,0,0,2.494,3.686s0,.009,0,.013V33.6a6.646,6.646,0,0,1-4.025-1.634,10.563,10.563,0,0,0,1.16-3.545ZM23.177,42.479l1.77-3.718a6.516,6.516,0,0,1,2.335-2.692,6.084,6.084,0,0,1,3.337-.989h1.675l-.938,2.628a2.324,2.324,0,0,0-.109,1.121,2.277,2.277,0,0,0,.429,1.033,2.127,2.127,0,0,0,.857.679,2.021,2.021,0,0,0,1.064.149l2.532-.332v2.121Zm14.36,0V40.358l2.532.332a2.009,2.009,0,0,0,1.247-.238,2.152,2.152,0,0,0,.754-.7,2.288,2.288,0,0,0,.359-.99,2.324,2.324,0,0,0-.119-1.051l-.938-2.628h1.675a6.084,6.084,0,0,1,3.337.989,6.517,6.517,0,0,1,2.335,2.692l1.77,3.718Z" transform="translate(-21.332 -10.667)"/></svg>