<svg xmlns="http://www.w3.org/2000/svg" width="31" height="27.135" viewBox="0 0 31 27.135"><path d="M8.867,36.067h-2.2A3.667,3.667,0,0,1,3,32.4v-.733A3.667,3.667,0,0,1,6.667,28h2.2Z" transform="translate(-2.267 -11.132)" fill="#eaeff0"/><path d="M37,36.067h2.2A3.667,3.667,0,0,0,42.867,32.4v-.733A3.667,3.667,0,0,0,39.2,28H37Z" transform="translate(-12.601 -11.132)" fill="#eaeff0"/><path d="M3.073,32A3.659,3.659,0,0,0,3,32.733v.733a3.667,3.667,0,0,0,3.667,3.667h2.2v-2.2h-2.2A3.667,3.667,0,0,1,3.073,32Z" transform="translate(-2.267 -12.198)" fill="#d9e1e2"/><path d="M39.2,34.934H37v2.2h2.2a3.667,3.667,0,0,0,3.667-3.667v-.733A3.66,3.66,0,0,0,42.794,32,3.667,3.667,0,0,1,39.2,34.934Z" transform="translate(-12.601 -12.198)" fill="#d9e1e2"/><path d="M11.934,26H10.467A1.467,1.467,0,0,0,9,27.467v8.067A1.467,1.467,0,0,0,10.467,37h1.467A1.467,1.467,0,0,0,13.4,35.534V27.467A1.467,1.467,0,0,0,11.934,26Z" transform="translate(-4.1 -10.599)" fill="#009ae0"/><path d="M35.934,26H34.467A1.467,1.467,0,0,0,33,27.467v8.067A1.467,1.467,0,0,0,34.467,37h1.467A1.467,1.467,0,0,0,37.4,35.534V27.467A1.467,1.467,0,0,0,35.934,26Z" transform="translate(-11.3 -10.599)" fill="#009ae0"/><path d="M11.934,37.467H10.467A1.467,1.467,0,0,1,9,36v2.2a1.467,1.467,0,0,0,1.467,1.467h1.467A1.467,1.467,0,0,0,13.4,38.2V36a1.467,1.467,0,0,1-1.467,1.467Z" transform="translate(-4.1 -13.265)" fill="#0081bd"/><path d="M35.934,37.467H34.467A1.467,1.467,0,0,1,33,36v2.2a1.467,1.467,0,0,0,1.467,1.467h1.467A1.467,1.467,0,0,0,37.4,38.2V36a1.467,1.467,0,0,1-1.467,1.467Z" transform="translate(-11.3 -13.265)" fill="#0081bd"/><path d="M21.967,38.934A1.467,1.467,0,1,0,20.5,37.467,1.467,1.467,0,0,0,21.967,38.934Z" transform="translate(-7.519 -13.265)" fill="#eaeff0"/><path d="M30.182,21.391V18.2a13.48,13.48,0,0,0-3.714-9.335,12.332,12.332,0,0,0-17.935,0A13.48,13.48,0,0,0,4.818,18.2v3.19A4.249,4.249,0,0,0,2.777,23,4.525,4.525,0,0,0,2,25.535v.733a4.5,4.5,0,0,0,1.239,3.11,4.149,4.149,0,0,0,2.988,1.29h.13a2.194,2.194,0,0,0,.769,1.06,2.058,2.058,0,0,0,1.215.406H9.75a2.072,2.072,0,0,0,1.495-.644,2.247,2.247,0,0,0,.619-1.556V21.868a2.247,2.247,0,0,0-.619-1.556,2.072,2.072,0,0,0-1.495-.644H8.341a2.058,2.058,0,0,0-1.215.406,2.193,2.193,0,0,0-.769,1.06h-.13V18.2a11.982,11.982,0,0,1,3.3-8.3,10.962,10.962,0,0,1,15.942,0,11.982,11.982,0,0,1,3.3,8.3v2.934h-.13a2.193,2.193,0,0,0-.769-1.06,2.058,2.058,0,0,0-1.215-.406H25.25a2.072,2.072,0,0,0-1.495.644,2.247,2.247,0,0,0-.619,1.556v8.067a2.247,2.247,0,0,0,.619,1.556,2.072,2.072,0,0,0,1.495.644h1.409a2.058,2.058,0,0,0,1.215-.406,2.193,2.193,0,0,0,.769-1.06h.13a4.149,4.149,0,0,0,2.988-1.29A4.5,4.5,0,0,0,33,26.268v-.733A4.525,4.525,0,0,0,32.223,23,4.249,4.249,0,0,0,30.182,21.391ZM3.409,26.268v-.733a3,3,0,0,1,.825-2.074A2.763,2.763,0,0,1,6.227,22.6v6.6a2.763,2.763,0,0,1-1.993-.859A3,3,0,0,1,3.409,26.268Zm4.227-4.4a.749.749,0,0,1,.206-.519.691.691,0,0,1,.5-.215H9.75a.691.691,0,0,1,.5.215.749.749,0,0,1,.206.519v8.067a.749.749,0,0,1-.206.519.691.691,0,0,1-.5.215H8.341a.691.691,0,0,1-.5-.215.749.749,0,0,1-.206-.519Zm19.727,8.067a.749.749,0,0,1-.206.519.691.691,0,0,1-.5.215H25.25a.691.691,0,0,1-.5-.215.749.749,0,0,1-.206-.519V21.868a.749.749,0,0,1,.206-.519.691.691,0,0,1,.5-.215h1.409a.691.691,0,0,1,.5.215.749.749,0,0,1,.206.519Zm4.227-3.667a3,3,0,0,1-.825,2.074,2.763,2.763,0,0,1-1.993.859V22.6a2.763,2.763,0,0,1,1.993.859,3,3,0,0,1,.825,2.074Z" transform="translate(-2 -5)"/><path d="M23.574,28.123a.733.733,0,0,0-1.14.61v4.535a2.178,2.178,0,0,0-.733-.135,2.2,2.2,0,1,0,2.2,2.2V30.1l1.06.706a.734.734,0,0,0,.814-1.22ZM21.7,36.067a.733.733,0,1,1,.519-.215A.733.733,0,0,1,21.7,36.067Z" transform="translate(-7.3 -11.132)"/></svg>