<svg xmlns="http://www.w3.org/2000/svg" width="31" height="29.985" viewBox="0 0 31 29.985"><path d="M3.7,11a.647.647,0,0,0-.494.244.921.921,0,0,0-.2.589V31.049a.923.923,0,0,0,.182.567.659.659,0,0,0,.457.266c1.129.1,3.551.357,5.646.774a11.923,11.923,0,0,1,5.942,2.974,1.237,1.237,0,0,0,.863.357h3.153a1.236,1.236,0,0,0,.863-.357,11.923,11.923,0,0,1,5.942-2.974c2.1-.416,4.517-.671,5.646-.777a.659.659,0,0,0,.458-.266.923.923,0,0,0,.182-.567V11.833a.92.92,0,0,0-.2-.589A.647.647,0,0,0,31.636,11Z" transform="translate(-2.167 -6.835)" fill="#009ae0"/><path d="M29.555,32H5.865L3.258,35.117a.654.654,0,0,0,.458.271c1.126.106,3.542.361,5.633.777a11.884,11.884,0,0,1,5.927,2.974,1.232,1.232,0,0,0,.861.357h3.145a1.232,1.232,0,0,0,.861-.357,11.884,11.884,0,0,1,5.927-2.974c2.09-.416,4.507-.671,5.633-.777a.654.654,0,0,0,.458-.271Z" transform="translate(-2.21 -10.344)" fill="#0081bd"/><path d="M18.335,31.988a10.589,10.589,0,0,1,5.334-3.332,27.554,27.554,0,0,1,6-.833V7a27.555,27.555,0,0,0-6,.833,10.588,10.588,0,0,0-5.334,3.332A10.588,10.588,0,0,0,13,7.833,27.555,27.555,0,0,0,7,7V27.823a27.554,27.554,0,0,1,6,.833A10.589,10.589,0,0,1,18.335,31.988Z" transform="translate(-2.835 -6.167)" fill="#eaeff0"/><path d="M28.165,29.723V8.9A13.541,13.541,0,0,0,24,11.482V32.3a13.54,13.54,0,0,1,4.165-2.582Z" transform="translate(-8.862 -6.485)" fill="#d9e1e2"/><path d="M11.165,7.3A38.647,38.647,0,0,0,7,7V27.823a38.646,38.646,0,0,1,4.165.3Z" transform="translate(-2.835 -6.167)" fill="#d9e1e2"/><path d="M31.591,9.332H30.182v-2.5a.916.916,0,0,0-.206-.589.654.654,0,0,0-.5-.244A31.011,31.011,0,0,0,23,6.85a12.106,12.106,0,0,0-5.5,3.039A12.106,12.106,0,0,0,12,6.85,31.011,31.011,0,0,0,5.523,6a.655.655,0,0,0-.5.244.916.916,0,0,0-.206.589v2.5H3.409a1.309,1.309,0,0,0-1,.488A1.831,1.831,0,0,0,2,11V30.214a1.85,1.85,0,0,0,.375,1.128,1.345,1.345,0,0,0,.92.532c1.222.113,3.579.363,5.636.768a11.44,11.44,0,0,1,5.666,2.8,1.906,1.906,0,0,0,1.313.541h3.179a1.907,1.907,0,0,0,1.313-.541,11.431,11.431,0,0,1,5.668-2.8c2.055-.4,4.412-.655,5.636-.768a1.346,1.346,0,0,0,.919-.533A1.85,1.85,0,0,0,33,30.214V11a1.831,1.831,0,0,0-.413-1.178A1.309,1.309,0,0,0,31.591,9.332Zm-8.314-.85a31.854,31.854,0,0,1,5.5-.792V26.847A32.548,32.548,0,0,0,23,27.68,11.942,11.942,0,0,0,18.2,30.1V11.365a10.807,10.807,0,0,1,5.073-2.883ZM6.227,7.69a31.854,31.854,0,0,1,5.5.792A10.874,10.874,0,0,1,16.8,11.366V30.091A11.942,11.942,0,0,0,12,27.676a32.548,32.548,0,0,0-5.777-.833ZM25.838,31a12.8,12.8,0,0,0-6.32,3.147.611.611,0,0,1-.429.173H15.911a.614.614,0,0,1-.43-.173A12.788,12.788,0,0,0,9.162,31c-2.109-.416-4.509-.671-5.753-.785V11H4.818V27.656a.916.916,0,0,0,.206.589.655.655,0,0,0,.5.244,30.421,30.421,0,0,1,6.2.816A10.742,10.742,0,0,1,17,32.41a.631.631,0,0,0,1,0,10.646,10.646,0,0,1,5.282-3.105,30.421,30.421,0,0,1,6.2-.816.655.655,0,0,0,.5-.244.916.916,0,0,0,.206-.589V11h1.409l0,19.215C30.35,30.328,27.947,30.584,25.838,31Z" transform="translate(-2 -6)"/><path d="M18.33,29.656a.833.833,0,0,0,.361-1.583,14.957,14.957,0,0,0-3.527-1.183c-1.333-.268-2.764-.482-4.241-.637a.833.833,0,1,0-.173,1.658c1.427.149,2.8.356,4.081.612a13.31,13.31,0,0,1,3.136,1.05A.832.832,0,0,0,18.33,29.656Z" transform="translate(-4.707 -9.383)"/><path d="M35.252,26.254c-1.478.155-2.905.369-4.248.637a14.978,14.978,0,0,0-3.527,1.182.833.833,0,0,0,.723,1.5,13.327,13.327,0,0,1,3.138-1.049c1.286-.257,2.665-.463,4.088-.612a.833.833,0,1,0-.173-1.658Z" transform="translate(-10.464 -9.383)"/><path d="M10.75,22.912c1.427.149,2.8.356,4.081.612a13.31,13.31,0,0,1,3.136,1.05.833.833,0,1,0,.723-1.5,14.956,14.956,0,0,0-3.526-1.184c-1.333-.268-2.764-.482-4.241-.637a.833.833,0,1,0-.173,1.658Z" transform="translate(-4.708 -8.548)"/><path d="M27.833,24.656a.832.832,0,0,0,.361-.083,13.329,13.329,0,0,1,3.137-1.049c1.286-.257,2.665-.463,4.088-.612a.833.833,0,0,0-.173-1.658c-1.478.155-2.905.369-4.248.637a14.977,14.977,0,0,0-3.527,1.182.833.833,0,0,0,.362,1.583Z" transform="translate(-10.457 -8.548)"/><path d="M10.75,17.912c1.427.149,2.8.356,4.081.612a13.31,13.31,0,0,1,3.136,1.05.833.833,0,1,0,.723-1.5,14.955,14.955,0,0,0-3.526-1.184c-1.333-.268-2.764-.482-4.241-.637a.833.833,0,1,0-.173,1.658Z" transform="translate(-4.708 -7.713)"/><path d="M27.833,19.656a.831.831,0,0,0,.361-.083,13.329,13.329,0,0,1,3.137-1.049c1.286-.257,2.665-.463,4.088-.612a.833.833,0,0,0-.173-1.658c-1.478.155-2.905.369-4.248.637a14.977,14.977,0,0,0-3.527,1.182.833.833,0,0,0,.362,1.583Z" transform="translate(-10.457 -7.713)"/><path d="M10.75,12.912c1.427.149,2.8.356,4.081.612a13.31,13.31,0,0,1,3.136,1.05.833.833,0,1,0,.723-1.5,14.956,14.956,0,0,0-3.526-1.184c-1.333-.268-2.764-.482-4.241-.637a.833.833,0,1,0-.173,1.658Z" transform="translate(-4.708 -6.877)"/><path d="M27.833,14.656a.831.831,0,0,0,.361-.083,13.329,13.329,0,0,1,3.137-1.049c1.286-.257,2.665-.463,4.088-.612a.833.833,0,0,0-.173-1.658c-1.478.155-2.905.369-4.248.637a14.977,14.977,0,0,0-3.527,1.182.833.833,0,0,0,.362,1.583Z" transform="translate(-10.457 -6.877)"/></svg>