<svg xmlns="http://www.w3.org/2000/svg" width="31" height="26.402" viewBox="0 0 31 26.402"><path d="M37.4,37.8A4.4,4.4,0,1,0,33,33.4,4.4,4.4,0,0,0,37.4,37.8Z" transform="translate(-11.534 -12.132)" fill="#2d4a60"/><path d="M37.4,29a4.384,4.384,0,0,0-4.254,5.5h5.72A4.739,4.739,0,0,0,41.8,33.486a.556.556,0,0,0,0-.086A4.4,4.4,0,0,0,37.4,29Z" transform="translate(-11.535 -12.132)" fill="#263f52"/><path d="M38.333,35.667A1.833,1.833,0,1,0,36.5,33.833,1.833,1.833,0,0,0,38.333,35.667Z" transform="translate(-12.467 -12.932)" fill="#8fa5a5"/><path d="M22.4,37.8A4.4,4.4,0,1,0,18,33.4,4.4,4.4,0,0,0,22.4,37.8Z" transform="translate(-6.9 -12.132)" fill="#2d4a60"/><path d="M26.8,33.391a4.4,4.4,0,1,0-8.654,1.1h8.507a4.387,4.387,0,0,0,.147-1.1Z" transform="translate(-6.9 -12.122)" fill="#263f52"/><path d="M23.467,35.934A1.467,1.467,0,1,0,22,34.467,1.467,1.467,0,0,0,23.467,35.934Z" transform="translate(-7.967 -13.198)" fill="#8fa5a5"/><path d="M7.4,37.8A4.4,4.4,0,1,0,3,33.4,4.4,4.4,0,0,0,7.4,37.8Z" transform="translate(-2.267 -12.132)" fill="#2d4a60"/><path d="M11.654,34.491A4.4,4.4,0,1,0,3,33.391a.556.556,0,0,0,0,.086,4.739,4.739,0,0,0,2.929,1.014Z" transform="translate(-2.267 -12.122)" fill="#263f52"/><path d="M8.467,35.934A1.467,1.467,0,1,0,7,34.467,1.467,1.467,0,0,0,8.467,35.934Z" transform="translate(-3.333 -13.198)" fill="#8fa5a5"/><path d="M5.11,8.467v5.2a7.969,7.969,0,0,1-1.055,3.971A7.969,7.969,0,0,0,3,21.606v2.263a3,3,0,0,0,.824,2.074,2.755,2.755,0,0,0,1.989.859H29.721a2.755,2.755,0,0,0,1.989-.859,3,3,0,0,0,.824-2.074v-.733a6,6,0,0,0-1.648-4.149,5.511,5.511,0,0,0-3.978-1.718H25.672a6.944,6.944,0,0,1-2.756-.572,7.188,7.188,0,0,1-2.337-1.628,7.539,7.539,0,0,1-1.561-2.437,7.792,7.792,0,0,1-.548-2.875V8.467a1.5,1.5,0,0,0-.412-1.037A1.378,1.378,0,0,0,17.063,7H6.516a1.378,1.378,0,0,0-.994.43A1.5,1.5,0,0,0,5.11,8.467Z" transform="translate(-2.267 -6.267)" fill="#fd3730"/><path d="M5.934,25.073v-2.42A8.266,8.266,0,0,1,7.112,18.4a8.27,8.27,0,0,0,1.179-4.254V8.572A1.572,1.572,0,0,1,9.862,7h-3.2A1.467,1.467,0,0,0,5.2,8.467v5.2a7.717,7.717,0,0,1-1.1,3.971A7.717,7.717,0,0,0,3,21.606v2.263A2.934,2.934,0,0,0,5.934,26.8h.521A3.125,3.125,0,0,1,5.934,25.073Z" transform="translate(-2.267 -6.267)" fill="#c92424"/><path d="M10.954,28.58,9.11,27.62A5.433,5.433,0,0,0,6.594,27H3v2.2a3,3,0,0,0,.824,2.074,2.755,2.755,0,0,0,1.989.859H29.721a2.755,2.755,0,0,0,1.989-.859,3,3,0,0,0,.824-2.074H13.47a5.433,5.433,0,0,1-2.516-.62Z" transform="translate(-2.267 -11.599)" fill="#eaeff0"/><path d="M5.934,30.405v-2.42A8.259,8.259,0,0,1,6,27H3v2.2a2.934,2.934,0,0,0,2.934,2.934h.521A3.125,3.125,0,0,1,5.934,30.405Z" transform="translate(-2.267 -11.599)" fill="#d9e1e2"/><path d="M33,22.868A6.747,6.747,0,0,0,31.141,18.2a6.224,6.224,0,0,0-4.482-1.935H25.42a6.384,6.384,0,0,1-4.6-1.985,6.921,6.921,0,0,1-1.907-4.793V8.2a2.247,2.247,0,0,0-.619-1.556A2.072,2.072,0,0,0,16.8,6H6.227a2.072,2.072,0,0,0-1.495.644A2.247,2.247,0,0,0,4.114,8.2v5.2a7.21,7.21,0,0,1-.956,3.594A8.716,8.716,0,0,0,2,21.339V23.6a3.74,3.74,0,0,0,.4,1.661A5.265,5.265,0,0,0,3.444,30.9a4.8,4.8,0,0,0,6.975,0,5.242,5.242,0,0,0,1.445-3.63h.7a5.242,5.242,0,0,0,1.445,3.63,4.8,4.8,0,0,0,6.975,0,5.242,5.242,0,0,0,1.445-3.63h.7a5.242,5.242,0,0,0,1.445,3.63,4.8,4.8,0,0,0,6.975,0A5.265,5.265,0,0,0,32.6,25.263,3.74,3.74,0,0,0,33,23.6ZM4.365,17.745A8.716,8.716,0,0,0,5.523,13.4V8.2a.749.749,0,0,1,.206-.519.691.691,0,0,1,.5-.215H16.8a.691.691,0,0,1,.5.215A.749.749,0,0,1,17.5,8.2V9.489c0,.059.007.118.008.177H15.386a.691.691,0,0,0-.5.215.755.755,0,0,0,0,1.037.691.691,0,0,0,.5.215h2.271a8.443,8.443,0,0,0,.416,1.438l-2,.887a.7.7,0,0,0-.232.159.737.737,0,0,0-.155.24.762.762,0,0,0,0,.568.736.736,0,0,0,.157.239.7.7,0,0,0,.234.157.679.679,0,0,0,.545-.013l2.1-.929a8.214,8.214,0,0,0,1.057,1.389l-1.469,1.668a.755.755,0,0,0,.043,1.036.685.685,0,0,0,1-.045l1.506-1.711a7.782,7.782,0,0,0,1.578.91l-.524,1.927a.76.76,0,0,0,.062.557.71.71,0,0,0,.422.348.658.658,0,0,0,.194.028.687.687,0,0,0,.424-.148.735.735,0,0,0,.253-.384l.518-1.9a7.666,7.666,0,0,0,1.639.178h1.239a4.842,4.842,0,0,1,3.485,1.506,5.249,5.249,0,0,1,1.446,3.628h-18.4a4.8,4.8,0,0,1-2.206-.542l-1.847-.961a6.168,6.168,0,0,0-2.836-.7H3.453a7.186,7.186,0,0,1,.912-2.923Zm2.567,13.19a3.385,3.385,0,0,1-1.5-.344,3.524,3.524,0,0,1-1.217-.983,3.7,3.7,0,0,1-.694-1.431,3.789,3.789,0,0,1-.037-1.6,3.425,3.425,0,0,0,1.35.62c0,.025-.009.048-.009.073a2.247,2.247,0,0,0,.619,1.556,2.055,2.055,0,0,0,2.989,0,2.247,2.247,0,0,0,.619-1.556h1.409a3.749,3.749,0,0,1-1.034,2.592,3.458,3.458,0,0,1-2.491,1.075Zm.7-3.667a.749.749,0,0,1-.206.519.685.685,0,0,1-1,0,.749.749,0,0,1-.206-.519ZM17.5,30.935a3.458,3.458,0,0,1-2.49-1.075,3.749,3.749,0,0,1-1.033-2.592h1.409a2.247,2.247,0,0,0,.619,1.556,2.055,2.055,0,0,0,2.989,0,2.247,2.247,0,0,0,.619-1.556h1.409A3.749,3.749,0,0,1,19.99,29.86a3.458,3.458,0,0,1-2.49,1.075Zm.7-3.667a.749.749,0,0,1-.206.519.685.685,0,0,1-1,0,.749.749,0,0,1-.206-.519ZM5.523,25.8a2.072,2.072,0,0,1-1.495-.644A2.247,2.247,0,0,1,3.409,23.6V22.135h2.9a4.8,4.8,0,0,1,2.206.542l1.847.961a6.168,6.168,0,0,0,2.837.7H31.461a2.193,2.193,0,0,1-.769,1.06,2.058,2.058,0,0,1-1.215.406ZM29.06,27.268a1.09,1.09,0,0,1-.384.532,1.017,1.017,0,0,1-1.217,0,1.09,1.09,0,0,1-.384-.532Zm-.992,3.667a3.458,3.458,0,0,1-2.49-1.075,3.749,3.749,0,0,1-1.033-2.592h1.093a2.583,2.583,0,0,0,.852,1.6,2.382,2.382,0,0,0,3.285-.122,2.6,2.6,0,0,0,.74-1.663,3.431,3.431,0,0,0,1.007-.513,3.79,3.79,0,0,1-.037,1.6,3.7,3.7,0,0,1-.695,1.432,3.523,3.523,0,0,1-1.218.983,3.386,3.386,0,0,1-1.505.343Z" transform="translate(-2 -6)"/></svg>