<svg xmlns="http://www.w3.org/2000/svg" width="31" height="32.552" viewBox="0 0 31 32.552"><path d="M139.176,32h-6.851a10.418,10.418,0,0,0-.21,1.635c-2.476.228-4.363,3.259-2.767,6.542l.709,1.441h13.464l.522-1.338C145.451,36.415,142.965,32,139.176,32Z" transform="translate(-121.309 -31.26)" fill="#2d4a60"/><path d="M341.333,165.919h2.219a2.22,2.22,0,0,0,2.219-2.219v-1.48A2.22,2.22,0,0,0,343.552,160h-2.219Z" transform="translate(-320.364 -150.382)" fill="#8fa5a5"/><path d="M111.106,165.919h-2.219a2.22,2.22,0,0,1-2.219-2.219v-1.48A2.22,2.22,0,0,1,108.886,160h2.219Z" transform="translate(-101.075 -150.382)" fill="#8fa5a5"/><path d="M40,341.331a6.8,6.8,0,0,0-4.176,1.447,7.4,7.4,0,0,0-2.542,3.775L32,350.949H61.521l-1.285-4.4a7.4,7.4,0,0,0-2.542-3.775,6.8,6.8,0,0,0-4.176-1.447Z" transform="translate(-31.26 -319.136)" fill="#00cf66"/><path d="M183.151,341.331l-1.36,3.627a1.48,1.48,0,0,0,1.569,1.988l3.49-.436,3.49.436a1.48,1.48,0,0,0,1.569-1.988l-1.36-3.627Z" transform="translate(-171.351 -319.136)" fill="#d9e1e2"/><path d="M210.065,288v3.923a2.959,2.959,0,0,1-.856,2.081l-2.843,2.873L203.523,294a2.959,2.959,0,0,1-.856-2.081V288Z" transform="translate(-190.866 -269.504)" fill="#f9a06f"/><path d="M166.658,142.057A6.658,6.658,0,0,1,160,135.4v-4.236A3.163,3.163,0,0,1,163.163,128h6.991a3.163,3.163,0,0,1,3.163,3.163V135.4a6.658,6.658,0,0,1-6.658,6.658Z" transform="translate(-151.158 -120.602)" fill="#ffd188"/><path d="M258.589,261.333h-1.48a1.11,1.11,0,0,0,0,2.219h1.48a1.11,1.11,0,1,0,0-2.219Z" transform="translate(-240.599 -244.687)" fill="#7b8c8c"/><path d="M52.3,52.929l-1.288-4.4a8.1,8.1,0,0,0-2.8-4.161,7.467,7.467,0,0,0-4.61-1.584H41.062v-.74s0-.009,0-.013a7.339,7.339,0,0,0,1.866-2.206h.249a2.745,2.745,0,0,0,1.868-.747,3.012,3.012,0,0,0,.928-1.859,2.891,2.891,0,0,0,1.046-1.084,3.074,3.074,0,0,0,.385-1.489v-1.48a3.057,3.057,0,0,0-.62-1.848A2.807,2.807,0,0,0,45.2,30.285a7.216,7.216,0,0,0,.286-3.138A7.1,7.1,0,0,0,44.411,24.2a6,6,0,0,0-5.079-2.87H32.163a.682.682,0,0,0-.427.152.742.742,0,0,0-.252.393,8.4,8.4,0,0,0-.2,1.2,4.824,4.824,0,0,0-3.11,2.589,5.65,5.65,0,0,0,.134,4.66,2.823,2.823,0,0,0-1.474,1.063,3.061,3.061,0,0,0-.57,1.78v1.48a3.04,3.04,0,0,0,.826,2.092,2.755,2.755,0,0,0,1.992.868h.847a7.453,7.453,0,0,0,2.677,4.426s0,.009,0,.013v.74H30.061a7.468,7.468,0,0,0-4.61,1.584,8.1,8.1,0,0,0-2.8,4.161l-1.288,4.4a.775.775,0,0,0-.021.342.76.76,0,0,0,.128.315.715.715,0,0,0,.249.221.677.677,0,0,0,.317.079H51.631a.677.677,0,0,0,.317-.079.714.714,0,0,0,.249-.221.759.759,0,0,0,.128-.315.775.775,0,0,0-.021-.342ZM32.677,47.416l.557-1.561a3.7,3.7,0,0,0,.392.5l1.7,1.8-1.9.25a.674.674,0,0,1-.355-.05.71.71,0,0,1-.286-.226.759.759,0,0,1-.143-.345.774.774,0,0,1,.037-.374Zm7.367-1.061a3.706,3.706,0,0,0,.392-.5l.558,1.561a.775.775,0,0,1,.036.374.758.758,0,0,1-.143.344.709.709,0,0,1-.286.226.674.674,0,0,1-.355.05l-1.9-.25Zm3.531-8.072c.064-.22.12-.444.164-.672h.651a1.419,1.419,0,0,1-.815.672Zm2.42-5.111v1.48a1.52,1.52,0,0,1-.413,1.046,1.378,1.378,0,0,1-1,.434h-.7V31.895c0-.069-.007-.136-.01-.2h.714a1.377,1.377,0,0,1,1,.434,1.52,1.52,0,0,1,.413,1.046ZM32.742,22.814h6.591a4.625,4.625,0,0,1,3.912,2.22,5.581,5.581,0,0,1,.863,2.453,5.66,5.66,0,0,1-.334,2.592l-.051.133h-.211A3.848,3.848,0,0,0,42.143,28.6a3.589,3.589,0,0,0-1.979-.6H33.921a.74.74,0,0,0-.074-.112A6.7,6.7,0,0,1,32.742,22.814Zm-3.3,3.5a3.338,3.338,0,0,1,1.809-1.67A7.513,7.513,0,0,0,32.319,28.2a3.694,3.694,0,0,0-1.273.777,3.905,3.905,0,0,0-.888,1.234h-.341l-.139-.292A4.186,4.186,0,0,1,29.444,26.314Zm-.359,9.817a1.377,1.377,0,0,1-1-.434,1.519,1.519,0,0,1-.413-1.046v-1.48a1.519,1.519,0,0,1,.413-1.046,1.377,1.377,0,0,1,1-.434H29.8c0,.068-.01.135-.01.2V36.13Zm2.114,0V31.895a2.489,2.489,0,0,1,.677-1.712,2.256,2.256,0,0,1,1.631-.71h6.658a2.256,2.256,0,0,1,1.631.71,2.489,2.489,0,0,1,.677,1.712v4.236a6.14,6.14,0,0,1-.415,2.219H40.913a1.831,1.831,0,0,0-.649-.807,1.7,1.7,0,0,0-.963-.3H37.892a1.688,1.688,0,0,0-.679.136,1.758,1.758,0,0,0-.577.4,1.856,1.856,0,0,0-.386.6,1.935,1.935,0,0,0,0,1.423,1.856,1.856,0,0,0,.386.6,1.758,1.758,0,0,0,.577.4,1.689,1.689,0,0,0,.679.136H39.3a1.7,1.7,0,0,0,.963-.3,1.831,1.831,0,0,0,.649-.807h.315a5.624,5.624,0,0,1-2.846,1.991,5.377,5.377,0,0,1-3.418-.105,5.668,5.668,0,0,1-2.73-2.162A6.119,6.119,0,0,1,31.2,36.13Zm8.455,2.959a.38.38,0,0,1-.1.261.344.344,0,0,1-.249.108H37.892a.344.344,0,0,1-.249-.108.383.383,0,0,1,0-.523.344.344,0,0,1,.249-.108H39.3a.344.344,0,0,1,.249.108.38.38,0,0,1,.1.261Zm-2.818,4.439a6.717,6.717,0,0,0,2.818-.622v.846a2.3,2.3,0,0,1-.158.844,2.216,2.216,0,0,1-.454.717l-2.207,2.342-2.207-2.342a2.216,2.216,0,0,1-.454-.717,2.3,2.3,0,0,1-.158-.844v-.846a6.716,6.716,0,0,0,2.818.622ZM22.993,52.407,24,48.969a6.63,6.63,0,0,1,2.289-3.4,6.111,6.111,0,0,1,3.772-1.3H32.3L31.358,46.9a2.323,2.323,0,0,0-.109,1.121,2.276,2.276,0,0,0,.429,1.033,2.127,2.127,0,0,0,.857.678,2.022,2.022,0,0,0,1.064.149l2.532-.332v2.861Zm14.546,0V49.546l2.532.332a2.008,2.008,0,0,0,1.247-.238,2.151,2.151,0,0,0,.754-.7,2.287,2.287,0,0,0,.359-.99,2.324,2.324,0,0,0-.119-1.051l-.938-2.628h2.234a6.111,6.111,0,0,1,3.772,1.3,6.63,6.63,0,0,1,2.289,3.4l1.007,3.438Z" transform="translate(-21.335 -21.334)"/></svg>