<svg xmlns="http://www.w3.org/2000/svg" width="31" height="24.545" viewBox="0 0 31 24.545"><path d="M11.133,32.635H5.5a2.5,2.5,0,0,1-2.5-2.5V27.317A5.317,5.317,0,0,1,8.317,22h0a5.317,5.317,0,0,1,5.317,5.317v2.815a2.5,2.5,0,0,1-2.5,2.5Z" transform="translate(-2.374 -9.966)" fill="#8fa5a5"/><path d="M5.5,30.133V27.317a5.318,5.318,0,0,1,4.066-5.164A5.3,5.3,0,0,0,3,27.317v2.815a2.5,2.5,0,0,0,2.5,2.5H8a2.5,2.5,0,0,1-2.5-2.5Z" transform="translate(-2.374 -9.966)" fill="#7b8c8c"/><path d="M9.441,17.881A3.441,3.441,0,1,0,6,14.441,3.441,3.441,0,0,0,9.441,17.881Z" transform="translate(-3.498 -7.871)" fill="#8fa5a5"/><path d="M10.379,16a2.5,2.5,0,0,1-.424-4.962A3.487,3.487,0,0,0,9.441,11a3.441,3.441,0,1,0,3.441,3.441,3.488,3.488,0,0,0-.043-.515A2.5,2.5,0,0,1,10.379,16Z" transform="translate(-3.498 -7.871)" fill="#7b8c8c"/><path d="M36.133,32.635H30.5a2.5,2.5,0,0,1-2.5-2.5V27.317A5.317,5.317,0,0,1,33.317,22h0a5.317,5.317,0,0,1,5.317,5.317v2.815a2.5,2.5,0,0,1-2.5,2.5Z" transform="translate(-8.261 -9.966)" fill="#8fa5a5"/><path d="M30.5,30.133V27.317a5.318,5.318,0,0,1,4.066-5.164A5.3,5.3,0,0,0,28,27.317v2.815a2.5,2.5,0,0,0,2.5,2.5H33a2.5,2.5,0,0,1-2.5-2.5Z" transform="translate(-9.038 -9.966)" fill="#7b8c8c"/><path d="M34.441,17.881A3.441,3.441,0,1,0,31,14.441,3.441,3.441,0,0,0,34.441,17.881Z" transform="translate(-9.384 -7.871)" fill="#8fa5a5"/><path d="M35.379,16a2.5,2.5,0,0,1-.423-4.962A3.487,3.487,0,0,0,34.441,11a3.441,3.441,0,1,0,3.441,3.441,3.484,3.484,0,0,0-.043-.515A2.5,2.5,0,0,1,35.379,16Z" transform="translate(-9.384 -7.871)" fill="#7b8c8c"/><path d="M24.009,33.512H16.5a2.5,2.5,0,0,1-2.5-2.5V27.256a6.256,6.256,0,1,1,12.512,0v3.753a2.5,2.5,0,0,1-2.5,2.5Z" transform="translate(-4.756 -9.592)" fill="#2d4a60"/><path d="M16.5,31.009V27.255a6.256,6.256,0,0,1,5-6.131A6.256,6.256,0,0,0,14,27.255v3.753a2.5,2.5,0,0,0,2.5,2.5H19a2.5,2.5,0,0,1-2.5-2.5Z" transform="translate(-5.19 -9.591)" fill="#263f52"/><path d="M21.379,15.758A4.379,4.379,0,1,0,17,11.379,4.379,4.379,0,0,0,21.379,15.758Z" transform="translate(-5.879 -6.374)" fill="#2d4a60"/><path d="M22.628,13.95A3.75,3.75,0,0,1,20.4,7.182a4.379,4.379,0,1,0,5.244,5.244,3.743,3.743,0,0,1-3.014,1.523Z" transform="translate(-5.888 -6.442)" fill="#263f52"/><path d="M31.039,18.124a6.7,6.7,0,0,0-2.074-1.364,4.485,4.485,0,0,0,1.284-1.353,4.3,4.3,0,0,0,.43-3.57,4.39,4.39,0,0,0-.928-1.6,4.565,4.565,0,0,0-1.52-1.1,4.714,4.714,0,0,0-3.713-.053,4.577,4.577,0,0,0-1.553,1.056A5.433,5.433,0,0,0,20.97,7.157a5.776,5.776,0,0,0-6.94,0,5.433,5.433,0,0,0-1.994,2.982,4.576,4.576,0,0,0-1.553-1.057,4.714,4.714,0,0,0-3.715.052,4.566,4.566,0,0,0-1.521,1.1,4.39,4.39,0,0,0-.928,1.6,4.3,4.3,0,0,0,.433,3.571,4.485,4.485,0,0,0,1.286,1.352A6.653,6.653,0,0,0,3.1,19.149,6.337,6.337,0,0,0,2,22.7v3.068a3.358,3.358,0,0,0,1.033,2.409,3.588,3.588,0,0,0,2.49,1h4.95a3.481,3.481,0,0,0,1.234,1,3.6,3.6,0,0,0,1.566.362h8.455a3.6,3.6,0,0,0,1.566-.362,3.481,3.481,0,0,0,1.234-1h4.95a3.588,3.588,0,0,0,2.49-1A3.358,3.358,0,0,0,33,25.772V22.7a6.253,6.253,0,0,0-.506-2.48,6.424,6.424,0,0,0-1.455-2.1ZM26.307,10.09a3.246,3.246,0,0,1,1.761.517,3.092,3.092,0,0,1,1.168,1.377,2.976,2.976,0,0,1,.18,1.773,3.039,3.039,0,0,1-.868,1.571,3.2,3.2,0,0,1-1.623.84,3.268,3.268,0,0,1-1.832-.175,3.15,3.15,0,0,1-1.423-1.13,2.991,2.991,0,0,1,.4-3.873,3.228,3.228,0,0,1,2.241-.9Zm-3.772,7.264a7.787,7.787,0,0,0-2.106-1.249,5.616,5.616,0,0,0,1.59-1.405,4.464,4.464,0,0,0,1.635,2.064,6.83,6.83,0,0,0-1.119.59ZM17.5,7.363a4.328,4.328,0,0,1,2.349.689,4.123,4.123,0,0,1,1.557,1.836,3.968,3.968,0,0,1,.241,2.364,4.051,4.051,0,0,1-1.157,2.095,4.273,4.273,0,0,1-2.164,1.12,4.359,4.359,0,0,1-2.442-.233,4.2,4.2,0,0,1-1.9-1.507,3.988,3.988,0,0,1,.527-5.164,4.3,4.3,0,0,1,2.988-1.2Zm-5.035,9.991a6.829,6.829,0,0,0-1.119-.59A4.464,4.464,0,0,0,12.981,14.7a5.616,5.616,0,0,0,1.59,1.405,7.787,7.787,0,0,0-2.106,1.249Zm-6.943-4.2a3,3,0,0,1,.534-1.7,3.151,3.151,0,0,1,1.423-1.13,3.268,3.268,0,0,1,1.832-.175,3.2,3.2,0,0,1,1.623.84A3.039,3.039,0,0,1,11.8,12.56a2.976,2.976,0,0,1-.18,1.773,3.093,3.093,0,0,1-1.168,1.377,3.248,3.248,0,0,1-4-.383A3.022,3.022,0,0,1,5.523,13.158Zm0,14.659a2.15,2.15,0,0,1-1.495-.6,2.012,2.012,0,0,1-.619-1.446V22.7a4.981,4.981,0,0,1,.724-2.589,5.2,5.2,0,0,1,1.981-1.877,5.428,5.428,0,0,1,5.348.117,7.309,7.309,0,0,0-1.712,4.69v4.091a3.306,3.306,0,0,0,.07.682Zm18.318-.682a2.013,2.013,0,0,1-.619,1.446,2.15,2.15,0,0,1-1.495.6H13.273a2.15,2.15,0,0,1-1.495-.6,2.013,2.013,0,0,1-.619-1.446V23.045a6.038,6.038,0,0,1,1.857-4.339,6.492,6.492,0,0,1,8.967,0,6.038,6.038,0,0,1,1.857,4.339Zm7.75-1.364a2.013,2.013,0,0,1-.619,1.446,2.15,2.15,0,0,1-1.495.6h-4.3a3.307,3.307,0,0,0,.07-.682V23.045a7.309,7.309,0,0,0-1.712-4.69,5.432,5.432,0,0,1,5.346-.114,5.2,5.2,0,0,1,1.98,1.875,4.984,4.984,0,0,1,.726,2.588Z" transform="translate(-2 -5.999)"/></svg>