<svg xmlns="http://www.w3.org/2000/svg" width="31" height="32.494" viewBox="0 0 31 32.494"><path d="M46.761,32C38.609,32,32,38.943,32,47.508s6.609,15.508,14.761,15.508,14.761-6.943,14.761-15.508S54.914,32,46.761,32Zm0,17.724a2.218,2.218,0,1,1,2.109-2.215A2.164,2.164,0,0,1,46.761,49.724Z" transform="translate(-31.261 -31.261)" fill="#eaeff0"/><path d="M186.5,181.333a5.169,5.169,0,1,0,5.169,5.169A5.169,5.169,0,0,0,186.5,181.333Zm0,7.385a2.215,2.215,0,1,1,2.215-2.215A2.215,2.215,0,0,1,186.5,188.718Z" transform="translate(-171.002 -170.256)" fill="#bac2c6"/><path d="M36.833,53.827c-8.547,0-15.5-7.288-15.5-16.247s6.953-16.247,15.5-16.247,15.5,7.288,15.5,16.247S45.38,53.827,36.833,53.827Zm0-31.017c-7.77,0-14.091,6.626-14.091,14.77s6.321,14.77,14.091,14.77,14.091-6.626,14.091-14.77S44.6,22.81,36.833,22.81Z" transform="translate(-21.333 -21.333)"/><path d="M216.287,219.241a2.954,2.954,0,1,1,2.954-2.954A2.954,2.954,0,0,1,216.287,219.241Zm0-4.431a1.477,1.477,0,1,0,1.477,1.477A1.477,1.477,0,0,0,216.287,214.81Z" transform="translate(-200.787 -200.04)"/><path d="M176.575,182.483a5.908,5.908,0,1,1,5.908-5.908,5.908,5.908,0,0,1-5.908,5.908Zm0-10.339a4.431,4.431,0,1,0,4.431,4.431A4.431,4.431,0,0,0,176.575,172.144Z" transform="translate(-161.075 -160.328)"/><path d="M100.186,331.384a.736.736,0,0,1-.345-.086,12.631,12.631,0,0,1-5.223-5.226.738.738,0,1,1,1.305-.691,11.144,11.144,0,0,0,4.61,4.611.739.739,0,0,1-.347,1.391Z" transform="translate(-89.754 -303.965)"/><path d="M330.974,100.716a.738.738,0,0,1-.654-.395,11.145,11.145,0,0,0-4.626-4.641.738.738,0,1,1,.691-1.305,12.619,12.619,0,0,1,5.242,5.259.738.738,0,0,1-.653,1.082Z" transform="translate(-305.462 -89.238)"/><path d="M139,314.768a.732.732,0,0,1-.375-.1,9.673,9.673,0,0,1-3.392-3.4.738.738,0,0,1,1.272-.75,8.206,8.206,0,0,0,2.871,2.875.738.738,0,0,1-.376,1.374Z" transform="translate(-127.678 -290.159)"/><path d="M314.3,139.484a.739.739,0,0,1-.637-.363,8.179,8.179,0,0,0-2.875-2.872.738.738,0,1,1,.75-1.272,9.667,9.667,0,0,1,3.4,3.393.739.739,0,0,1-.635,1.114Z" transform="translate(-291.486 -127.014)"/></svg>