<svg xmlns="http://www.w3.org/2000/svg" width="31" height="32.552" viewBox="0 0 31 32.552"><path d="M46.76,63.073c8.152,0,14.76-6.956,14.76-15.536S54.912,32,46.76,32,32,38.956,32,47.536,38.608,63.073,46.76,63.073Z" transform="translate(-31.26 -31.26)" fill="#ff9500"/><path d="M96.394,109.007c6.109,0,11.061-5.3,11.061-11.837S102.5,85.333,96.394,85.333s-11.061,5.3-11.061,11.837S90.285,109.007,96.394,109.007Z" transform="translate(-80.894 -80.894)" fill="#fac100"/><path d="M36.833,21.333c-8.547,0-15.5,7.3-15.5,16.276s6.953,16.276,15.5,16.276,15.5-7.3,15.5-16.276S45.38,21.333,36.833,21.333Zm0,31.073c-7.77,0-14.091-6.638-14.091-14.8s6.321-14.8,14.091-14.8,14.091,6.638,14.091,14.8-6.321,14.8-14.091,14.8Z" transform="translate(-21.333 -21.333)"/><path d="M86.468,74.667c-6.507,0-11.8,5.642-11.8,12.577s5.294,12.577,11.8,12.577,11.8-5.642,11.8-12.577S92.975,74.667,86.468,74.667Zm0,23.674c-5.741,0-10.413-4.978-10.413-11.1s4.671-11.1,10.413-11.1,10.413,4.978,10.413,11.1S92.209,98.341,86.468,98.341Z" transform="translate(-70.968 -70.968)"/><path d="M207.147,151.188c-.176-.067-.341-.13-.483-.193s-.314-.129-.5-.2c-1.1-.419-2.015-.838-2.015-1.734a1.64,1.64,0,0,1,1.007-1.278,3.581,3.581,0,0,1,3.733.568.74.74,0,1,0,.876-1.192,5.832,5.832,0,0,0-2.658-1.118v-1.4a.74.74,0,1,0-1.48,0v1.434a4.3,4.3,0,0,0-1.14.385,3.038,3.038,0,0,0-1.819,2.6c0,1.99,1.932,2.723,2.969,3.117.162.061.309.117.431.171.163.072.351.144.553.221,1.151.44,1.966.82,1.966,1.713a1.64,1.64,0,0,1-1.007,1.278,3.582,3.582,0,0,1-3.733-.568.74.74,0,1,0-.876,1.192,5.822,5.822,0,0,0,2.658,1.115v1.475a.74.74,0,0,0,1.48,0v-1.512a4.3,4.3,0,0,0,1.14-.381,3.038,3.038,0,0,0,1.819-2.6C210.064,152.3,208.238,151.6,207.147,151.188Z" transform="translate(-190.865 -135.396)"/></svg>