<svg xmlns="http://www.w3.org/2000/svg" width="31" height="31.306" viewBox="0 0 31 31.306"><path d="M6.332,7H21.324a3.332,3.332,0,0,1,3.332,3.332v10a3.332,3.332,0,0,1-3.332,3.332H11.746L8.586,26.818a.833.833,0,0,1-1.422-.589v-2.57H6.332A3.332,3.332,0,0,1,3,20.327v-10A3.332,3.332,0,0,1,6.332,7Z" transform="translate(-2.167 -6.167)" fill="#eaeff0"/><path d="M4.227,7.923A3.311,3.311,0,0,0,3,10.486v10a3.332,3.332,0,0,0,3.332,3.332h.833v2.57a.833.833,0,0,0,1.422.589l3.159-3.159h9.579a3.3,3.3,0,0,0,2.221-.865Z" transform="translate(-2.167 -6.321)" fill="#d9e1e2"/><path d="M37.324,18.5H22.332A3.332,3.332,0,0,0,19,21.832v10a3.332,3.332,0,0,0,3.332,3.332H31.91l3.159,3.159a.833.833,0,0,0,1.422-.589v-2.57h.833a3.332,3.332,0,0,0,3.332-3.332v-10A3.332,3.332,0,0,0,37.324,18.5Z" transform="translate(-10.489 -8.089)" fill="#fac100"/><path d="M22.332,35.287H31.91l3.159,3.159a.833.833,0,0,0,1.422-.589v-2.57h.833a3.31,3.31,0,0,0,2.452-1.093l-19.4-14.922A3.318,3.318,0,0,0,19,21.961v10a3.332,3.332,0,0,0,3.332,3.332Z" transform="translate(-10.489 -8.218)" fill="#ff9500"/><path d="M29.477,15.579h-7.75V10.165a4.583,4.583,0,0,0-1.033-2.943A3.277,3.277,0,0,0,18.2,6H5.523a3.277,3.277,0,0,0-2.49,1.221A4.583,4.583,0,0,0,2,10.165v10A4.583,4.583,0,0,0,3.033,23.1a3.277,3.277,0,0,0,2.49,1.221v1.741a1.878,1.878,0,0,0,.236.923,1.48,1.48,0,0,0,.631.611,1.209,1.209,0,0,0,.817.1,1.358,1.358,0,0,0,.723-.458A.717.717,0,0,0,8,27.142l1.753-2.818h3.519v5.414a4.583,4.583,0,0,0,1.033,2.943A3.277,3.277,0,0,0,16.8,33.9h7.811l2.466,2.915a1.358,1.358,0,0,0,.721.456,1.209,1.209,0,0,0,.814-.095,1.49,1.49,0,0,0,.632-.613,1.888,1.888,0,0,0,.238-.925V33.9a3.277,3.277,0,0,0,2.49-1.221A4.583,4.583,0,0,0,33,29.738v-10A4.583,4.583,0,0,0,31.967,16.8a3.277,3.277,0,0,0-2.49-1.221ZM9.4,22.658a.618.618,0,0,0-.316.091A.751.751,0,0,0,8.834,23l-1.9,3.048V23.491a.916.916,0,0,0-.206-.589.655.655,0,0,0-.5-.244h-.7a1.964,1.964,0,0,1-1.495-.732,2.747,2.747,0,0,1-.619-1.767v-10A2.747,2.747,0,0,1,4.028,8.4a1.963,1.963,0,0,1,1.495-.732H18.2A1.963,1.963,0,0,1,19.7,8.4a2.747,2.747,0,0,1,.619,1.767v5.414H16.8a3.154,3.154,0,0,0-2.079.82L12.5,10.652a.808.808,0,0,0-.26-.355.615.615,0,0,0-.762,0,.808.808,0,0,0-.26.355L7.7,19.814a.961.961,0,0,0-.062.317.972.972,0,0,0,.045.321.868.868,0,0,0,.146.276.719.719,0,0,0,.224.189.6.6,0,0,0,.289.076.628.628,0,0,0,.381-.133.81.81,0,0,0,.26-.355l1.093-2.844h3.578l.05.129a4.714,4.714,0,0,0-.43,1.953v2.915ZM13.013,16h-2.3l1.148-2.985ZM31.591,29.738a2.747,2.747,0,0,1-.619,1.767,1.964,1.964,0,0,1-1.495.732h-.7a.655.655,0,0,0-.5.244.916.916,0,0,0-.206.589v2.57L25.4,32.481a.655.655,0,0,0-.5-.244H16.8a1.964,1.964,0,0,1-1.495-.732,2.747,2.747,0,0,1-.619-1.767v-10a2.747,2.747,0,0,1,.619-1.767,1.964,1.964,0,0,1,1.495-.732H29.477a1.964,1.964,0,0,1,1.495.732,2.747,2.747,0,0,1,.619,1.767Z" transform="translate(-2 -6)"/><path d="M35.162,24.5H31.83V22.833a.833.833,0,0,0-1.666,0V24.5H26.833a.833.833,0,0,0,0,1.666h6.18a5.8,5.8,0,0,1-2.021,3.622,5.81,5.81,0,0,1-1.518-1.956.833.833,0,1,0-1.5.715,7.382,7.382,0,0,0,1.562,2.142,5.938,5.938,0,0,1-2.341.475.808.808,0,0,0-.8.833.859.859,0,0,0,.863.833A7.44,7.44,0,0,0,31.014,31.8,7.6,7.6,0,0,0,34.8,32.828a.808.808,0,0,0,.8-.833.859.859,0,0,0-.863-.833,5.788,5.788,0,0,1-2.266-.471A7.471,7.471,0,0,0,34.7,26.165h.466a.833.833,0,0,0,0-1.666Z" transform="translate(-10.246 -8.673)"/></svg>