<svg xmlns="http://www.w3.org/2000/svg" width="31" height="38.314" viewBox="0 0 31 38.314"><path d="M26.663,40v2.5a2.5,2.5,0,0,1-2.5,2.5H22.5A2.5,2.5,0,0,1,20,42.5V40Z" transform="translate(-7.832 -7.516)" fill="#7b8c8c"/><path d="M28,34v5a1.666,1.666,0,0,1-1.666,1.666H19.666A1.666,1.666,0,0,1,18,39V34Z" transform="translate(-7.498 -6.514)" fill="#8fa5a5"/><path d="M11,18.828a11.52,11.52,0,0,1,2.832-7.657,8.957,8.957,0,0,1,13.676,0,11.52,11.52,0,0,1,2.832,7.657,12.2,12.2,0,0,1-.7,4.432,11.2,11.2,0,0,1-2.226,3.748,8.256,8.256,0,0,0-1.67,2.668,9.027,9.027,0,0,0-.609,3.186v.126H16.206v-.126a9.029,9.029,0,0,0-.609-3.186,8.258,8.258,0,0,0-1.67-2.668A11.2,11.2,0,0,1,11.7,23.26a12.2,12.2,0,0,1-.7-4.432Z" transform="translate(-5.169 -2.17)" fill="#fac100"/><path d="M25.159,29.114a11.648,11.648,0,0,1-8.732-19.37A10.814,10.814,0,0,0,11,19.119,11.015,11.015,0,0,0,14.278,27.3a8.19,8.19,0,0,1,2.552,5.855v.126h10v-.126A7.98,7.98,0,0,1,28.217,28.7,11.648,11.648,0,0,1,25.159,29.114Z" transform="translate(-6.007 -2.461)" fill="#ff9500"/><path d="M23.833,4.332a.833.833,0,0,0,.833-.833V1.833a.833.833,0,0,0-1.666,0V3.5a.833.833,0,0,0,.833.833Z" transform="translate(-8.333 -1)"/><path d="M42.5,20H40.833a.833.833,0,0,0,0,1.666H42.5A.833.833,0,0,0,42.5,20Z" transform="translate(-12.332 -4.175)"/><path d="M6.5,20H4.833a.833.833,0,0,0,0,1.666H6.5A.833.833,0,0,0,6.5,20Z" transform="translate(-4 -4.175)"/><path d="M10.989,9.166a.833.833,0,0,0,1.178-1.178L10.989,6.811A.833.833,0,0,0,9.811,7.989Z" transform="translate(-4.932 -1.932)"/><path d="M36.443,32.264a.833.833,0,0,0-1.178,1.179l1.178,1.178a.833.833,0,0,0,1.178-1.178Z" transform="translate(-11.5 -6.183)"/><path d="M36.441,6.807,35.263,7.985a.833.833,0,1,0,1.178,1.178l1.178-1.178a.833.833,0,1,0-1.178-1.178Z" transform="translate(-11.498 -1.928)"/><path d="M10.985,32.264,9.807,33.443a.833.833,0,1,0,1.178,1.178l1.178-1.178a.833.833,0,0,0-1.178-1.179Z" transform="translate(-4.928 -6.183)"/><path d="M20.5,7a10.015,10.015,0,0,0-7.423,3.419A12.356,12.356,0,0,0,10,18.661a13.027,13.027,0,0,0,.768,4.755,12.027,12.027,0,0,0,2.412,4.021A7.372,7.372,0,0,1,14.7,29.832,8.014,8.014,0,0,1,15.25,32.7v1.791a2.691,2.691,0,0,0,.416,1.437,2.291,2.291,0,0,0,1.085.909v.153a3.527,3.527,0,0,0,.879,2.356,2.858,2.858,0,0,0,2.122.976h1.5a2.858,2.858,0,0,0,2.122-.976,3.527,3.527,0,0,0,.879-2.356v-.153a2.291,2.291,0,0,0,1.085-.909,2.691,2.691,0,0,0,.416-1.437V32.7a8.014,8.014,0,0,1,.552-2.864,7.372,7.372,0,0,1,1.519-2.394,12.027,12.027,0,0,0,2.412-4.021A13.026,13.026,0,0,0,31,18.661a12.356,12.356,0,0,0-3.08-8.242A10.015,10.015,0,0,0,20.5,7Zm.75,31.651h-1.5a1.429,1.429,0,0,1-1.061-.488,1.763,1.763,0,0,1-.439-1.178h4.5a1.763,1.763,0,0,1-.439,1.178A1.429,1.429,0,0,1,21.252,38.651ZM23.5,35.319h-6a.715.715,0,0,1-.53-.244.882.882,0,0,1-.22-.589v-.833h7.5v.833a.882.882,0,0,1-.22.589A.715.715,0,0,1,23.5,35.319ZM18.251,24.491H17.5a.7.7,0,0,1-.417-.14.821.821,0,0,1-.276-.374.918.918,0,0,1-.043-.481.864.864,0,0,1,.205-.426.73.73,0,0,1,.384-.228.681.681,0,0,1,.433.047.774.774,0,0,1,.337.307.9.9,0,0,1,.126.463Zm1.5,1.666h1.5v5.83h-1.5Zm7.026.083a9.458,9.458,0,0,0-2.5,5.747H22.752v-5.83h.75a2.1,2.1,0,0,0,1.25-.421,2.46,2.46,0,0,0,.829-1.121,2.756,2.756,0,0,0,.128-1.444,2.6,2.6,0,0,0-.616-1.279,2.191,2.191,0,0,0-1.152-.684,2.044,2.044,0,0,0-1.3.142,2.319,2.319,0,0,0-1.01.92,2.7,2.7,0,0,0-.379,1.388v.833h-1.5v-.833a2.7,2.7,0,0,0-.379-1.388,2.319,2.319,0,0,0-1.01-.92,2.044,2.044,0,0,0-1.3-.142,2.191,2.191,0,0,0-1.152.684,2.6,2.6,0,0,0-.616,1.279,2.756,2.756,0,0,0,.128,1.444,2.46,2.46,0,0,0,.829,1.121,2.1,2.1,0,0,0,1.25.421h.75v5.83H16.724a9.458,9.458,0,0,0-2.5-5.747,10.384,10.384,0,0,1-2.073-3.475,11.244,11.244,0,0,1-.653-4.1,10.581,10.581,0,0,1,2.637-7.068,8.385,8.385,0,0,1,12.732,0A10.581,10.581,0,0,1,29.5,18.661a11.244,11.244,0,0,1-.653,4.1,10.384,10.384,0,0,1-2.073,3.475Zm-4.026-1.749v-.833a.9.9,0,0,1,.126-.463.774.774,0,0,1,.337-.307.681.681,0,0,1,.433-.047.73.73,0,0,1,.384.228.864.864,0,0,1,.205.426.918.918,0,0,1-.043.481.821.821,0,0,1-.276.374.7.7,0,0,1-.417.14Z" transform="translate(-5.002 -2.002)"/></svg>