<svg xmlns="http://www.w3.org/2000/svg" width="31" height="27.856" viewBox="0 0 31 27.856"><path d="M16.132,6.475,4.229,27.132a2.95,2.95,0,0,0,2.551,4.426H30.586a2.952,2.952,0,0,0,2.551-4.426L21.233,6.475a2.943,2.943,0,0,0-5.1,0Z" transform="translate(-3.183 -4.351)" fill="#fac100"/><path d="M26.782,31.877a21.1,21.1,0,0,1-10.14-2.56,17.831,17.831,0,0,1-7.063-6.9L4.229,30.579a2.33,2.33,0,0,0,0,2.595,2.8,2.8,0,0,0,1.078.95,3.257,3.257,0,0,0,1.473.348H30.586a3.266,3.266,0,0,0,1.391-.308,2.845,2.845,0,0,0,1.061-.851,2.4,2.4,0,0,0,.479-1.191,2.318,2.318,0,0,0-.216-1.249,21.429,21.429,0,0,1-6.518,1Z" transform="translate(-3.183 -7.264)" fill="#ff9500"/><path d="M22.651,14h1.02a1.038,1.038,0,0,1,1.038,1.109l-.51,7.649a1.038,1.038,0,0,1-1.038.973h0a1.038,1.038,0,0,1-1.038-.973l-.51-7.649A1.038,1.038,0,0,1,22.651,14Z" transform="translate(-7.661 -6.12)" fill="#2d4a60"/><path d="M23.122,35.244A1.622,1.622,0,1,0,21.5,33.622,1.622,1.622,0,0,0,23.122,35.244Z" transform="translate(-7.622 -10.631)" fill="#2d4a60"/><path d="M23.122,35.726a1.622,1.622,0,0,0,1.488-.978,16.7,16.7,0,0,1-2.928-1.375,1.605,1.605,0,0,0-.182.731,1.622,1.622,0,0,0,1.622,1.622Z" transform="translate(-7.632 -11.113)" fill="#263f52"/><path d="M30.166,31.856H6.494a3.666,3.666,0,0,1-3.173-5.5L15.16,5.832a3.659,3.659,0,0,1,6.341,0L33.34,26.358a3.664,3.664,0,0,1-3.17,5.5ZM16.426,6.566,4.592,27.091a2.2,2.2,0,0,0,1.9,3.3H30.166a2.2,2.2,0,0,0,1.9-3.3L20.234,6.566a2.2,2.2,0,0,0-3.807,0Z" transform="translate(-2.83 -4)"/><path d="M22.808,24.029a1.693,1.693,0,0,1-1.687-1.576L20.611,14.8A1.687,1.687,0,0,1,22.3,13h1.02A1.687,1.687,0,0,1,25,14.8l-.51,7.651a1.693,1.693,0,0,1-1.687,1.576ZM22.3,14.3a.389.389,0,0,0-.389.418l.51,7.651a.389.389,0,1,0,.779,0l.511-7.651a.389.389,0,0,0-.389-.418Z" transform="translate(-7.308 -5.788)"/><path d="M22.771,35.541a2.271,2.271,0,1,1,1.606-.665A2.271,2.271,0,0,1,22.771,35.541Zm0-3.244a.973.973,0,1,0,.688.285A.973.973,0,0,0,22.771,32.3Z" transform="translate(-7.271 -10.28)"/></svg>