<svg xmlns="http://www.w3.org/2000/svg" width="31" height="30.156" viewBox="0 0 31 30.156"><path d="M17.815,31.786A14.608,14.608,0,0,0,32.629,17.393,14.608,14.608,0,0,0,17.815,3,14.608,14.608,0,0,0,3,17.393,14.608,14.608,0,0,0,17.815,31.786Z" transform="translate(-2.315 -2.315)" fill="#fd3730"/><path d="M21.01,28.183a14.058,14.058,0,0,1-7.889-2.407,13.417,13.417,0,0,1-5.044-6.36A12.984,12.984,0,0,1,7.7,11.4a13.317,13.317,0,0,1,4.424-6.781A14.8,14.8,0,0,0,6.35,8.792a14.211,14.211,0,0,0-3.067,6.319,13.983,13.983,0,0,0,.36,6.977,14.317,14.317,0,0,0,3.7,5.99,14.925,14.925,0,0,0,6.173,3.593,15.266,15.266,0,0,0,7.189.349,15.033,15.033,0,0,0,6.512-2.976,14.436,14.436,0,0,0,4.3-5.6,13.7,13.7,0,0,1-4.715,3.5,14.085,14.085,0,0,1-5.8,1.241Z" transform="translate(-2.315 -2.824)" fill="#d3241f"/><path d="M19.7,29.561A10.5,10.5,0,0,0,30.4,19.281,10.5,10.5,0,0,0,19.7,9,10.5,10.5,0,0,0,9,19.281,10.5,10.5,0,0,0,19.7,29.561Z" transform="translate(-4.202 -4.202)" fill="#eaeff0"/><path d="M19.28,33.62a10.349,10.349,0,0,0,1.439-.112A13.358,13.358,0,0,1,9.111,21.9,10.212,10.212,0,0,0,19.28,33.62Z" transform="translate(-3.983 -8.261)" fill="#d9e1e2"/><path d="M20.854,27.707A6.854,6.854,0,1,0,14,20.854,6.854,6.854,0,0,0,20.854,27.707Z" transform="translate(-5.354 -5.776)" fill="#fd3730"/><path d="M22.741,25.483A2.741,2.741,0,1,0,20,22.741,2.742,2.742,0,0,0,22.741,25.483Z" transform="translate(-7.242 -7.663)" fill="#eaeff0"/><path d="M36.849,5.937V8.7h2.766a.343.343,0,0,0,.242-.1L42.08,6.378a.343.343,0,0,0-.243-.585H40.1a.343.343,0,0,1-.343-.343V3.715a.343.343,0,0,0-.585-.243L36.953,5.7a.343.343,0,0,0-.1.242Z" transform="translate(-12.121 -2.432)" fill="#fac100"/><path d="M31.4,10.406a.687.687,0,0,0-.167-.214.708.708,0,0,0-.239-.135.723.723,0,0,0-.54.035.7.7,0,0,0-.218.164.682.682,0,0,0-.137.233.669.669,0,0,0,.04.525,13.218,13.218,0,0,1,1.455,6.062,13.444,13.444,0,0,1-2.375,7.615,14.015,14.015,0,0,1-6.324,5.049,14.458,14.458,0,0,1-8.141.78,14.217,14.217,0,0,1-7.215-3.751A13.6,13.6,0,0,1,3.68,19.752a13.361,13.361,0,0,1,.8-7.92,13.8,13.8,0,0,1,5.19-6.152A14.373,14.373,0,0,1,17.5,3.371a14.221,14.221,0,0,1,6.232,1.415.722.722,0,0,0,.547.048.711.711,0,0,0,.245-.133.689.689,0,0,0,.172-.215.669.669,0,0,0,.033-.533.681.681,0,0,0-.144-.234.7.7,0,0,0-.226-.161A15.641,15.641,0,0,0,17.5,2,15.81,15.81,0,0,0,8.889,4.541,15.176,15.176,0,0,0,3.18,11.308,14.7,14.7,0,0,0,2.3,20.02,14.956,14.956,0,0,0,6.54,27.74a15.639,15.639,0,0,0,7.936,4.127,15.9,15.9,0,0,0,8.955-.858,15.415,15.415,0,0,0,6.956-5.553A14.788,14.788,0,0,0,33,17.078,14.557,14.557,0,0,0,31.4,10.406Z" transform="translate(-2 -2)"/><path d="M25.262,10.362a.668.668,0,0,0,.088-.254.661.661,0,0,0-.02-.267.676.676,0,0,0-.125-.239A.705.705,0,0,0,25,9.427a11.773,11.773,0,0,0-7.906-1.2,11.453,11.453,0,0,0-6.775,4.1,10.671,10.671,0,0,0,1.012,14.4,11.719,11.719,0,0,0,14.954.972,10.928,10.928,0,0,0,4.26-6.525,10.62,10.62,0,0,0-1.249-7.613.71.71,0,0,0-.43-.313.736.736,0,0,0-.534.067.69.69,0,0,0-.333.408.663.663,0,0,0,.06.516A9.293,9.293,0,0,1,29.142,20.9a9.564,9.564,0,0,1-3.731,5.708,10.255,10.255,0,0,1-13.085-.857,9.338,9.338,0,0,1-.88-12.6,10.024,10.024,0,0,1,5.93-3.589,10.3,10.3,0,0,1,6.918,1.054.736.736,0,0,0,.538.064.708.708,0,0,0,.429-.32Z" transform="translate(-3.884 -3.888)"/><path d="M23.335,14.8a.761.761,0,0,0,.561,0,.727.727,0,0,0,.237-.152.682.682,0,0,0,.156-.227.652.652,0,0,0-.011-.531.688.688,0,0,0-.165-.221.732.732,0,0,0-.243-.143,8.349,8.349,0,0,0-7.332.749,7.644,7.644,0,0,0-2.932,3.383,7.169,7.169,0,0,0-.453,4.356,7.425,7.425,0,0,0,2.179,3.86,8.108,8.108,0,0,0,4.076,2.063,8.375,8.375,0,0,0,4.6-.429,7.883,7.883,0,0,0,3.573-2.777,7.258,7.258,0,0,0,1.342-4.188,7.058,7.058,0,0,0-.551-2.755.68.68,0,0,0-.15-.233.726.726,0,0,0-.234-.159.762.762,0,0,0-.564-.011.728.728,0,0,0-.241.149.684.684,0,0,0-.16.226.652.652,0,0,0,.006.534,5.765,5.765,0,0,1,.448,2.248,5.938,5.938,0,0,1-1.1,3.427,6.45,6.45,0,0,1-2.923,2.272,6.852,6.852,0,0,1-3.763.351A6.633,6.633,0,0,1,16.355,24.9a6.075,6.075,0,0,1-1.783-3.158,5.866,5.866,0,0,1,.371-3.564,6.254,6.254,0,0,1,2.4-2.768,6.776,6.776,0,0,1,3.619-1.039,6.707,6.707,0,0,1,2.375.424Z" transform="translate(-5.461 -5.461)"/><path d="M21.64,20.623a.686.686,0,0,0-.525-1.267,3.427,3.427,0,1,0,4.477,4.477.685.685,0,0,0-1.267-.524,2.056,2.056,0,1,1-2.685-2.686Z" transform="translate(-6.93 -7.445)"/><path d="M23.2,16.711a.685.685,0,1,0,.969.969l8.606-8.606h2.482a1.019,1.019,0,0,0,.726-.3L38.2,6.55A1.028,1.028,0,0,0,37.476,4.8H36.081V3.4a1.028,1.028,0,0,0-1.755-.727L32.1,4.9a1.021,1.021,0,0,0-.3.726V8.105ZM33.174,5.765l1.537-1.537v.91a1.028,1.028,0,0,0,1.028,1.028h.911L35.112,7.7H33.174Z" transform="translate(-7.76 -2.117)"/></svg>