<svg xmlns="http://www.w3.org/2000/svg" width="31" height="29.606" viewBox="0 0 31 29.606"><path d="M111.568,152.721h15.126a1.48,1.48,0,0,0,1.455-1.212l2.366-12.845H108.444Z" transform="translate(-102.47 -132.007)" fill="#eaeff0"/><path d="M135.552,399.106a2.219,2.219,0,1,0-2.219-2.219A2.219,2.219,0,0,0,135.552,399.106Z" transform="translate(-126.686 -370.254)" fill="#eaeff0"/><path d="M343.552,399.106a2.219,2.219,0,1,0-2.219-2.219A2.219,2.219,0,0,0,343.552,399.106Z" transform="translate(-319.206 -370.254)" fill="#eaeff0"/><path d="M314.512,63.691a5.179,5.179,0,1,0-5.179-5.179A5.179,5.179,0,0,0,314.512,63.691Z" transform="translate(-289.426 -52.594)" fill="#00cf66"/><path d="M68.751,62.317,70.4,53.753A6.073,6.073,0,0,0,72.7,51.6a5.685,5.685,0,0,0,.052-5.931,6.059,6.059,0,0,0-2.26-2.185,6.452,6.452,0,0,0-6.212-.024A6.066,6.066,0,0,0,62,45.632a5.711,5.711,0,0,0-.834,2.966H47.97l-.112-.482a2.2,2.2,0,0,0-.812-1.253,2.381,2.381,0,0,0-1.457-.485H43.345a.807.807,0,0,0-.3.054.779.779,0,0,0-.254.16.739.739,0,0,0-.17.241.709.709,0,0,0,0,.57.739.739,0,0,0,.17.241.78.78,0,0,0,.254.16.807.807,0,0,0,.3.054h2.244a.794.794,0,0,1,.486.162.732.732,0,0,1,.271.418l4.2,18.054A3.109,3.109,0,0,0,49,67.525a2.856,2.856,0,0,0-.121,3.429,3.083,3.083,0,0,0,1.467,1.131,3.245,3.245,0,0,0,1.882.112,3.131,3.131,0,0,0,1.6-.948,2.9,2.9,0,0,0,.734-1.658,2.856,2.856,0,0,0-.407-1.758h9.751a2.845,2.845,0,0,0-.387,1.865,2.907,2.907,0,0,0,.882,1.7,3.155,3.155,0,0,0,1.786.84,3.22,3.22,0,0,0,1.953-.372,3,3,0,0,0,1.312-1.43,2.832,2.832,0,0,0,.129-1.9,2.954,2.954,0,0,0-1.108-1.58,3.193,3.193,0,0,0-1.886-.61H52.1l-.517-2.219H66.465a2.393,2.393,0,0,0,1.487-.514,2.2,2.2,0,0,0,.8-1.3ZM67.368,44.159a4.808,4.808,0,0,1,2.583.748A4.49,4.49,0,0,1,71.663,46.9a4.252,4.252,0,0,1,.265,2.565,4.38,4.38,0,0,1-1.272,2.273,4.722,4.722,0,0,1-2.381,1.215,4.855,4.855,0,0,1-2.686-.253A4.61,4.61,0,0,1,63.5,51.064a4.3,4.3,0,0,1-.784-2.466,4.345,4.345,0,0,1,1.363-3.137,4.769,4.769,0,0,1,3.286-1.3ZM53.032,69.313a1.432,1.432,0,0,1-.261.822,1.537,1.537,0,0,1-.7.545,1.618,1.618,0,0,1-.9.084,1.574,1.574,0,0,1-.794-.4,1.46,1.46,0,0,1-.424-.758,1.417,1.417,0,0,1,.088-.855,1.5,1.5,0,0,1,.571-.664,1.6,1.6,0,0,1,1.956.184,1.448,1.448,0,0,1,.454,1.046Zm15.111,0a1.432,1.432,0,0,1-.261.822,1.537,1.537,0,0,1-.7.545,1.618,1.618,0,0,1-.9.084,1.574,1.574,0,0,1-.794-.4,1.46,1.46,0,0,1-.424-.758,1.417,1.417,0,0,1,.088-.855,1.5,1.5,0,0,1,.571-.664,1.6,1.6,0,0,1,1.956.184,1.448,1.448,0,0,1,.454,1.046ZM48.315,50.078H61.372a5.923,5.923,0,0,0,2.755,3.569,6.424,6.424,0,0,0,4.581.727l-1.481,7.675a.733.733,0,0,1-.266.435.8.8,0,0,1-.5.171H51.242Z" transform="translate(-42.563 -42.68)"/><path d="M342.17,89.128h1.48v1.48a.74.74,0,0,0,1.48,0v-1.48h1.48a.74.74,0,1,0,0-1.48h-1.48v-1.48a.74.74,0,0,0-1.48,0v1.48h-1.48a.74.74,0,0,0,0,1.48Z" transform="translate(-319.303 -82.471)"/></svg>