<svg xmlns="http://www.w3.org/2000/svg" width="31" height="29.94" viewBox="0 0 31 29.94"><path d="M26.451,42.845c.249,0,.451-6.345.451-14.173S26.7,14.5,26.451,14.5,26,20.845,26,28.673,26.2,42.845,26.451,42.845Z" transform="translate(-3.426 -13.91)" fill="#8fa5a5"/><path d="M26.451,19.579a.451.451,0,0,1-.434-.329.451.451,0,1,0,.868,0,.451.451,0,0,1-.434.329Z" transform="translate(-3.426 -5.219)" fill="#7b8c8c"/><path d="M10.347,25v.971a.139.139,0,0,1-.139.139h-.069A.139.139,0,0,1,10,25.971V25Z" transform="translate(-3.869 3.761)" fill="#2d4a60"/><path d="M10.347,25H10v.486h.347Z" transform="translate(-3.869 -5.702)" fill="#263f52"/><path d="M6.762,30.089a3.576,3.576,0,0,1-2.66-1.23A4.457,4.457,0,0,1,3,25.891v-8.4a4.457,4.457,0,0,1,1.1-2.968,3.576,3.576,0,0,1,2.66-1.23h8.412A17.454,17.454,0,0,0,25.609,9.772l3.253-2.414A1.747,1.747,0,0,1,29.906,7h1.311a1.788,1.788,0,0,1,1.33.615A2.228,2.228,0,0,1,33.1,9.1V34.287a2.228,2.228,0,0,1-.551,1.484,1.788,1.788,0,0,1-1.33.615H29.906a1.745,1.745,0,0,1-1.044-.353l-3.253-2.414a17.455,17.455,0,0,0-10.435-3.53Z" transform="translate(-2.931 -6.931)" fill="#eaeff0"/><path d="M29.647,21.835c-3.642-.179-7.921-.275-12.3-.275H6.4c-.9,0-1.769-.026-2.408-.074s-1-.111-1-.178v.256c0,.074.4.144,1.1.2s1.663.081,2.66.081h8.412c3.716,0,7.349.081,10.44.233l3.252.16c.309.015.672.023,1.044.023h1.306c.5,0,.977-.015,1.33-.041s.551-.061.551-.1V22Z" transform="translate(-2.931 -1.419)" fill="#d9e1e2"/><path d="M3.624,41.553V13H3.277a7.81,7.81,0,0,0-.2,2.091C3.029,16.429,3,18.245,3,20.138V34.415c0,1.893.029,3.709.081,5.047a7.809,7.809,0,0,0,.2,2.091Z" transform="translate(-2.931 -12.514)" fill="#8fa5a5"/><path d="M3.251,21.56A.251.251,0,0,1,3,21.309v.256a.277.277,0,0,0,.277.277h.347V21.56Z" transform="translate(-2.931 -5.406)" fill="#7b8c8c"/><path d="M29.3,12.977V8.5A2.541,2.541,0,0,0,28.6,6.731,2.368,2.368,0,0,0,26.893,6h-1.12a2.337,2.337,0,0,0-1.336.416L21.66,8.329A14.841,14.841,0,0,1,13.2,10.99H6.015a3.951,3.951,0,0,0-2.838,1.219A4.24,4.24,0,0,0,2,15.148V21.8a4.24,4.24,0,0,0,1.177,2.939A3.951,3.951,0,0,0,6.015,25.96H7.621v7.485a2.541,2.541,0,0,0,.706,1.764,2.368,2.368,0,0,0,1.7.731h.8a2.368,2.368,0,0,0,1.7-.731,2.541,2.541,0,0,0,.706-1.764V25.96a14.839,14.839,0,0,1,8.418,2.652l2.776,1.913a2.342,2.342,0,0,0,1.337.416h1.12a2.368,2.368,0,0,0,1.7-.731,2.541,2.541,0,0,0,.706-1.764V23.973a6.084,6.084,0,0,0,2.347-2.285,6.4,6.4,0,0,0,0-6.426A6.085,6.085,0,0,0,29.3,12.977ZM3.606,21.8V15.148a2.541,2.541,0,0,1,.706-1.764,2.368,2.368,0,0,1,1.7-.731H9.227V24.3H6.015a2.368,2.368,0,0,1-1.7-.731A2.541,2.541,0,0,1,3.606,21.8Zm7.227,12.475h-.8a.789.789,0,0,1-.568-.244.847.847,0,0,1-.235-.588V25.96h2.409v7.485a.847.847,0,0,1-.235.588A.789.789,0,0,1,10.833,34.277ZM27.7,28.455a.847.847,0,0,1-.235.588.789.789,0,0,1-.568.244h-1.12a.779.779,0,0,1-.445-.14l-2.777-1.913A16.4,16.4,0,0,0,13.2,24.3H10.833V12.653H13.2A16.4,16.4,0,0,0,22.551,9.72L25.329,7.8a.783.783,0,0,1,.444-.139h1.12a.789.789,0,0,1,.568.244A.847.847,0,0,1,27.7,8.5ZM29.3,22V14.946a4.557,4.557,0,0,1,1.185,1.578,4.723,4.723,0,0,1,0,3.9A4.557,4.557,0,0,1,29.3,22Z" transform="translate(-2 -6)"/><path d="M42.277,20h-.208a.069.069,0,0,0,0,.139h.208a.069.069,0,1,0,0-.139Z" transform="translate(-11.347 -7.729)"/><path d="M40.669,13.49a.069.069,0,0,0,.035-.009l.18-.1a.069.069,0,1,0-.069-.12l-.18.1a.069.069,0,0,0,.035.129Z" transform="translate(-10.044 -6.624)"/><path d="M40.881,25.367l-.18-.1a.069.069,0,0,0-.069.12l.18.1a.069.069,0,1,0,.069-.12Z" transform="translate(-10.041 -7.66)"/></svg>