<svg xmlns="http://www.w3.org/2000/svg" width="31" height="33.317" viewBox="0 0 31 33.317"><path d="M25.5,31.64v2.8a2.5,2.5,0,0,0,2.5,2.5V38.6H18V36.937a2.5,2.5,0,0,0,2.5-2.5v-2.8Z" transform="translate(-7.498 -8.618)" fill="#f87600"/><path d="M27.364,38H13.975a2.823,2.823,0,0,0-2.1.976A3.544,3.544,0,0,0,11,41.332h0a.886.886,0,0,0,.218.589.706.706,0,0,0,.526.244H29.6a.706.706,0,0,0,.526-.244.886.886,0,0,0,.218-.589,3.544,3.544,0,0,0-.871-2.356A2.823,2.823,0,0,0,27.364,38Z" transform="translate(-5.17 -9.681)" fill="#fac100"/><path d="M14.332,41.332A3.332,3.332,0,0,1,17.663,38H14.332A3.332,3.332,0,0,0,11,41.332a.833.833,0,0,0,.833.833h3.332a.833.833,0,0,1-.833-.833Z" transform="translate(-5.676 -9.681)" fill="#ff9500"/><path d="M20.67,29.155A9.284,9.284,0,0,1,13.8,25.883,11.65,11.65,0,0,1,11,18.126V6.666a1.773,1.773,0,0,1,.436-1.178A1.412,1.412,0,0,1,12.488,5H28.852a1.412,1.412,0,0,1,1.052.488,1.773,1.773,0,0,1,.436,1.178v11.46a11.65,11.65,0,0,1-2.8,7.757,9.284,9.284,0,0,1-6.874,3.272Z" transform="translate(-5.169 -4.167)" fill="#fac100"/><path d="M25.16,25.823A10.929,10.929,0,0,1,14.332,14.794V5H12.666A1.666,1.666,0,0,0,11,6.666v11.46A10.929,10.929,0,0,0,21.828,29.155,10.766,10.766,0,0,0,30.9,24.132a10.617,10.617,0,0,1-5.742,1.691Z" transform="translate(-6.176 -4.167)" fill="#ff9500"/><path d="M23,19.7l-3.088,1.1L20,17.522l-2-2.6L21.144,14,23,11.294,24.851,14,28,14.925l-2,2.6.09,3.277Z" transform="translate(-7.498 -5.219)" fill="#ff9500"/><path d="M28.063,13.963,25.2,13.12l-1.686-2.46a.865.865,0,0,0-1.374,0l-1.686,2.46-2.86.843a.833.833,0,0,0-.425,1.307l1.819,2.363-.083,2.981a.833.833,0,0,0,1.112.808l2.81-1,2.809,1a.833.833,0,0,0,1.112-.808l-.083-2.981,1.819-2.363a.833.833,0,0,0-.425-1.307Zm-2.9,2.889a.834.834,0,0,0-.172.531l.057,2.062-1.943-.691a.844.844,0,0,0-.558,0l-1.943.691.057-2.061a.833.833,0,0,0-.172-.531l-1.258-1.635,1.979-.583a.833.833,0,0,0,.451-.328l1.165-1.7L24,14.305a.833.833,0,0,0,.451.328l1.979.583Z" transform="translate(-7.33 -5.056)"/><path d="M32.675,10.663H30.35V6.5a2.6,2.6,0,0,0-.681-1.767A2.246,2.246,0,0,0,28.025,4H10.975a2.246,2.246,0,0,0-1.644.732A2.6,2.6,0,0,0,8.65,6.5v4.165H6.325a2.246,2.246,0,0,0-1.644.732A2.6,2.6,0,0,0,4,13.162V16.91a6.5,6.5,0,0,0,1.686,4.4,5.626,5.626,0,0,0,4.075,1.851,11.707,11.707,0,0,0,2.719,3.828A10.751,10.751,0,0,0,16.4,29.321v.5A1.731,1.731,0,0,1,15.946,31a1.5,1.5,0,0,1-1.1.488H12.525a3.749,3.749,0,0,0-2.739,1.221A4.333,4.333,0,0,0,8.65,35.651,1.731,1.731,0,0,0,9.1,36.829a1.5,1.5,0,0,0,1.1.488H28.8a1.5,1.5,0,0,0,1.1-.488,1.731,1.731,0,0,0,.454-1.178,4.333,4.333,0,0,0-1.136-2.943,3.749,3.749,0,0,0-2.739-1.221H24.15a1.5,1.5,0,0,1-1.1-.488A1.731,1.731,0,0,1,22.6,29.82v-.5a10.751,10.751,0,0,0,3.919-2.335,11.707,11.707,0,0,0,2.719-3.828,5.626,5.626,0,0,0,4.075-1.851A6.5,6.5,0,0,0,35,16.91V13.162a2.6,2.6,0,0,0-.681-1.767A2.246,2.246,0,0,0,32.675,10.663ZM5.55,16.91V13.162a.866.866,0,0,1,.227-.589.749.749,0,0,1,.548-.244H8.65v5.63a12.867,12.867,0,0,0,.475,3.467,4.2,4.2,0,0,1-2.559-1.553A4.79,4.79,0,0,1,5.55,16.91ZM28.8,35.651H10.2a2.6,2.6,0,0,1,.681-1.767,2.246,2.246,0,0,1,1.644-.732h13.95a2.246,2.246,0,0,1,1.644.732A2.6,2.6,0,0,1,28.8,35.651Zm-7.315-4.165H17.532a3.5,3.5,0,0,0,.418-1.666v-.136a8.917,8.917,0,0,0,3.1,0v.136a3.477,3.477,0,0,0,.435,1.666ZM19.5,28.155a9.1,9.1,0,0,1-6.611-3.031A10.518,10.518,0,0,1,10.2,17.959V6.5a.866.866,0,0,1,.227-.589.749.749,0,0,1,.548-.244h17.05a.749.749,0,0,1,.548.244A.866.866,0,0,1,28.8,6.5v11.46a10.518,10.518,0,0,1-2.689,7.164A9.1,9.1,0,0,1,19.5,28.155ZM33.45,16.91a4.789,4.789,0,0,1-1.016,2.964,4.2,4.2,0,0,1-2.559,1.553,12.867,12.867,0,0,0,.475-3.467v-5.63h2.325a.749.749,0,0,1,.548.244.866.866,0,0,1,.227.589Z" transform="translate(-4 -4)"/></svg>