<svg xmlns="http://www.w3.org/2000/svg" xmlns:xlink="http://www.w3.org/1999/xlink" width="31" height="40" viewBox="0 0 31 40"><defs><clipPath id="a"><rect width="31" height="40" transform="translate(-0.038 -0.459)" fill="#fff"/></clipPath></defs><g transform="translate(0.038 0.459)" clip-path="url(#a)"><path d="M16.02,33.27l1.188,1.4a1.336,1.336,0,0,0,.452.354,1.073,1.073,0,0,0,.523.1,1.109,1.109,0,0,0,.513-.165,1.434,1.434,0,0,0,.424-.407,2.078,2.078,0,0,0,.346-1.253,1.994,1.994,0,0,0-.436-1.2l.433.509a1.339,1.339,0,0,0,.451.352,1.076,1.076,0,0,0,.521.1,1.111,1.111,0,0,0,.511-.163,1.433,1.433,0,0,0,.424-.4,1.889,1.889,0,0,0,.273-.581,2.207,2.207,0,0,0,.079-.672,2.164,2.164,0,0,0-.126-.66,1.786,1.786,0,0,0-.312-.547l.8.943a1.339,1.339,0,0,0,.451.352,1.076,1.076,0,0,0,.521.1,1.111,1.111,0,0,0,.511-.163,1.433,1.433,0,0,0,.424-.4h0a1.889,1.889,0,0,0,.273-.581,2.207,2.207,0,0,0,.079-.672,2.164,2.164,0,0,0-.126-.66A1.786,1.786,0,0,0,23.9,28.4a1.388,1.388,0,0,0,.722-.227,1.858,1.858,0,0,0,.576-.606c.591-.892.336-1.443.336-1.443l-.5-6.308L16.245,14.2l-3.84-.618a4.288,4.288,0,0,0-2.436.333l-1.984.9-1.758-.89L3,21.418l1.291,1.358L4.3,22.8l2.111,3.607Z" transform="translate(-1.072 -2.261)" fill="#ffd188"/><path d="M33.062,22.213l-2.479,4.023-.011-.134a1.92,1.92,0,0,0-.423-1.016l-5.859-6.509-4.555,2.386a1.456,1.456,0,0,1-1.289.046,2.035,2.035,0,0,1-1-1.058,2.983,2.983,0,0,1-.192-1.758,2.432,2.432,0,0,1,.807-1.438l2.883-2.336a4.552,4.552,0,0,1,2.871-1.066h2.13a4.357,4.357,0,0,1,2,.5l2.329,1.2,1.635-1.162,3.228,6.663Z" transform="translate(-6.108 -2.231)" fill="#f9a06f"/><path d="M11.881,28.041,10.3,30.473a1.236,1.236,0,0,1-.877.588,1.114,1.114,0,0,1-.943-.38l-.09-.1a1.842,1.842,0,0,1-.446-1.056,2.051,2.051,0,0,1,.221-1.168,1.215,1.215,0,0,1,.071-.125L9.816,25.8a1.417,1.417,0,0,1,.393-.408,1.085,1.085,0,0,1,.484-.183,1.018,1.018,0,0,1,.5.07,1.242,1.242,0,0,1,.442.313l.09.1a1.869,1.869,0,0,1,.453,1.133,2.013,2.013,0,0,1-.3,1.216Z" transform="translate(-2.82 -4.211)" fill="#f9a06f"/><path d="M15.52,29.923l-.336.525c-.032.05-.065.092-.1.142L13.5,33.03a1.228,1.228,0,0,1-.875.583,1.111,1.111,0,0,1-.939-.383l-.09-.092a1.661,1.661,0,0,1-.316-.507,2.043,2.043,0,0,1-.142-.625,2.127,2.127,0,0,1,.054-.647,1.855,1.855,0,0,1,.242-.571l1.582-2.432.439-.666a1.412,1.412,0,0,1,.391-.408,1.079,1.079,0,0,1,.482-.183,1.013,1.013,0,0,1,.5.07,1.235,1.235,0,0,1,.441.313l.09.1a1.648,1.648,0,0,1,.316.5,2.028,2.028,0,0,1,.142.623,2.112,2.112,0,0,1-.054.645,1.839,1.839,0,0,1-.242.569Z" transform="translate(-3.955 -4.527)" fill="#f9a06f"/><path d="M16.222,31.175l-1.583,2.434a2.015,2.015,0,0,0,.159,2.347l.09.1a1.1,1.1,0,0,0,1.819-.205l1.583-2.434a2.015,2.015,0,0,0-.159-2.347l-.09-.1A1.1,1.1,0,0,0,16.222,31.175Z" transform="translate(-5.091 -5.109)" fill="#f9a06f"/><path d="M18.991,34.665l-1.149,1.767A2.015,2.015,0,0,0,18,38.779l.09.1a1.1,1.1,0,0,0,1.819-.205L21.059,36.9a2.015,2.015,0,0,0-.159-2.347l-.09-.1A1.1,1.1,0,0,0,18.991,34.665Z" transform="translate(-6.226 -5.692)" fill="#f9a06f"/><path d="M38.159,11.768l-.529.394a1.951,1.951,0,0,0-.473,2.276l3.376,7.544a1.148,1.148,0,0,0,1.764.61l.529-.394a1.951,1.951,0,0,0,.473-2.276l-3.376-7.544A1.148,1.148,0,0,0,38.159,11.768Z" transform="translate(-13.119 -1.929)" fill="#009ae0"/><path d="M4.515,12.378,1.14,19.922A1.951,1.951,0,0,0,1.612,22.2l.529.394a1.148,1.148,0,0,0,1.764-.61l3.376-7.544a1.951,1.951,0,0,0-.473-2.276l-.529-.394A1.148,1.148,0,0,0,4.515,12.378Z" transform="translate(-0.351 -1.929)" fill="#00cf66"/><path d="M1.612,23.531l.529.394a1.042,1.042,0,0,0,.98.166,1.393,1.393,0,0,0,.784-.776l.775-1.734L1.916,19.52,1.14,21.252a2.01,2.01,0,0,0-.163.616,2.136,2.136,0,0,0,.033.649,1.9,1.9,0,0,0,.223.584,1.463,1.463,0,0,0,.379.429Z" transform="translate(-0.351 -3.261)" fill="#00b157"/><path d="M44.349,23.531l-.529.394a1.042,1.042,0,0,1-.98.166,1.393,1.393,0,0,1-.784-.776l-.775-1.734,2.766-2.061.775,1.735a2.012,2.012,0,0,1,.162.616,2.135,2.135,0,0,1-.033.649,1.9,1.9,0,0,1-.223.583A1.463,1.463,0,0,1,44.349,23.531Z" transform="translate(-14.642 -3.261)" fill="#0081bd"/><path d="M30.735,19.336,27.358,11.8a2.419,2.419,0,0,0-.5-.734,1.808,1.808,0,0,0-.678-.432,1.518,1.518,0,0,0-.755-.064,1.665,1.665,0,0,0-.716.314l-.53.394a2.261,2.261,0,0,0-.658.813,3,3,0,0,0-.3,1.112l-1.146-.591a4.86,4.86,0,0,0-2.244-.557h-2.13a4.948,4.948,0,0,0-2.637.8l-3.661-.589a4.772,4.772,0,0,0-2.729.371l-.968.437a2.949,2.949,0,0,0-.31-1.034,2.238,2.238,0,0,0-.627-.757L6.25,10.88a1.664,1.664,0,0,0-.716-.314,1.518,1.518,0,0,0-.754.064,1.808,1.808,0,0,0-.678.432,2.419,2.419,0,0,0-.5.734L.226,19.336a3.016,3.016,0,0,0-.243.924,3.2,3.2,0,0,0,.05.974,2.844,2.844,0,0,0,.335.875,2.193,2.193,0,0,0,.569.643h0l.529.395a1.61,1.61,0,0,0,.964.333,1.551,1.551,0,0,0,.6-.137L4.6,26.016a3.283,3.283,0,0,0-.086,1.2,3.029,3.029,0,0,0,.35,1.121,2.247,2.247,0,0,0,.708.791,1.643,1.643,0,0,0,.91.286.654.654,0,0,0,.1,0,2.851,2.851,0,0,0,.656,1.6,1.753,1.753,0,0,0,1.315.64c.032,0,.065-.014.1-.016A2.854,2.854,0,0,0,9.3,33.252a1.753,1.753,0,0,0,1.318.644c.032,0,.065-.008.1-.01a2.856,2.856,0,0,0,.655,1.606,1.757,1.757,0,0,0,1.315.643.981.981,0,0,0,.178-.011,1.661,1.661,0,0,0,.748-.279,2.173,2.173,0,0,0,.607-.63l.8-1.235.679.8a1.883,1.883,0,0,0,.931.625,1.561,1.561,0,0,0,1.048-.075,2.04,2.04,0,0,0,.872-.753A2.927,2.927,0,0,0,19,33.355a1.57,1.57,0,0,0,.3.035,1.7,1.7,0,0,0,1.181-.5,2.634,2.634,0,0,0,.718-1.307,1.605,1.605,0,0,0,.72.172h.092a1.643,1.643,0,0,0,.756-.24,2.119,2.119,0,0,0,.627-.6,2.8,2.8,0,0,0,.4-.86,3.139,3.139,0,0,0-.007-1.743,2.038,2.038,0,0,0,.931-.86,2.978,2.978,0,0,0,.391-1.388l2.051-3.332a1.817,1.817,0,0,0,1.116.713,1.581,1.581,0,0,0,1.222-.311l.529-.395a2.193,2.193,0,0,0,.569-.643,2.844,2.844,0,0,0,.335-.875,3.206,3.206,0,0,0,.05-.974,3.016,3.016,0,0,0-.243-.924ZM2.992,21.4a.7.7,0,0,1-.392.388.521.521,0,0,1-.49-.083l-.529-.394a.732.732,0,0,1-.19-.214.948.948,0,0,1-.112-.292,1.068,1.068,0,0,1-.016-.325,1,1,0,0,1,.082-.308l3.375-7.545a.806.806,0,0,1,.167-.245.6.6,0,0,1,.227-.144.505.505,0,0,1,.252-.02.556.556,0,0,1,.239.106l.53.395a.838.838,0,0,1,.3.506,1.048,1.048,0,0,1-.064.632Zm3.034,6.143a.906.906,0,0,1-.172-.276,1.113,1.113,0,0,1-.077-.34,1.159,1.159,0,0,1,.03-.352,1.011,1.011,0,0,1,.132-.311l1.51-2.322a.785.785,0,0,1,.213-.232.6.6,0,0,1,.267-.107.554.554,0,0,1,.278.035.675.675,0,0,1,.245.172.908.908,0,0,1,.174.282,1.117,1.117,0,0,1,.076.347,1.156,1.156,0,0,1-.035.357,1,1,0,0,1-.14.312L7.019,27.427a.773.773,0,0,1-.214.222.591.591,0,0,1-.264.1.554.554,0,0,1-.273-.038.677.677,0,0,1-.241-.17ZM8.091,29.78a.9.9,0,0,1-.172-.276,1.112,1.112,0,0,1-.077-.34,1.158,1.158,0,0,1,.03-.352A1.009,1.009,0,0,1,8,28.5l1.94-2.984a.675.675,0,0,1,.479-.318.61.61,0,0,1,.514.207,1.015,1.015,0,0,1,.248.616,1.1,1.1,0,0,1-.161.663L9.09,29.665a.775.775,0,0,1-.214.223.592.592,0,0,1-.264.1.556.556,0,0,1-.274-.038A.678.678,0,0,1,8.1,29.78Zm2.066,2.24a1.016,1.016,0,0,1-.249-.617,1.1,1.1,0,0,1,.161-.663l1.509-2.319a.764.764,0,0,1,.213-.222.584.584,0,0,1,.263-.1h.065a.6.6,0,0,1,.378.143.879.879,0,0,1,.26.382,1.148,1.148,0,0,1,.06.5,1.054,1.054,0,0,1-.159.465h0l-1.5,2.315a.672.672,0,0,1-.478.32.607.607,0,0,1-.514-.208Zm3.064,2.126a.767.767,0,0,1-.214.223.585.585,0,0,1-.264.1.611.611,0,0,1-.516-.21.9.9,0,0,1-.172-.276,1.108,1.108,0,0,1-.077-.34,1.157,1.157,0,0,1,.03-.352,1.009,1.009,0,0,1,.132-.311l1.081-1.648a.766.766,0,0,1,.214-.223.587.587,0,0,1,.264-.1h.065a.594.594,0,0,1,.378.142.877.877,0,0,1,.26.382,1.146,1.146,0,0,1,.06.5,1.052,1.052,0,0,1-.159.465Zm10.424-7.631a.741.741,0,0,1-.221.211.567.567,0,0,1-.732-.118L20.94,24.5l-.029-.035a.572.572,0,0,0-.463-.224.6.6,0,0,0-.45.264.983.983,0,0,0-.174.6.954.954,0,0,0,.2.58l2.363,2.84a.986.986,0,0,1,.211.454,1.161,1.161,0,0,1-.021.529.925.925,0,0,1-.246.424.612.612,0,0,1-.387.175.534.534,0,0,1-.27-.048.668.668,0,0,1-.233-.183l-2.339-2.812-.015-.018a.572.572,0,0,0-.462-.224.594.594,0,0,0-.45.263.983.983,0,0,0-.174.6.955.955,0,0,0,.2.581h0l1.564,1.9a1.059,1.059,0,0,1,.2.617,1.071,1.071,0,0,1-.184.623.659.659,0,0,1-.464.293.6.6,0,0,1-.494-.2l-1.558-1.891a.649.649,0,0,0-.213-.173.517.517,0,0,0-.248-.054.528.528,0,0,0-.246.072.678.678,0,0,0-.205.188.9.9,0,0,0-.134.275,1.054,1.054,0,0,0-.042.321,1.039,1.039,0,0,0,.056.317.863.863,0,0,0,.146.265l1.134,1.391a1.045,1.045,0,0,1,.229.633,1.087,1.087,0,0,1-.183.657.743.743,0,0,1-.221.211.577.577,0,0,1-.267.085.558.558,0,0,1-.272-.054.7.7,0,0,1-.234-.185l-.879-1.035a3.229,3.229,0,0,0-.031-1.412,2.649,2.649,0,0,0-.615-1.17,1.806,1.806,0,0,0-.947-.557,3.389,3.389,0,0,0,.019-.6,2.946,2.946,0,0,0-.519-1.52,1.894,1.894,0,0,0-1.135-.784,3.371,3.371,0,0,0,.019-.6,3.107,3.107,0,0,0-.275-1.1,2.4,2.4,0,0,0-.618-.83,1.736,1.736,0,0,0-.837-.4,1.568,1.568,0,0,0-.888.115,2.683,2.683,0,0,0-.583-1.107,1.835,1.835,0,0,0-.937-.575,1.564,1.564,0,0,0-1.033.114,2.075,2.075,0,0,0-.847.772l-1.1,1.692L4.055,22.33c.017-.036.042-.062.059-.1L7.347,15,9.1,14.2a3.746,3.746,0,0,1,2.146-.292l2.022.326-1.66,1.345a3.262,3.262,0,0,0-1.073,1.864,4.055,4.055,0,0,0,.184,2.31A2.828,2.828,0,0,0,12.067,21.3a1.969,1.969,0,0,0,1.8-.032l4.189-2.195L23.6,25.234a1.037,1.037,0,0,1,.228.628,1.08,1.08,0,0,1-.181.652Zm.963-2.312a2.324,2.324,0,0,0-.152-.217L18.6,17.477a.6.6,0,0,0-.316-.191.512.512,0,0,0-.347.05l-4.552,2.386a.946.946,0,0,1-.866.018A1.357,1.357,0,0,1,11.869,19a1.948,1.948,0,0,1-.088-1.111,1.566,1.566,0,0,1,.517-.9l2.883-2.332a4.006,4.006,0,0,1,2.528-.939h2.13a3.827,3.827,0,0,1,1.765.438l2.121,1.1,2.693,6.019Zm5.073-3.4a.941.941,0,0,1-.111.292.725.725,0,0,1-.19.214l-.529.394a.521.521,0,0,1-.49.083.7.7,0,0,1-.392-.388l-3.376-7.544a1.048,1.048,0,0,1-.064-.632.838.838,0,0,1,.3-.506l.53-.395a.536.536,0,0,1,.323-.112.52.52,0,0,1,.168.029.6.6,0,0,1,.226.144.8.8,0,0,1,.165.245l3.375,7.542a1,1,0,0,1,.082.309A1.061,1.061,0,0,1,29.682,20.8Z" transform="translate(0.003 -1.762)"/></g></svg>