<svg xmlns="http://www.w3.org/2000/svg" width="31" height="28.969" viewBox="0 0 31 28.969"><path d="M9,28.1a4.4,4.4,0,0,0,4.4,4.4h9.534a.733.733,0,0,0,.733-.733V30.3a.733.733,0,0,0-.733-.733H13.4A1.471,1.471,0,0,1,11.934,28.1V5.733A.733.733,0,0,0,11.2,5H9.733A.733.733,0,0,0,9,5.733Z" transform="translate(-4.6 -4.267)" fill="#eaeff0"/><path d="M26.667,38.5H23v2.934h3.667A.733.733,0,0,0,27.4,40.7V39.233a.733.733,0,0,0-.733-.733Z" transform="translate(-8.222 -13.198)" fill="#8fa5a5"/><path d="M29.1,28.135H23.07a2.944,2.944,0,0,1-2.088-.86l-2.215-2.2-2.215,2.2a2.944,2.944,0,0,1-2.088.86H8.43A4.45,4.45,0,0,1,5.3,26.845,4.39,4.39,0,0,1,4,23.734V16.4a4.39,4.39,0,0,1,1.3-3.11A4.45,4.45,0,0,1,8.43,12H29.1a4.45,4.45,0,0,1,3.131,1.29,4.39,4.39,0,0,1,1.3,3.11v7.334a4.39,4.39,0,0,1-1.3,3.11A4.45,4.45,0,0,1,29.1,28.135Z" transform="translate(-3.267 -6.133)" fill="#009ae0"/><path d="M19.833,23.21a2.961,2.961,0,0,1,2.091.857l2.219,2.2h6.044a1.485,1.485,0,0,0,1.046-.43,1.461,1.461,0,0,0,.433-1.037V17.467a1.461,1.461,0,0,0-.433-1.037A1.485,1.485,0,0,0,30.187,16H9.479a1.485,1.485,0,0,0-1.046.43A1.461,1.461,0,0,0,8,17.467V24.8a1.461,1.461,0,0,0,.433,1.037,1.485,1.485,0,0,0,1.046.43h6.044l2.219-2.2a2.962,2.962,0,0,1,2.091-.857Z" transform="translate(-4.333 -7.199)" fill="#eaeff0"/><path d="M28.833,9.134H11.119V5.467a1.462,1.462,0,0,0-.432-1.037A1.481,1.481,0,0,0,9.643,4H8.167a1.481,1.481,0,0,0-1.044.43A1.462,1.462,0,0,0,6.69,5.467V9.354A5.174,5.174,0,0,0,4.027,11.2,5.119,5.119,0,0,0,3,14.267V21.6a5.119,5.119,0,0,0,1.027,3.063,5.174,5.174,0,0,0,2.663,1.85v1.32a5.123,5.123,0,0,0,1.515,3.628,5.189,5.189,0,0,0,3.652,1.505h9.6a1.481,1.481,0,0,0,1.044-.43,1.462,1.462,0,0,0,.432-1.037V30.035A1.462,1.462,0,0,0,22.5,29a1.481,1.481,0,0,0-1.044-.43h-9.6a.741.741,0,0,1-.522-.215.731.731,0,0,1-.216-.519v-1.1H14.2a3.676,3.676,0,0,0,2.609-1.074L18.5,23.979l1.692,1.682A3.676,3.676,0,0,0,22.8,26.735h6.032a5.189,5.189,0,0,0,3.652-1.505A5.123,5.123,0,0,0,34,21.6V14.267a5.123,5.123,0,0,0-1.515-3.628,5.189,5.189,0,0,0-3.652-1.505ZM8.167,5.467H9.643V9.134H8.167ZM21.452,31.5H18.5V30.035h2.952Zm-9.6-1.467h5.167V31.5H11.857a3.707,3.707,0,0,1-2.608-1.075,3.66,3.66,0,0,1-1.082-2.592v-1.1H9.643v1.1a2.193,2.193,0,0,0,.649,1.556A2.222,2.222,0,0,0,11.857,30.035ZM32.524,21.6a3.66,3.66,0,0,1-1.082,2.592,3.707,3.707,0,0,1-2.608,1.075H22.8a2.206,2.206,0,0,1-1.565-.645l-2.214-2.2a.741.741,0,0,0-1.044,0l-2.214,2.2a2.206,2.206,0,0,1-1.565.645H8.167a3.707,3.707,0,0,1-2.608-1.075A3.66,3.66,0,0,1,4.476,21.6V14.267a3.66,3.66,0,0,1,1.082-2.592A3.707,3.707,0,0,1,8.167,10.6H28.833a3.707,3.707,0,0,1,2.608,1.075,3.66,3.66,0,0,1,1.082,2.592Z" transform="translate(-3 -4)"/><path d="M29.915,15H9.218a2.227,2.227,0,0,0-1.568.644A2.191,2.191,0,0,0,7,17.2v7.334a2.191,2.191,0,0,0,.65,1.556,2.227,2.227,0,0,0,1.568.644h6.041a.742.742,0,0,0,.523-.215L18,24.319a2.288,2.288,0,0,1,3.136,0l2.218,2.2a.742.742,0,0,0,.523.215h6.041a2.227,2.227,0,0,0,1.568-.644,2.192,2.192,0,0,0,.65-1.556V17.2a2.192,2.192,0,0,0-.65-1.556A2.227,2.227,0,0,0,29.915,15Zm.739,9.534a.731.731,0,0,1-.217.519.742.742,0,0,1-.523.215H24.181l-2-1.986a3.721,3.721,0,0,0-5.226,0l-2,1.986H9.218a.742.742,0,0,1-.523-.215.73.73,0,0,1-.217-.519V17.2a.73.73,0,0,1,.217-.519.742.742,0,0,1,.523-.215h20.7a.742.742,0,0,1,.523.215.731.731,0,0,1,.217.519Z" transform="translate(-4.066 -6.933)"/><path d="M12.255,21.218a.733.733,0,0,0-1.037,1.037l2.2,2.2a.733.733,0,0,0,1.037-1.037Z" transform="translate(-5.093 -8.536)"/><path d="M15.255,19.218a.733.733,0,0,0-1.037,1.037l2.934,2.934a.733.733,0,0,0,1.037-1.037Z" transform="translate(-5.876 -8.002)"/><path d="M28.255,21.218a.733.733,0,0,0-1.037,1.037l2.2,2.2a.733.733,0,0,0,1.037-1.037Z" transform="translate(-9.274 -8.536)"/><path d="M31.255,19.218a.733.733,0,0,0-1.037,1.037l2.934,2.934a.733.733,0,0,0,1.037-1.037Z" transform="translate(-10.054 -8.002)"/></svg>