<svg xmlns="http://www.w3.org/2000/svg" width="31" height="28.867" viewBox="0 0 31 28.867"><path d="M44,35.332H41.5V33.249A1.249,1.249,0,0,1,42.749,32h0A1.249,1.249,0,0,1,44,33.249Z" transform="translate(-15.804 -10.63)" fill="#fac100"/><path d="M42.749,30.5A1.249,1.249,0,1,0,41.5,29.249,1.249,1.249,0,0,0,42.749,30.5Z" transform="translate(-15.804 -9.962)" fill="#fac100"/><path d="M10,19V30.922a4.919,4.919,0,0,0,.261,1.632,3.093,3.093,0,0,0,.731,1.211,9.214,9.214,0,0,0,6.288,2.727,9.214,9.214,0,0,0,6.288-2.727,3.093,3.093,0,0,0,.731-1.211,4.921,4.921,0,0,0,.261-1.632V19Z" transform="translate(-1.778 -8.458)" fill="#2d4a60"/><path d="M10,26.56l6.469,4.384a1.381,1.381,0,0,0,1.621,0l6.469-4.384V19H10Z" transform="translate(-1.778 -8.458)" fill="#263f52"/><path d="M1.916,14.685,14.8,7.605a2.032,2.032,0,0,1,2,0l12.882,7.08a1.429,1.429,0,0,1,.569.614,2.09,2.09,0,0,1,0,1.841,1.429,1.429,0,0,1-.569.614L16.8,24.833a2.032,2.032,0,0,1-2,0L1.916,17.754a1.429,1.429,0,0,1-.569-.614,2.09,2.09,0,0,1,0-1.841,1.429,1.429,0,0,1,.569-.614Z" transform="translate(-0.297 -6.511)" fill="#2d4a60"/><path d="M29.94,13.751,16.9,6.671a2.61,2.61,0,0,0-2.533,0L1.318,13.751a2.155,2.155,0,0,0-.865.921,3.1,3.1,0,0,0,0,2.761,2.155,2.155,0,0,0,.865.921l4.572,2.48v7.974A5.065,5.065,0,0,0,6.3,30.852a3.847,3.847,0,0,0,1.147,1.516,13.6,13.6,0,0,0,8.182,2.843,13.6,13.6,0,0,0,8.182-2.843,3.847,3.847,0,0,0,1.147-1.516,5.065,5.065,0,0,0,.412-2.045V20.834l1.948-1.058v3.95a1.759,1.759,0,0,0-.657.668,2.437,2.437,0,0,0-.307,1,2.607,2.607,0,0,0,.125,1.063A2.065,2.065,0,0,0,27,27.3a2.03,2.03,0,0,0-.484.732,2.563,2.563,0,0,0-.175.933v2.082a.965.965,0,0,0,.19.589.587.587,0,0,0,.459.244h1.948a.587.587,0,0,0,.459-.244.965.965,0,0,0,.19-.589V28.963a2.562,2.562,0,0,0-.175-.933,2.029,2.029,0,0,0-.484-.732,2.064,2.064,0,0,0,.524-.84,2.606,2.606,0,0,0,.125-1.063,2.437,2.437,0,0,0-.307-1,1.759,1.759,0,0,0-.657-.668V19.071l1.322-.717a2.155,2.155,0,0,0,.865-.921,3.1,3.1,0,0,0,0-2.761,2.155,2.155,0,0,0-.865-.921Zm-1.647,11.88a.5.5,0,0,1-.055.231.358.358,0,0,1-.146.153.259.259,0,0,1-.188.024.311.311,0,0,1-.166-.114.463.463,0,0,1-.089-.213.526.526,0,0,1,.019-.241.411.411,0,0,1,.12-.187.277.277,0,0,1,.18-.07.294.294,0,0,1,.23.122A.483.483,0,0,1,28.293,25.631Zm0,4.581h-.649V28.963a.483.483,0,0,1,.1-.295.277.277,0,0,1,.459,0,.483.483,0,0,1,.1.295Zm-4.221-1.405a3.019,3.019,0,0,1-.24,1.218,2.3,2.3,0,0,1-.679.906,12.509,12.509,0,0,1-7.523,2.612,12.509,12.509,0,0,1-7.523-2.612,2.3,2.3,0,0,1-.679-.906,3.019,3.019,0,0,1-.24-1.218V21.538l7.177,3.895a2.608,2.608,0,0,0,2.533,0l7.174-3.895ZM29.434,16.82,16.389,23.9a1.567,1.567,0,0,1-1.518,0L1.827,16.82a.718.718,0,0,1-.288-.307,1.034,1.034,0,0,1,0-.92.718.718,0,0,1,.288-.307l13.045-7.08a1.564,1.564,0,0,1,1.518,0l13.045,7.08a.719.719,0,0,1,.288.307,1.033,1.033,0,0,1,0,.92A.719.719,0,0,1,29.434,16.82Z" transform="translate(-0.129 -6.344)"/></svg>