<svg xmlns="http://www.w3.org/2000/svg" width="31" height="32.269" viewBox="0 0 31 32.269"><path d="M17.767,33.8c8.155,0,14.767-6.9,14.767-15.4S25.922,3,17.767,3,3,9.9,3,18.4,9.611,33.8,17.767,33.8Z" transform="translate(-2.267 -2.267)" fill="#f87600"/><path d="M20.535,30.751A13.588,13.588,0,0,1,12.62,28.2a14.559,14.559,0,0,1-5.155-6.777,15.281,15.281,0,0,1-.6-8.637,14.811,14.811,0,0,1,4.172-7.48A14.921,14.921,0,0,0,5.812,9.973,15.781,15.781,0,0,0,3.18,16.614a16.064,16.064,0,0,0,.539,7.166A15.528,15.528,0,0,0,7.311,29.91a14.629,14.629,0,0,0,5.862,3.756,14.11,14.11,0,0,0,6.854.563,14.383,14.383,0,0,0,6.351-2.752,15.231,15.231,0,0,0,4.463-5.468,14.008,14.008,0,0,1-4.676,3.5A13.457,13.457,0,0,1,20.535,30.751Z" transform="translate(-2.266 -2.881)" fill="#e55c00"/><path d="M17.5,2A15.07,15.07,0,0,0,8.889,4.719,16.013,16.013,0,0,0,3.18,11.96,16.749,16.749,0,0,0,2.3,21.282,16.35,16.35,0,0,0,6.54,29.544a15.322,15.322,0,0,0,7.936,4.416,14.934,14.934,0,0,0,8.955-.918A15.651,15.651,0,0,0,30.388,27.1,16.624,16.624,0,0,0,28.455,6.731,15.215,15.215,0,0,0,17.5,2ZM28.445,27.353a15.04,15.04,0,0,0-1.409-2.278,10.8,10.8,0,0,1-2.456-6.207h6.975a14.931,14.931,0,0,1-3.11,8.485Zm-25-8.485H10.42a10.8,10.8,0,0,1-2.455,6.207,15.043,15.043,0,0,0-1.409,2.278,14.931,14.931,0,0,1-3.111-8.485Zm3.11-9.952a15.047,15.047,0,0,0,1.409,2.278A10.8,10.8,0,0,1,10.419,17.4H3.444A14.931,14.931,0,0,1,6.555,8.916ZM18.2,17.4V3.5a13.785,13.785,0,0,1,9.2,4.21,10.611,10.611,0,0,1-1.5,2.608A12.117,12.117,0,0,0,23.155,17.4Zm-1.409,0h-4.95A12.131,12.131,0,0,0,9.1,10.322,10.611,10.611,0,0,1,7.6,7.714,13.785,13.785,0,0,1,16.8,3.5ZM9.1,25.947a12.13,12.13,0,0,0,2.748-7.079H16.8v13.9a13.784,13.784,0,0,1-9.2-4.21,10.611,10.611,0,0,1,1.5-2.608ZM18.2,18.868h4.95A12.131,12.131,0,0,0,25.9,25.947a10.612,10.612,0,0,1,1.5,2.608,13.784,13.784,0,0,1-9.2,4.21ZM24.58,17.4a10.8,10.8,0,0,1,2.455-6.207,15.045,15.045,0,0,0,1.409-2.278A14.931,14.931,0,0,1,31.555,17.4Z" transform="translate(-2 -2)"/></svg>