<svg xmlns="http://www.w3.org/2000/svg" width="31" height="31.86" viewBox="0 0 31 31.86"><path d="M49.434,53.333l-10.059.028a3.034,3.034,0,0,0-2.1.857L21.1,69.867a1.48,1.48,0,0,0-.33.48,1.519,1.519,0,0,0-.017,1.153,1.484,1.484,0,0,0,.316.491L32.039,83.28a1.436,1.436,0,0,0,.477.325,1.4,1.4,0,0,0,1.121-.018,1.439,1.439,0,0,0,.467-.34L49.31,66.6a3.22,3.22,0,0,0,.833-2.159L50.17,54.09a.8.8,0,0,0-.225-.526.76.76,0,0,0-.511-.231Z" transform="translate(-19.909 -52.593)" fill="#fd3730"/><path d="M361.216,113.171a1.48,1.48,0,1,0-2.092,0A1.48,1.48,0,0,0,361.216,113.171Z" transform="translate(-335.363 -105.93)" fill="#eaeff0"/><path d="M23.123,74.527a2.091,2.091,0,0,1-.826-.168,2.14,2.14,0,0,1-.7-.482L10.613,62.588a2.225,2.225,0,0,1-.474-.736,2.276,2.276,0,0,1,.026-1.73,2.22,2.22,0,0,1,.5-.72l16.2-15.649A3.737,3.737,0,0,1,29.45,42.7l10.073-.028h.033a1.464,1.464,0,0,1,.992.445,1.544,1.544,0,0,1,.433,1.019l-.027,10.386a3.955,3.955,0,0,1-1.029,2.663L24.7,73.828a2.145,2.145,0,0,1-.7.512,2.094,2.094,0,0,1-.84.187ZM39.5,44.147l-10.046.028a2.321,2.321,0,0,0-1.61.657L11.647,60.48a.74.74,0,0,0-.165.24.759.759,0,0,0-.009.577.742.742,0,0,0,.158.245L22.615,72.831a.737.737,0,0,0,.52.216.7.7,0,0,0,.28-.063.716.716,0,0,0,.234-.17L38.875,56.168a2.459,2.459,0,0,0,.639-1.654l.027-10.352C39.541,44.169,39.523,44.151,39.5,44.147Z" transform="translate(-9.98 -42.667)"/><path d="M121.576,301.775l-.35.117c-.7.233-.879.252-1.025.107a.66.66,0,0,1-.191-.393.628.628,0,0,1,.329-.583l.922-.549a.74.74,0,0,0-.757-1.272l-.922.549a2.1,2.1,0,0,0-1.041,2.025,2.154,2.154,0,0,0,.615,1.268,2.256,2.256,0,0,0,2.54.25l.351-.116c.7-.233.879-.252,1.024-.107a.661.661,0,0,1,.2.464.611.611,0,0,1-.325.506l-.931.554a.74.74,0,0,0,.757,1.272l.93-.554a2.093,2.093,0,0,0,1.048-1.788,2.133,2.133,0,0,0-.629-1.5A2.258,2.258,0,0,0,121.576,301.775Z" transform="translate(-111.25 -281.312)"/><path d="M183.6,259.913l-5.345-2.43a.74.74,0,0,0-.979.979l2.43,5.345a.74.74,0,1,0,1.347-.612l-.4-.869,1.462-1.462.869.4a.74.74,0,1,0,.612-1.347Zm-3.6.975-.564-1.242,1.242.564Z" transform="translate(-166.009 -242.522)"/><path d="M225.133,217.86l-1.178,1.178-3.365-3.365a.74.74,0,0,0-1.046,1.046l3.888,3.888a.739.739,0,0,0,1.046,0l1.7-1.7a.74.74,0,0,0-1.046-1.046Z" transform="translate(-205.316 -203.478)"/><path d="M271.638,149.334a.74.74,0,0,0-1.046,0l-1.178,1.178-.9-.9.935-.935a.74.74,0,1,0-1.046-1.047l-.935.935-.9-.9,1.178-1.178a.74.74,0,1,0-1.046-1.046l-1.7,1.7a.74.74,0,0,0,0,1.046l3.888,3.888a.74.74,0,0,0,1.046,0l1.7-1.7a.74.74,0,0,0,0-1.046Z" transform="translate(-247.726 -138.111)"/><path d="M350.233,99.978a2.219,2.219,0,1,0,1.569.65A2.22,2.22,0,0,0,350.233,99.978Zm0,2.959a.74.74,0,1,1,.523-.217A.74.74,0,0,1,350.233,102.937Z" transform="translate(-325.428 -96.003)"/></svg>