<svg xmlns="http://www.w3.org/2000/svg" width="31" height="30.455" viewBox="0 0 31 30.455"><path d="M29.335,19V35.658a1.948,1.948,0,0,1-.375,1.178,1.153,1.153,0,0,1-.906.488H6.281a1.153,1.153,0,0,1-.906-.488A1.948,1.948,0,0,1,5,35.658V19Z" transform="translate(-1.666 -7.702)" fill="#eaeff0"/><path d="M29.335,21H5v3.332H29.335Z" transform="translate(-1.666 -8.036)" fill="#d9e1e2"/><path d="M2.667,20a.57.57,0,0,1-.343-.118.784.784,0,0,1-.245-.322A1.008,1.008,0,0,1,2,19.124a.981.981,0,0,1,.111-.422l1.777-3.332A.748.748,0,0,1,4.13,15.1a.564.564,0,0,1,.315-.1H28.887a.564.564,0,0,1,.315.1.748.748,0,0,1,.24.272L31.219,18.7a.981.981,0,0,1,.111.421,1.007,1.007,0,0,1-.078.433.784.784,0,0,1-.245.322.57.57,0,0,1-.342.119Z" transform="translate(-1.165 -7.034)" fill="#fd3730"/><path d="M9.556,14.4l7.713-7.673a.883.883,0,0,1,1.319,0L26.3,14.4Z" transform="translate(-2.428 -5.602)" fill="#fd3730"/><path d="M29.993,15H15V36.656H29.993Z" transform="translate(-6.996 -7.034)" fill="#eaeff0"/><path d="M29.993,15H15v3.332H29.993Z" transform="translate(-6.996 -7.034)" fill="#d9e1e2"/><path d="M21.5,20H19v2.5h2.5Z" transform="translate(-7.068 -7.869)" fill="#8fa5a5"/><path d="M28.5,20H26v2.5h2.5Z" transform="translate(-9.429 -7.869)" fill="#8fa5a5"/><path d="M21.5,26H19v2.5h2.5Z" transform="translate(-7.068 -8.871)" fill="#8fa5a5"/><path d="M28.5,26H26v2.5h2.5Z" transform="translate(-9.429 -8.871)" fill="#8fa5a5"/><path d="M19,39.83v-5A.833.833,0,0,1,19.833,34H26.5a.833.833,0,0,1,.833.833v5Z" transform="translate(-7.664 -10.208)" fill="#7b8c8c"/><path d="M31.771,16.643l-1.8-3.332a1.5,1.5,0,0,0-.485-.545,1.149,1.149,0,0,0-.636-.2H25.47L17.65,5.877a1.721,1.721,0,0,0-2.3,0l-7.82,6.692H4.145a1.148,1.148,0,0,0-.637.2,1.5,1.5,0,0,0-.487.546l-1.8,3.332A1.945,1.945,0,0,0,1,17.487a2,2,0,0,0,.158.867,1.569,1.569,0,0,0,.5.643,1.16,1.16,0,0,0,.693.236h.674v14.16a2.826,2.826,0,0,0,.592,1.767,1.849,1.849,0,0,0,1.43.732H27.955a1.849,1.849,0,0,0,1.43-.732,2.826,2.826,0,0,0,.592-1.767V19.232h.674A1.161,1.161,0,0,0,31.342,19a1.569,1.569,0,0,0,.5-.643A2,2,0,0,0,32,17.486a1.944,1.944,0,0,0-.225-.843Zm-15.656-9.4a.571.571,0,0,1,.767,0L23.1,12.569H9.895ZM2.347,17.566l1.8-3.332H9.76v3.332Zm2.7,16.658a.616.616,0,0,1-.477-.244.942.942,0,0,1-.2-.589V19.232H9.76V34.225Zm8.76,0V30.06h5.391v4.165Zm6.739,0V30.06a1.884,1.884,0,0,0-.395-1.178,1.233,1.233,0,0,0-.953-.488H13.8a1.233,1.233,0,0,0-.953.488,1.884,1.884,0,0,0-.395,1.178v4.165H11.108V14.235H21.89v19.99Zm8.087-.833a.942.942,0,0,1-.2.589.616.616,0,0,1-.476.244H23.237V19.232h5.391ZM23.237,17.566V14.235h5.615l1.8,3.332Z" transform="translate(-0.998 -5.436)"/><path d="M21.332,19h-2.5a.833.833,0,0,0-.833.833v2.5a.833.833,0,0,0,.833.833h2.5a.833.833,0,0,0,.833-.833v-2.5A.833.833,0,0,0,21.332,19ZM20.5,21.5h-.833v-.833H20.5Z" transform="translate(-6.872 -7.702)"/><path d="M28.332,19h-2.5a.833.833,0,0,0-.833.833v2.5a.833.833,0,0,0,.833.833h2.5a.833.833,0,0,0,.833-.833v-2.5A.833.833,0,0,0,28.332,19ZM27.5,21.5h-.833v-.833H27.5Z" transform="translate(-9.291 -7.702)"/><path d="M21.332,25h-2.5a.833.833,0,0,0-.833.833v2.5a.833.833,0,0,0,.833.833h2.5a.833.833,0,0,0,.833-.833v-2.5A.833.833,0,0,0,21.332,25ZM20.5,27.5h-.833v-.833H20.5Z" transform="translate(-6.872 -8.704)"/><path d="M28.332,25h-2.5a.833.833,0,0,0-.833.833v2.5a.833.833,0,0,0,.833.833h2.5a.833.833,0,0,0,.833-.833v-2.5A.833.833,0,0,0,28.332,25ZM27.5,27.5h-.833v-.833H27.5Z" transform="translate(-9.291 -8.704)"/></svg>