<svg xmlns="http://www.w3.org/2000/svg" width="31" height="32.27" viewBox="0 0 31 32.27"><path d="M6.953,39.334a2.963,2.963,0,0,1-2.088-.859A2.924,2.924,0,0,1,4,36.4V33.467a1.462,1.462,0,0,1,.433-1.037A1.482,1.482,0,0,1,5.477,32h26.58a1.482,1.482,0,0,1,1.044.43,1.462,1.462,0,0,1,.433,1.037V36.4a2.923,2.923,0,0,1-.865,2.074,2.963,2.963,0,0,1-2.088.859Z" transform="translate(-3.267 -9.264)" fill="#c6512b"/><path d="M30.58,37.934H6.953a2.963,2.963,0,0,1-2.088-.859A2.924,2.924,0,0,1,4,35v2.2a2.924,2.924,0,0,0,.865,2.074,2.963,2.963,0,0,0,2.088.859H30.58a2.963,2.963,0,0,0,2.088-.859,2.923,2.923,0,0,0,.865-2.074V35a2.923,2.923,0,0,1-.865,2.074A2.963,2.963,0,0,1,30.58,37.934Z" transform="translate(-3.267 -10.064)" fill="#ad4023"/><path d="M31.666,15.589V32.025a4.382,4.382,0,0,1-1.3,3.111,4.456,4.456,0,0,1-3.138,1.289H12.437A4.457,4.457,0,0,1,9.3,35.136,4.382,4.382,0,0,1,8,32.025V15.589Z" transform="translate(-4.333 -4.889)" fill="#e67244"/><path d="M27.229,39.4H12.437A4.456,4.456,0,0,1,9.3,38.111,4.382,4.382,0,0,1,8,35v2.2a4.382,4.382,0,0,0,1.3,3.111A4.456,4.456,0,0,0,12.437,41.6H27.229a4.456,4.456,0,0,0,3.138-1.289,4.382,4.382,0,0,0,1.3-3.111V35a4.382,4.382,0,0,1-1.3,3.111A4.456,4.456,0,0,1,27.229,39.4Z" transform="translate(-4.333 -10.064)" fill="#c6512b"/><path d="M11.911,18.734H8.956a2.967,2.967,0,0,1-2.09-.859A2.922,2.922,0,0,1,6,15.8V11.4A4.384,4.384,0,0,1,7.3,8.289,4.45,4.45,0,0,1,10.433,7H28.166A4.45,4.45,0,0,1,31.3,8.289,4.384,4.384,0,0,1,32.6,11.4v4.4a2.922,2.922,0,0,1-.866,2.074,2.966,2.966,0,0,1-2.09.859Z" transform="translate(-3.8 -2.599)" fill="#e67244"/><path d="M29.644,17.934H8.956a2.967,2.967,0,0,1-2.09-.859A2.922,2.922,0,0,1,6,15v2.934a2.922,2.922,0,0,0,.866,2.074,2.967,2.967,0,0,0,2.09.859H29.644a2.966,2.966,0,0,0,2.09-.859,2.922,2.922,0,0,0,.866-2.074V15a2.922,2.922,0,0,1-.866,2.074A2.966,2.966,0,0,1,29.644,17.934Z" transform="translate(-3.8 -4.732)" fill="#c6512b"/><path d="M25.734,36.867h-8.8A2.934,2.934,0,0,1,14,33.934V32.467A1.467,1.467,0,0,1,15.467,31H27.2a1.467,1.467,0,0,1,1.467,1.467v1.467a2.934,2.934,0,0,1-2.934,2.934Z" transform="translate(-5.834 -8.998)" fill="#c6512b"/><path d="M25.734,35.08h-8.8a2.925,2.925,0,0,1-2.893-2.531,1.491,1.491,0,0,0-.04.331v1.467a2.934,2.934,0,0,0,2.934,2.934h8.8a2.934,2.934,0,0,0,2.934-2.934V32.88a1.491,1.491,0,0,0-.04-.331,2.925,2.925,0,0,1-2.893,2.531Z" transform="translate(-5.834 -9.41)" fill="#ad4023"/><path d="M16.934,21.467a1.467,1.467,0,0,0-2.934,0v1.467a1.467,1.467,0,1,0,2.934,0Z" transform="translate(-5.876 -6.065)" fill="#eaeff0"/><path d="M32.934,21.467a1.467,1.467,0,0,0-2.934,0v1.467a1.467,1.467,0,1,0,2.934,0Z" transform="translate(-10.058 -6.065)" fill="#eaeff0"/><path d="M31.786,23h-.738V17.115A3.642,3.642,0,0,0,32.524,14.2V9.8a5.123,5.123,0,0,0-1.515-3.628,5.189,5.189,0,0,0-3.652-1.505H23.7a5.475,5.475,0,0,0-2.011-2.657,5.535,5.535,0,0,0-6.376,0A5.475,5.475,0,0,0,13.3,4.667H9.643A5.189,5.189,0,0,0,5.991,6.172,5.123,5.123,0,0,0,4.476,9.8v4.4a3.642,3.642,0,0,0,1.476,2.915V23H5.214a2.222,2.222,0,0,0-1.566.644A2.193,2.193,0,0,0,3,25.2v2.934a3.66,3.66,0,0,0,1.082,2.592A3.707,3.707,0,0,0,6.69,31.8h.82a5.162,5.162,0,0,0,3.609,1.467H25.881A5.162,5.162,0,0,0,29.489,31.8h.82a3.707,3.707,0,0,0,2.608-1.075A3.66,3.66,0,0,0,34,28.135V25.2a2.193,2.193,0,0,0-.649-1.556A2.222,2.222,0,0,0,31.786,23ZM18.5,2.466a4.026,4.026,0,0,1,3.6,2.2H14.9a4.026,4.026,0,0,1,3.6-2.2ZM5.952,9.8A3.66,3.66,0,0,1,7.035,7.209,3.707,3.707,0,0,1,9.643,6.133H27.357a3.707,3.707,0,0,1,2.608,1.075A3.66,3.66,0,0,1,31.048,9.8v4.4a2.193,2.193,0,0,1-.649,1.556,2.222,2.222,0,0,1-1.566.644H26.619a2.193,2.193,0,0,0-.649-1.556,2.224,2.224,0,0,0-3.131,0A2.193,2.193,0,0,0,22.19,16.4H14.81a2.193,2.193,0,0,0-.649-1.556,2.224,2.224,0,0,0-3.131,0,2.193,2.193,0,0,0-.649,1.556H8.167A2.222,2.222,0,0,1,6.6,15.756,2.193,2.193,0,0,1,5.952,14.2Zm19.19,6.6v1.467a.731.731,0,0,1-.216.519.741.741,0,0,1-1.044,0,.731.731,0,0,1-.216-.519V16.4a.731.731,0,0,1,.216-.519.741.741,0,0,1,1.044,0A.731.731,0,0,1,25.143,16.4Zm-11.81,0v1.467a.731.731,0,0,1-.216.519.741.741,0,0,1-1.044,0,.731.731,0,0,1-.216-.519V16.4a.731.731,0,0,1,.216-.519.741.741,0,0,1,1.044,0A.731.731,0,0,1,13.333,16.4ZM4.476,28.135V25.2a.731.731,0,0,1,.216-.519.741.741,0,0,1,.522-.215h.738v3.667a5.066,5.066,0,0,0,.494,2.176,2.214,2.214,0,0,1-1.4-.714,2.188,2.188,0,0,1-.567-1.462Zm21.4,3.667H11.119a3.707,3.707,0,0,1-2.608-1.075,3.66,3.66,0,0,1-1.082-2.592V17.794a3.717,3.717,0,0,0,.738.073h2.214a2.193,2.193,0,0,0,.649,1.556,2.224,2.224,0,0,0,3.131,0,2.193,2.193,0,0,0,.649-1.556H22.19a2.193,2.193,0,0,0,.649,1.556,2.224,2.224,0,0,0,3.131,0,2.193,2.193,0,0,0,.649-1.556h2.214a3.717,3.717,0,0,0,.738-.073V28.135a3.66,3.66,0,0,1-1.082,2.592A3.707,3.707,0,0,1,25.881,31.8Zm6.643-3.667a2.188,2.188,0,0,1-.567,1.462,2.214,2.214,0,0,1-1.4.714,5.066,5.066,0,0,0,.494-2.176V24.468h.738a.741.741,0,0,1,.522.215.731.731,0,0,1,.216.519Z" transform="translate(-3 -0.999)"/><path d="M27.105,30H15.227a2.241,2.241,0,0,0-1.575.644A2.187,2.187,0,0,0,13,32.2v1.467a3.649,3.649,0,0,0,1.088,2.592,3.74,3.74,0,0,0,2.623,1.075H25.62a3.74,3.74,0,0,0,2.623-1.075,3.649,3.649,0,0,0,1.088-2.592V32.2a2.187,2.187,0,0,0-.652-1.556A2.241,2.241,0,0,0,27.105,30Zm.742,3.667a2.187,2.187,0,0,1-.652,1.556,2.241,2.241,0,0,1-1.575.644H16.712a2.241,2.241,0,0,1-1.575-.644,2.187,2.187,0,0,1-.652-1.556V32.2a.729.729,0,0,1,.217-.519.747.747,0,0,1,.525-.215H27.105a.747.747,0,0,1,.525.215.729.729,0,0,1,.217.519Z" transform="translate(-5.666 -8.731)"/></svg>