<svg xmlns="http://www.w3.org/2000/svg" width="31" height="26.434" viewBox="0 0 31 26.434"><path d="M35.534,15.067A4.034,4.034,0,1,0,31.5,11.034,4.034,4.034,0,0,0,35.534,15.067Z" transform="translate(-11.143 -6.238)" fill="#eaeff0"/><path d="M36.634,13.242A3.29,3.29,0,0,1,35.11,7.031a4.034,4.034,0,1,0,4.435,4.435,3.286,3.286,0,0,1-2.911,1.776Z" transform="translate(-11.143 -6.246)" fill="#d9e1e2"/><path d="M29.7,20.889a4.555,4.555,0,0,0-1.027-1.606l-6.138-6.138a4.537,4.537,0,0,0-2.457-1.261l-3.887-.645a4.519,4.519,0,0,0-2.618.345L9.267,13.54a1.937,1.937,0,0,0,1.6,3.528l4.312-1.958a.651.651,0,0,1,.374-.051l3.887.653a.672.672,0,0,1,.205.066L15.86,19.562,11.7,23.515H30.036Z" transform="translate(-4.359 -7.351)" fill="#eaeff0"/><path d="M31,22.751a4.556,4.556,0,0,0-1.027-1.606l-2.984-2.984a4.21,4.21,0,0,0-2.546,1.2,4.24,4.24,0,0,1-5.574.356l-1.709,1.7L13,25.377H31.335Z" transform="translate(-5.965 -9.214)" fill="#d9e1e2"/><path d="M4,23.348a4.121,4.121,0,0,0,5.9,0,4.121,4.121,0,0,1,5.9,0,4.121,4.121,0,0,0,5.9,0,4.121,4.121,0,0,1,5.9,0h0a4.121,4.121,0,0,0,5.9,0V34.715a4.121,4.121,0,0,1-5.9,0h0a4.121,4.121,0,0,0-5.9,0h0a4.121,4.121,0,0,1-5.9,0h0a4.121,4.121,0,0,0-5.9,0h0a4.121,4.121,0,0,1-5.9,0Z" transform="translate(-3.258 -10.264)" fill="#009ae0"/><path d="M9.9,36.781a4.121,4.121,0,0,1,5.9,0,4.121,4.121,0,0,0,5.9,0,4.121,4.121,0,0,1,5.9,0,4.121,4.121,0,0,0,5.9,0V31.1a4.121,4.121,0,0,1-5.9,0,4.121,4.121,0,0,0-5.9,0,4.121,4.121,0,0,1-5.9,0,4.121,4.121,0,0,0-5.9,0,4.121,4.121,0,0,1-5.9,0v5.684a4.121,4.121,0,0,0,5.9,0Z" transform="translate(-3.258 -12.331)" fill="#0081bd"/><path d="M6.678,21.024a4.791,4.791,0,0,0,1.875-.377,4.86,4.86,0,0,0,1.588-1.083,3.416,3.416,0,0,1,4.889,0,4.844,4.844,0,0,0,6.927,0,3.416,3.416,0,0,1,4.889,0,4.839,4.839,0,0,0,6.927,0,.743.743,0,0,0-.009-1.028.712.712,0,0,0-1.01-.009,3.4,3.4,0,0,1-4.292.48,5.349,5.349,0,0,0-1.073-1.63l-3.1-3.154a4.641,4.641,0,0,0,6.6-.145,4.844,4.844,0,0,0-.048-6.715,4.641,4.641,0,0,0-6.6-.048,4.844,4.844,0,0,0-.143,6.714l-2.742-2.791a5.127,5.127,0,0,0-2.8-1.463l-3.819-.646a5.078,5.078,0,0,0-2.987.4L7.52,11.481a2.621,2.621,0,0,0-.858.6,2.676,2.676,0,0,0-.563.889,2.714,2.714,0,0,0,.053,2.073,2.669,2.669,0,0,0,.607.858,2.616,2.616,0,0,0,.887.551,2.581,2.581,0,0,0,2.034-.1l4.187-1.954,2.666.46-2.419,2.463A4.8,4.8,0,0,0,11.45,17.2a4.863,4.863,0,0,0-2.328,1.326,3.416,3.416,0,0,1-4.889,0,.711.711,0,0,0-1.01.009.743.743,0,0,0-.009,1.028A4.862,4.862,0,0,0,4.8,20.646a4.792,4.792,0,0,0,1.876.378ZM27.5,7.456a3.2,3.2,0,0,1,1.8.556A3.288,3.288,0,0,1,30.5,9.494,3.355,3.355,0,0,1,30.68,11.4a3.319,3.319,0,0,1-.887,1.69,3.225,3.225,0,0,1-1.66.9,3.189,3.189,0,0,1-1.873-.188A3.255,3.255,0,0,1,24.8,12.59a3.342,3.342,0,0,1,.4-4.166A3.217,3.217,0,0,1,27.5,7.456Zm-8.98,7.449a.737.737,0,0,0,.178-.3.747.747,0,0,0,.02-.351.739.739,0,0,0-.142-.32.722.722,0,0,0-.272-.216,1.227,1.227,0,0,0-.376-.12l-3.819-.653a1.332,1.332,0,0,0-.785.106L9.088,15.01a1.164,1.164,0,0,1-1.3-.214,1.206,1.206,0,0,1-.343-.607,1.221,1.221,0,0,1,.047-.7,1.2,1.2,0,0,1,.244-.4,1.175,1.175,0,0,1,.377-.273l4.229-1.958A3.671,3.671,0,0,1,14.5,10.57l3.819.646a3.706,3.706,0,0,1,2.022,1.056L25.1,17.12a4.805,4.805,0,0,0-4.164,1.4,3.42,3.42,0,0,1-4.889,0,4.986,4.986,0,0,0-.588-.505Z" transform="translate(-2.994 -5.961)"/><path d="M32.749,30.313a3.416,3.416,0,0,1-4.889,0,4.843,4.843,0,0,0-6.927,0,3.416,3.416,0,0,1-4.889,0,4.843,4.843,0,0,0-6.927,0,3.416,3.416,0,0,1-4.889,0,.721.721,0,0,0-.234-.164.709.709,0,0,0-.557,0,.72.72,0,0,0-.237.16.734.734,0,0,0-.157.241.746.746,0,0,0,0,.567.733.733,0,0,0,.161.238,4.839,4.839,0,0,0,6.927,0,3.42,3.42,0,0,1,4.889,0,4.842,4.842,0,0,0,6.927,0,3.42,3.42,0,0,1,4.889,0,4.839,4.839,0,0,0,6.927,0,.733.733,0,0,0,.161-.238.746.746,0,0,0,0-.567.734.734,0,0,0-.157-.241.72.72,0,0,0-.237-.16.709.709,0,0,0-.557,0,.721.721,0,0,0-.234.164Z" transform="translate(-2.988 -12.065)"/><path d="M32.755,38.07a3.416,3.416,0,0,1-4.889,0,4.839,4.839,0,0,0-6.927,0,3.416,3.416,0,0,1-4.889,0,4.839,4.839,0,0,0-6.927,0,3.416,3.416,0,0,1-4.889,0,.711.711,0,0,0-1.01.009.743.743,0,0,0-.009,1.028,4.839,4.839,0,0,0,6.927,0,3.416,3.416,0,0,1,4.889,0,4.844,4.844,0,0,0,6.927,0,3.416,3.416,0,0,1,4.889,0,4.839,4.839,0,0,0,6.927,0,.743.743,0,0,0-.009-1.028.711.711,0,0,0-1.01-.009Z" transform="translate(-2.994 -14.132)"/></svg>