<svg xmlns="http://www.w3.org/2000/svg" width="31" height="36.648" viewBox="0 0 31 36.648"><path d="M11,18.684a.833.833,0,0,0,.833.833h2.982a10.6,10.6,0,0,0,1.358,3.29l-2.106,2.106a.833.833,0,0,0,0,1.178l2.166,2.166a.833.833,0,0,0,1.178,0l2.1-2.109a10.775,10.775,0,0,0,3.29,1.341v3a.833.833,0,0,0,.833.833h3.048a.833.833,0,0,0,.833-.833v-3a10.775,10.775,0,0,0,3.29-1.341l2.106,2.106a.833.833,0,0,0,1.178,0l2.166-2.166a.833.833,0,0,0,0-1.178l-2.109-2.1a10.6,10.6,0,0,0,1.358-3.29h2.982a.833.833,0,0,0,.833-.833V15.635a.833.833,0,0,0-.833-.833H35.5a10.6,10.6,0,0,0-1.358-3.29l2.106-2.106a.833.833,0,0,0,0-1.178L34.087,6.063a.833.833,0,0,0-1.178,0l-2.1,2.109a10.776,10.776,0,0,0-3.29-1.341v-3A.833.833,0,0,0,26.684,3H23.635a.833.833,0,0,0-.833.833v3a10.776,10.776,0,0,0-3.29,1.341L17.407,6.067a.833.833,0,0,0-1.178,0L14.063,8.232a.833.833,0,0,0,0,1.178l2.109,2.1a10.6,10.6,0,0,0-1.358,3.29H11.833a.833.833,0,0,0-.833.833Z" transform="translate(-9.152 -2.167)" fill="#7b8c8c"/><path d="M26.946,24.2a5.256,5.256,0,1,0-5.256-5.256A5.256,5.256,0,0,0,26.946,24.2Z" transform="translate(-8.834 -3.953)" fill="#d9e1e2"/><path d="M22.157,29.329H20.3a7.448,7.448,0,0,0-.963-2.32l1.315-1.315a.833.833,0,0,0,0-1.178l-1.178-1.178a.833.833,0,0,0-1.178,0l-1.315,1.315a7.5,7.5,0,0,0-2.32-.948V21.833A.833.833,0,0,0,13.828,21H12.162a.833.833,0,0,0-.833.833v1.873a7.5,7.5,0,0,0-2.32.948L7.694,23.339a.833.833,0,0,0-1.178,0L5.339,24.517a.833.833,0,0,0,0,1.178L6.654,27.01a7.448,7.448,0,0,0-.963,2.32H3.833A.833.833,0,0,0,3,30.162v1.666a.833.833,0,0,0,.833.833H5.691a7.449,7.449,0,0,0,.963,2.32L5.339,36.3a.833.833,0,0,0,0,1.178l1.178,1.178a.833.833,0,0,0,1.178,0L9.01,37.336a7.5,7.5,0,0,0,2.32.948v1.873a.833.833,0,0,0,.833.833h1.666a.833.833,0,0,0,.833-.833V38.284a7.5,7.5,0,0,0,2.32-.948L18.3,38.651a.833.833,0,0,0,1.178,0l1.178-1.178a.833.833,0,0,0,0-1.178l-1.315-1.315a7.448,7.448,0,0,0,.963-2.32h1.858a.833.833,0,0,0,.833-.833V30.162a.833.833,0,0,0-.833-.833Z" transform="translate(-2.167 -5.175)" fill="#7b8c8c"/><path d="M14.332,35.663A3.332,3.332,0,1,0,11,32.332,3.332,3.332,0,0,0,14.332,35.663Z" transform="translate(-4.916 -6.511)" fill="#eaeff0"/><path d="M26.517,31.985h-.4a.833.833,0,0,1,0-1.666h.4v-3a.833.833,0,0,1,.645-.81A10,10,0,0,0,30.2,25.273a.833.833,0,0,1,1.03.117L33.334,27.5,35.5,25.331l-2.106-2.106a.833.833,0,0,1-.117-1.03,9.757,9.757,0,0,0,1.249-3.032.833.833,0,0,1,.813-.65h2.98V15.468H35.337a.833.833,0,0,1-.813-.65,9.757,9.757,0,0,0-1.249-3.032.833.833,0,0,1,.117-1.03L35.5,8.651,33.333,6.485l-2.1,2.109a.833.833,0,0,1-1.03.117,9.978,9.978,0,0,0-3.04-1.236.833.833,0,0,1-.641-.811v-3H23.468v3a.833.833,0,0,1-.645.811,9.977,9.977,0,0,0-3.037,1.236.833.833,0,0,1-1.03-.117L16.651,6.489,14.485,8.654l2.106,2.106a.833.833,0,0,1,.117,1.03,9.757,9.757,0,0,0-1.249,3.032.833.833,0,0,1-.813.65h-2.98v.4a.833.833,0,0,1-1.666,0v-.4a1.666,1.666,0,0,1,1.666-1.666H14a11.437,11.437,0,0,1,.96-2.323L13.311,9.829a1.666,1.666,0,0,1,0-2.355l2.166-2.166a1.66,1.66,0,0,1,2.354,0l1.653,1.652a11.659,11.659,0,0,1,2.32-.94V3.666A1.666,1.666,0,0,1,23.468,2h3.048a1.666,1.666,0,0,1,1.666,1.666V6.02a11.661,11.661,0,0,1,2.321.942l1.652-1.652a1.666,1.666,0,0,1,2.356,0l2.161,2.166a1.666,1.666,0,0,1,0,2.355l-1.652,1.652a11.44,11.44,0,0,1,.965,2.32h2.332a1.666,1.666,0,0,1,1.666,1.666v3.048a1.666,1.666,0,0,1-1.666,1.666H35.987a11.46,11.46,0,0,1-.96,2.323l1.647,1.65a1.666,1.666,0,0,1,0,2.355l-2.166,2.166a1.666,1.666,0,0,1-2.355,0L30.5,27.023a11.564,11.564,0,0,1-2.321.944v2.352a1.666,1.666,0,0,1-1.663,1.666Z" transform="translate(-8.985 -2)"/><path d="M26.779,24.867a.845.845,0,0,1-.846-.833.822.822,0,0,1,.821-.833h.025a4.423,4.423,0,1,0-4.423-4.423.844.844,0,0,1-.833.845.823.823,0,0,1-.833-.82,6.089,6.089,0,1,1,6.089,6.064Z" transform="translate(-8.716 -3.786)"/><path d="M13.661,41.656H12a1.666,1.666,0,0,1-1.666-1.666V38.755a8.381,8.381,0,0,1-1.347-.548l-.866.867a1.666,1.666,0,0,1-2.355,0L4.582,37.9a1.666,1.666,0,0,1,0-2.355l.865-.865a8.151,8.151,0,0,1-.56-1.348H3.666A1.666,1.666,0,0,1,2,31.661V30a1.666,1.666,0,0,1,1.666-1.666H4.887a8.15,8.15,0,0,1,.561-1.348l-.865-.865a1.666,1.666,0,0,1,0-2.355l1.179-1.179a1.666,1.666,0,0,1,2.355,0l.866.866a8.308,8.308,0,0,1,1.347-.547V21.666A1.666,1.666,0,0,1,12,20h1.666a1.666,1.666,0,0,1,1.666,1.666V22.9a8.3,8.3,0,0,1,1.347.548l.866-.866a1.666,1.666,0,0,1,2.355,0l1.179,1.178a1.666,1.666,0,0,1,0,2.355l-.865.865a8.148,8.148,0,0,1,.56,1.348H21.99A1.666,1.666,0,0,1,23.656,30v1.666a1.666,1.666,0,0,1-1.666,1.666H20.769a8.149,8.149,0,0,1-.561,1.348l.865.865a1.666,1.666,0,0,1,0,2.355L19.9,39.074a1.666,1.666,0,0,1-2.355,0l-.866-.866a8.388,8.388,0,0,1-1.347.547V39.99a1.666,1.666,0,0,1-1.666,1.666Zm-4.818-5.32a.833.833,0,0,1,.443.128,6.69,6.69,0,0,0,2.064.84.833.833,0,0,1,.646.812V39.99h1.666V38.117a.833.833,0,0,1,.646-.812,6.69,6.69,0,0,0,2.064-.84.833.833,0,0,1,1.032.116L18.717,37.9,19.9,36.717,18.58,35.4a.833.833,0,0,1-.115-1.033,6.632,6.632,0,0,0,.86-2.061.833.833,0,0,1,.808-.648H21.99V30H20.133a.833.833,0,0,1-.812-.648,6.633,6.633,0,0,0-.855-2.061.833.833,0,0,1,.115-1.033L19.9,24.938l-1.178-1.178L17.4,25.076a.833.833,0,0,1-1.033.115,6.663,6.663,0,0,0-2.063-.84.833.833,0,0,1-.646-.812V21.666H12v1.873a.833.833,0,0,1-.646.812,6.663,6.663,0,0,0-2.063.84.833.833,0,0,1-1.033-.115L6.938,23.761,5.761,24.938l1.315,1.315a.833.833,0,0,1,.115,1.033,6.634,6.634,0,0,0-.855,2.061A.833.833,0,0,1,5.523,30H3.666v1.666H5.523a.833.833,0,0,1,.812.648,6.634,6.634,0,0,0,.855,2.061A.833.833,0,0,1,7.076,35.4L5.761,36.717,6.938,37.9,8.254,36.58a.833.833,0,0,1,.589-.244Z" transform="translate(-2 -5.007)"/><path d="M14.165,36.329a4.17,4.17,0,1,1,2.943-1.221,4.164,4.164,0,0,1-2.943,1.221Zm0-6.663a2.5,2.5,0,1,0,1.767.732,2.5,2.5,0,0,0-1.767-.732Z" transform="translate(-4.666 -6.344)"/></svg>