<svg xmlns="http://www.w3.org/2000/svg" width="31" height="21.178" viewBox="0 0 31 21.178"><path d="M48.312,96H24.031a2.673,2.673,0,0,0-2.7,2.647v14.559a2.673,2.673,0,0,0,2.7,2.647H48.312a2.673,2.673,0,0,0,2.7-2.647V98.647A2.673,2.673,0,0,0,48.312,96Z" transform="translate(-20.671 -95.338)" fill="#00cf66"/><path d="M51.009,160H21.333v3.309H51.009Z" transform="translate(-20.671 -155.367)" fill="#2d4a60"/><path d="M366.638,320h-3.309a.662.662,0,0,0-.662.662v1.324a.662.662,0,0,0,.662.662h3.309a.662.662,0,0,0,.662-.662v-1.324A.662.662,0,0,0,366.638,320Z" transform="translate(-340.27 -305.441)" fill="#fac100"/><path d="M38.3,85.333H14.037a3.4,3.4,0,0,0-2.382.97,3.283,3.283,0,0,0-.988,2.339V103.2a3.283,3.283,0,0,0,.988,2.339,3.405,3.405,0,0,0,2.381.97H38.3a3.406,3.406,0,0,0,2.381-.97,3.283,3.283,0,0,0,.988-2.339V88.642a3.283,3.283,0,0,0-.988-2.339,3.405,3.405,0,0,0-2.382-.97ZM12.015,90.627h28.3v1.985h-28.3Zm0-1.985a1.97,1.97,0,0,1,.593-1.4,2.043,2.043,0,0,1,1.429-.582H38.3a2.043,2.043,0,0,1,1.429.582,1.97,1.97,0,0,1,.593,1.4V89.3h-28.3Zm28.3,14.559a1.97,1.97,0,0,1-.593,1.4,2.043,2.043,0,0,1-1.429.582H14.037a2.043,2.043,0,0,1-1.429-.582,1.97,1.97,0,0,1-.593-1.4V93.936h28.3Z" transform="translate(-10.667 -85.333)"/><path d="M64.565,257.323H69.2a.662.662,0,1,0,0-1.324H64.565a.662.662,0,1,0,0,1.324Z" transform="translate(-60.594 -245.411)"/><path d="M353.324,313.3h3.309a1.325,1.325,0,0,0,1.324-1.324v-1.324a1.325,1.325,0,0,0-1.324-1.324h-3.309A1.325,1.325,0,0,0,352,310.658v1.324a1.325,1.325,0,0,0,1.324,1.324Zm0-2.647h3.309v1.324h-3.309v-1.324Z" transform="translate(-330.265 -295.436)"/></svg>