<svg xmlns="http://www.w3.org/2000/svg" width="31" height="26.402" viewBox="0 0 31 26.402"><path d="M11.667,13.667V10.733A.733.733,0,0,0,10.934,10h-2.2A.733.733,0,0,0,8,10.733v2.934Z" transform="translate(-3.6 -7.066)" fill="#8fa5a5"/><path d="M29.721,11.4h-4.17a1.36,1.36,0,0,1-.664-.174,1.429,1.429,0,0,1-.506-.48L22.82,8.306a2.859,2.859,0,0,0-1.013-.959A2.721,2.721,0,0,0,20.48,7H15.053a2.721,2.721,0,0,0-1.327.347,2.859,2.859,0,0,0-1.013.959l-1.56,2.441a1.429,1.429,0,0,1-.506.48,1.36,1.36,0,0,1-.664.174H5.813a2.755,2.755,0,0,0-1.989.859A3,3,0,0,0,3,14.334V29a3,3,0,0,0,.824,2.074,2.755,2.755,0,0,0,1.989.859H29.721a2.755,2.755,0,0,0,1.989-.859A3,3,0,0,0,32.533,29V14.334a3,3,0,0,0-.824-2.074,2.755,2.755,0,0,0-1.989-.859Z" transform="translate(-2.267 -6.267)" fill="#2d4a60"/><path d="M20.3,30.868c4.307,0,7.8-3.776,7.8-8.434S24.607,14,20.3,14s-7.8,3.776-7.8,8.434S15.992,30.868,20.3,30.868Z" transform="translate(-4.799 -8.133)" fill="#8fa5a5"/><path d="M22,29a5.5,5.5,0,1,0-5.5-5.5A5.5,5.5,0,0,0,22,29Z" transform="translate(-6.5 -9.199)" fill="#eaeff0"/><path d="M20.033,13a8.119,8.119,0,0,0-4.741,1.545,9.058,9.058,0,0,0-3.143,4.114,9.8,9.8,0,0,0-.486,5.3A9.4,9.4,0,0,0,14,28.65a8.367,8.367,0,0,0,4.369,2.509,7.985,7.985,0,0,0,4.93-.522,8.7,8.7,0,0,0,3.829-3.376,9.659,9.659,0,0,0,1.438-5.093,9.534,9.534,0,0,0-2.5-6.479A8.254,8.254,0,0,0,20.033,13Zm0,16.868a6.82,6.82,0,0,1-3.982-1.3,7.608,7.608,0,0,1-2.64-3.456A8.234,8.234,0,0,1,13,20.665a7.893,7.893,0,0,1,1.962-3.943,7.028,7.028,0,0,1,3.67-2.107,6.707,6.707,0,0,1,4.141.438,7.3,7.3,0,0,1,3.217,2.836A8.114,8.114,0,0,1,27.2,22.167a8.009,8.009,0,0,1-2.1,5.443,6.934,6.934,0,0,1-5.066,2.258Z" transform="translate(-4.533 -7.866)"/><path d="M21.734,17a6.241,6.241,0,1,0,4.406,1.828A6.234,6.234,0,0,0,21.734,17Zm0,11A4.773,4.773,0,1,1,25.1,26.6,4.767,4.767,0,0,1,21.734,28Z" transform="translate(-6.234 -8.933)"/><path d="M22.8,27.067a1.833,1.833,0,0,1-1.833-1.833.733.733,0,0,0-1.467,0,3.3,3.3,0,0,0,3.3,3.3.733.733,0,0,0,0-1.467Z" transform="translate(-7.243 -10.932)"/><path d="M29.477,10.4H25.3a.683.683,0,0,1-.332-.087.715.715,0,0,1-.254-.24L23.15,7.633a3.574,3.574,0,0,0-1.269-1.2A3.409,3.409,0,0,0,20.219,6H14.781a3.409,3.409,0,0,0-1.663.433,3.574,3.574,0,0,0-1.269,1.2l-1.395,2.18V9.667a1.5,1.5,0,0,0-.413-1.037,1.382,1.382,0,0,0-1-.43H6.932a1.382,1.382,0,0,0-1,.43,1.5,1.5,0,0,0-.413,1.037V10.4a3.458,3.458,0,0,0-2.49,1.075A3.749,3.749,0,0,0,2,14.067V28.735a3.749,3.749,0,0,0,1.033,2.592A3.458,3.458,0,0,0,5.523,32.4H29.477a3.458,3.458,0,0,0,2.49-1.075A3.749,3.749,0,0,0,33,28.735V14.067a3.749,3.749,0,0,0-1.033-2.592,3.458,3.458,0,0,0-2.49-1.075ZM6.932,9.667H9.045V10.4H6.932ZM31.591,28.735a2.247,2.247,0,0,1-.619,1.556,2.072,2.072,0,0,1-1.495.644H5.523a2.072,2.072,0,0,1-1.495-.644,2.247,2.247,0,0,1-.619-1.556V14.067a2.247,2.247,0,0,1,.619-1.556,2.072,2.072,0,0,1,1.495-.644H9.7a2.048,2.048,0,0,0,1-.26,2.147,2.147,0,0,0,.763-.72l1.563-2.441a2.147,2.147,0,0,1,.76-.719,2.048,2.048,0,0,1,1-.261h5.438a2.048,2.048,0,0,1,1,.26,2.146,2.146,0,0,1,.763.72l1.563,2.441a2.147,2.147,0,0,0,.76.719,2.048,2.048,0,0,0,1,.261h4.178a2.072,2.072,0,0,1,1.495.644,2.247,2.247,0,0,1,.619,1.556Z" transform="translate(-2 -6)"/></svg>