<svg xmlns="http://www.w3.org/2000/svg" width="31" height="32.264" viewBox="0 0 31 32.264"><path d="M27.055,29.891a13.1,13.1,0,0,0,4.037-4.772,13.72,13.72,0,0,0,1.44-6.185v-.022a2.873,2.873,0,0,0-.68-1.82,2.657,2.657,0,0,0-1.654-.915l-.893-.132a2.533,2.533,0,0,0-.577-.022l-1.216.088-4.015.3-2.77.205a3.3,3.3,0,0,1-1.985-.488,3.511,3.511,0,0,1-1.363-1.582,3.7,3.7,0,0,1-.255-2.11,3.611,3.611,0,0,1,.945-1.885L19.9,8.645a2.128,2.128,0,0,0,.476-.786,2.2,2.2,0,0,0,.107-.923A2.116,2.116,0,0,0,19.848,5.6a2.047,2.047,0,0,0-1.329-.579c-.253-.015-.5-.022-.752-.022C9.61,5,3,10.83,3,18.934S9.61,32.869,17.767,32.869A15.906,15.906,0,0,0,24,31.629Z" transform="translate(-2.267 -2.801)" fill="#eaeff0"/><path d="M31.18,20.181l-.889-.132a2.513,2.513,0,0,0-.574-.022l-1.151.084a18.716,18.716,0,0,1-8.985,9.8A17.461,17.461,0,0,1,6.646,30.961,14.832,14.832,0,0,0,18.8,36.873a15.785,15.785,0,0,0,6.212-1.239L28.05,33.9a13.086,13.086,0,0,0,4.021-4.772,13.767,13.767,0,0,0,1.434-6.185v-.022a2.88,2.88,0,0,0-.677-1.82,2.643,2.643,0,0,0-1.648-.915Z" transform="translate(-3.239 -6.805)" fill="#d9e1e2"/><path d="M10.2,21.4A2.2,2.2,0,1,0,8,19.2,2.2,2.2,0,0,0,10.2,21.4Z" transform="translate(-3.6 -6)" fill="#fd3730"/><path d="M12.7,31.9a2.2,2.2,0,1,0-2.2-2.2A2.2,2.2,0,0,0,12.7,31.9Z" transform="translate(-4.55 -8.799)" fill="#fac100"/><path d="M23.2,36.4A2.2,2.2,0,1,0,21,34.2,2.2,2.2,0,0,0,23.2,36.4Z" transform="translate(-7.7 -9.999)" fill="#00cf66"/><path d="M23.2,36.655a2.194,2.194,0,0,0,1.6-3.7,18.923,18.923,0,0,1-3.8,1.52,2.2,2.2,0,0,0,2.2,2.18Z" transform="translate(-7.7 -10.254)" fill="#00b157"/><path d="M34.226,37.268A1.518,1.518,0,0,1,32.709,35.8L32.1,18.2A2.127,2.127,0,0,1,34.226,16h0a2.127,2.127,0,0,1,2.127,2.2l-.607,17.6a1.518,1.518,0,0,1-1.52,1.467Z" transform="translate(-11.025 -5.733)" fill="#ffd188"/><path d="M33.339,3c0,2.031-2.031,3.385-2.031,6.093a2.708,2.708,0,0,0,5.415,0C36.723,5.708,33.339,3,33.339,3Z" transform="translate(-10.83 -2.267)" fill="#e67244"/><path d="M31.656,11.743a2.7,2.7,0,0,0,5.16-1.132,5.736,5.736,0,0,0-.35-1.917,7.327,7.327,0,0,1-4.81,3.049Z" transform="translate(-10.925 -3.785)" fill="#c6512b"/><path d="M33,18.113a3.633,3.633,0,0,0-.857-2.3,3.372,3.372,0,0,0-2.088-1.163l-.891-.132a3.335,3.335,0,0,0-.73-.028l-.442.032v-.032a2.873,2.873,0,0,0-.331-1.476,2.729,2.729,0,0,0-1.026-1.076,3.347,3.347,0,0,0,1.4-1.265,3.541,3.541,0,0,0,.523-1.848c0-3.695-3.372-6.546-3.516-6.666a.69.69,0,0,0-.36-.155.68.68,0,0,0-.384.068.715.715,0,0,0-.291.27.755.755,0,0,0-.108.39,4.958,4.958,0,0,1-.783,2.241,7.821,7.821,0,0,0-1.167,3.853,3.541,3.541,0,0,0,.523,1.848,3.347,3.347,0,0,0,1.4,1.265,2.729,2.729,0,0,0-1.026,1.076,2.873,2.873,0,0,0-.331,1.476l.015.44-2.1.156a2.633,2.633,0,0,1-1.142-.173,2.721,2.721,0,0,1-.971-.649,2.908,2.908,0,0,1,0-3.994l1.832-1.907a2.865,2.865,0,0,0,.6-.949A2.96,2.96,0,0,0,20.7,5.188a2.853,2.853,0,0,0-.635-.926,2.736,2.736,0,0,0-1.768-.772c-.268-.016-.528-.024-.795-.024C8.664,3.467,2,9.774,2,18.135S8.664,32.8,17.5,32.8a16.708,16.708,0,0,0,5.58-.953l.008.246a2.294,2.294,0,0,0,.66,1.539,2.1,2.1,0,0,0,3,0,2.294,2.294,0,0,0,.66-1.539l.087-2.628a13.916,13.916,0,0,0,4.056-4.992A14.514,14.514,0,0,0,33,18.113Zm-9.089-3.671a1.447,1.447,0,0,1,.079-.557,1.4,1.4,0,0,1,.284-.479,1.341,1.341,0,0,1,.443-.323,1.291,1.291,0,0,1,1.059,0,1.341,1.341,0,0,1,.443.323,1.4,1.4,0,0,1,.284.479,1.447,1.447,0,0,1,.079.557l-.047,1.493H23.963Zm.433-8.761a11.3,11.3,0,0,0,.694-1.491,7.468,7.468,0,0,1,2.106,4.637,2.016,2.016,0,0,1-.556,1.4,1.844,1.844,0,0,1-2.682,0,2.016,2.016,0,0,1-.556-1.4,6.4,6.4,0,0,1,1-3.146ZM17.5,31.336c-8.032,0-14.091-5.675-14.091-13.2S9.468,4.934,17.5,4.934c.24,0,.473.007.726.021a1.372,1.372,0,0,1,1.293,1.258,1.439,1.439,0,0,1-.071.6,1.4,1.4,0,0,1-.311.512L17.3,9.234a4.352,4.352,0,0,0-1.142,2.273,4.451,4.451,0,0,0,.308,2.545,4.237,4.237,0,0,0,1.647,1.908,3.994,3.994,0,0,0,2.4.59l2.052-.152.461,13.919a15.287,15.287,0,0,1-5.529,1.02ZM25.25,32.8a.736.736,0,0,1-.524-.22.8.8,0,0,1-.229-.538L24.011,17.4h2.477L26,32.045a.8.8,0,0,1-.229.538.736.736,0,0,1-.524.22Zm2.313-5.28L27.945,16l.593-.043a1.928,1.928,0,0,1,.423.017l.893.132a1.975,1.975,0,0,1,1.232.679,2.128,2.128,0,0,1,.506,1.352,12.97,12.97,0,0,1-1.047,5.143,12.52,12.52,0,0,1-2.981,4.244Z" transform="translate(-2 -2.001)"/><path d="M12.867,18.934a2.934,2.934,0,1,0-.859,2.074A2.934,2.934,0,0,0,12.867,18.934Zm-4.4,0a1.467,1.467,0,1,1,.43,1.037A1.467,1.467,0,0,1,8.467,18.934Z" transform="translate(-3.333 -5.733)"/><path d="M12.434,26.5a2.934,2.934,0,1,0,2.074.859A2.934,2.934,0,0,0,12.434,26.5Zm0,4.4a1.467,1.467,0,1,1,1.037-.43A1.466,1.466,0,0,1,12.434,30.9Z" transform="translate(-4.264 -8.533)"/><path d="M22.934,31a2.934,2.934,0,1,0,2.074.859A2.934,2.934,0,0,0,22.934,31Zm0,4.4a1.467,1.467,0,1,1,1.037-.43A1.466,1.466,0,0,1,22.934,35.4Z" transform="translate(-7.434 -9.732)"/></svg>