<svg xmlns="http://www.w3.org/2000/svg" width="31" height="30.818" viewBox="0 0 31 30.818"><path d="M37,36.99V17.833A.833.833,0,0,1,37.833,17H42a.833.833,0,0,1,.833.833V36.99Z" transform="translate(-13.496 -7.005)" fill="#fac100"/><path d="M26,38.16V24.833A.833.833,0,0,1,26.833,24H31a.833.833,0,0,1,.833.833V38.16Z" transform="translate(-9.674 -8.175)" fill="#fd3730"/><path d="M15,37.658V21.833A.833.833,0,0,1,15.833,21H20a.833.833,0,0,1,.833.833V37.658Z" transform="translate(-6.157 -7.673)" fill="#00cf66"/><path d="M4,38.661V27.833A.833.833,0,0,1,4.833,27H9a.833.833,0,0,1,.833.833V38.661Z" transform="translate(-2.334 -8.676)" fill="#009ae0"/><path d="M32.3,35.99V17.666a1.831,1.831,0,0,0-.413-1.178,1.309,1.309,0,0,0-1-.488H27.364a1.309,1.309,0,0,0-1,.488,1.831,1.831,0,0,0-.413,1.178V35.99H24.545V23.5a1.831,1.831,0,0,0-.413-1.178,1.309,1.309,0,0,0-1-.488H19.614a1.309,1.309,0,0,0-1,.488A1.831,1.831,0,0,0,18.2,23.5V35.99H16.8V21a1.831,1.831,0,0,0-.413-1.178,1.309,1.309,0,0,0-1-.488H11.864a1.309,1.309,0,0,0-1,.488A1.831,1.831,0,0,0,10.455,21V35.99H9.045V26a1.831,1.831,0,0,0-.413-1.178,1.309,1.309,0,0,0-1-.488H4.114a1.309,1.309,0,0,0-1,.488A1.831,1.831,0,0,0,2.7,26v10a.655.655,0,0,0-.5.244.944.944,0,0,0,0,1.178.655.655,0,0,0,.5.244H32.3a.655.655,0,0,0,.5-.244.944.944,0,0,0,0-1.178A.655.655,0,0,0,32.3,35.99ZM27.364,17.666h3.523V35.99H27.364Zm-7.75,5.83h3.523V35.99H19.614ZM11.864,21h3.523V35.99H11.864Zm-7.75,5H7.636v10H4.114Z" transform="translate(-2 -6.838)"/><path d="M2.7,19.993a.621.621,0,0,0,.362-.119L13.317,12.6l7.414,3.984a.61.61,0,0,0,.354.072.639.639,0,0,0,.338-.143L31.264,8.5l-.352,2.069a.959.959,0,0,0,.1.625.712.712,0,0,0,.448.355.619.619,0,0,0,.141.016.641.641,0,0,0,.445-.188.87.87,0,0,0,.245-.478l.69-4.081a.96.96,0,0,0-.1-.626.713.713,0,0,0-.447-.357l-3.452-.816a.617.617,0,0,0-.53.121.851.851,0,0,0-.3.528.959.959,0,0,0,.1.626.713.713,0,0,0,.447.357l1.821.431-9.571,7.794-7.388-3.969a.611.611,0,0,0-.332-.073.629.629,0,0,0-.323.118l-10.568,7.5a.812.812,0,0,0-.291.405.976.976,0,0,0-.024.531.852.852,0,0,0,.252.44.638.638,0,0,0,.426.17Z" transform="translate(-2 -5)"/></svg>