<svg xmlns="http://www.w3.org/2000/svg" width="31" height="29.593" viewBox="0 0 31 29.593"><path d="M109.059,149.333v18.5a2.963,2.963,0,0,1-2.966,2.959H88.3a2.963,2.963,0,0,1-2.966-2.959v-18.5Z" transform="translate(-81.696 -141.935)" fill="#00cf66"/><path d="M149.333,289.91V278.073a.74.74,0,0,1,.74-.74h5.179a.74.74,0,0,1,.74.74V289.91Z" transform="translate(-141.24 -261.057)" fill="#eaeff0"/><path d="M301.626,277.333h-1.48a1.48,1.48,0,0,0-1.48,1.48v1.48a1.48,1.48,0,0,0,1.48,1.48h1.48a1.48,1.48,0,0,0,1.48-1.48v-1.48A1.48,1.48,0,0,0,301.626,277.333Z" transform="translate(-280.198 -261.057)" fill="#eaeff0"/><path d="M72.873,60.6a2.8,2.8,0,0,1,.069,1.854,3.707,3.707,0,0,1-7.224-1.165,3.706,3.706,0,0,1-7.411,0,3.706,3.706,0,0,1-7.411,0,3.707,3.707,0,0,1-7.224,1.165,2.8,2.8,0,0,1,.069-1.854l2.348-6.3a1.482,1.482,0,0,1,1.389-.964H69.135a1.482,1.482,0,0,1,1.389.964Z" transform="translate(-42.808 -52.593)" fill="#fd3730"/><path d="M150.507,53.333l-1.085,6.148a5.924,5.924,0,0,0-.09,1.029v.776a3.7,3.7,0,1,0,7.4,0V53.333Z" transform="translate(-141.239 -52.593)" fill="#eaeff0"/><path d="M351.7,54.3a1.48,1.48,0,0,0-1.387-.964h-4.586l1.085,6.148c.06.34.09,1.62.09,1.62v.185a3.7,3.7,0,0,0,7.211,1.165,2.806,2.806,0,0,0-.069-1.854Z" transform="translate(-323.976 -52.593)" fill="#eaeff0"/><path d="M63.656,50.414h0l-2.348-6.3a2.233,2.233,0,0,0-2.084-1.445H37.57a2.233,2.233,0,0,0-2.084,1.446l-2.348,6.3a3.553,3.553,0,0,0-.078,2.345A4.432,4.432,0,0,0,35.8,55.545V68.563a3.707,3.707,0,0,0,3.705,3.7H57.289a3.707,3.707,0,0,0,3.705-3.7V55.545a4.432,4.432,0,0,0,2.739-2.786A3.55,3.55,0,0,0,63.656,50.414Zm-8.668-.729a5.166,5.166,0,0,1,.079.9v.777a2.964,2.964,0,1,1-5.928,0V44.148h4.871Zm-13.26.9a5.161,5.161,0,0,1,.079-.9l.979-5.537h4.871v7.213a2.964,2.964,0,0,1-5.928,0Zm-7.261,1.709a2.072,2.072,0,0,1,.06-1.364l2.348-6.3a.744.744,0,0,1,.695-.482h3.71l-.933,5.28a6.66,6.66,0,0,0-.1,1.157v.776a2.965,2.965,0,0,1-5.779.932Zm7.261,18.488v-11.1h5.187v11.1Zm17.785-2.219a2.224,2.224,0,0,1-2.223,2.219H48.4v-11.1a1.482,1.482,0,0,0-1.482-1.48H41.727a1.482,1.482,0,0,0-1.482,1.48v11.1H39.5a2.224,2.224,0,0,1-2.223-2.219V55.8a4.448,4.448,0,0,0,3.705-1.988,4.447,4.447,0,0,0,7.411,0,4.447,4.447,0,0,0,7.411,0A4.448,4.448,0,0,0,59.513,55.8Zm2.814-16.269a2.965,2.965,0,0,1-5.779-.932v-.777a6.66,6.66,0,0,0-.1-1.157l-.933-5.279h3.71a.745.745,0,0,1,.695.482l2.348,6.3A2.069,2.069,0,0,1,62.327,52.294Z" transform="translate(-32.897 -42.669)"/><path d="M292.439,266.667H289.48a1.481,1.481,0,0,0-1.48,1.48v2.959a1.481,1.481,0,0,0,1.48,1.48h2.959a1.481,1.481,0,0,0,1.48-1.48v-2.959a1.481,1.481,0,0,0-1.48-1.48Zm-2.959,4.439v-2.959h2.959v2.959Z" transform="translate(-270.27 -251.131)"/></svg>