<svg xmlns="http://www.w3.org/2000/svg" xmlns:xlink="http://www.w3.org/1999/xlink" width="31" height="35" viewBox="0 0 31 35"><defs><clipPath id="a"><rect width="31" height="35" transform="translate(-0.299 -0.207)" fill="#fff"/></clipPath></defs><g transform="translate(0.299 0.207)" clip-path="url(#a)"><path d="M55.615,170.667a1.724,1.724,0,0,1,1.035.353,2.159,2.159,0,0,1,.705.948l2.448,6.253a3.368,3.368,0,0,1,.228,1.225V182.5a1.689,1.689,0,0,1-.1.566,1.515,1.515,0,0,1-.276.48,1.28,1.28,0,0,1-.413.321,1.122,1.122,0,0,1-.488.113H33.274a1.122,1.122,0,0,1-.488-.113,1.28,1.28,0,0,1-.413-.321,1.515,1.515,0,0,1-.276-.48,1.689,1.689,0,0,1-.1-.566V170.667Z" transform="translate(-29.705 -158.83)" fill="#00cf66"/><path d="M399.011,213.333H395.3a.6.6,0,0,0-.451.217.8.8,0,0,0-.187.523v2.959a.805.805,0,0,0,.187.523.6.6,0,0,0,.451.217h5.444Z" transform="translate(-370.711 -198.537)" fill="#eaeff0"/><path d="M32,117.025v-8.878a1.609,1.609,0,0,1,.373-1.046,1.192,1.192,0,0,1,.9-.433H49.2a1.192,1.192,0,0,1,.9.433,1.609,1.609,0,0,1,.373,1.046v11.837a1.689,1.689,0,0,1-.1.566,1.515,1.515,0,0,1-.276.48,1.28,1.28,0,0,1-.413.321,1.123,1.123,0,0,1-.488.113H32Z" transform="translate(-29.705 -99.269)" fill="#eaeff0"/><path d="M77.214,325.919a2.992,2.992,0,1,0-2.548-2.959A2.777,2.777,0,0,0,77.214,325.919Z" transform="translate(-69.822 -297.805)" fill="#d9e1e2"/><path d="M354.548,325.919A2.992,2.992,0,1,0,352,322.959,2.777,2.777,0,0,0,354.548,325.919Z" transform="translate(-330.592 -297.805)" fill="#d9e1e2"/><path d="M30.39,108.427l-2.448-6.254A2.882,2.882,0,0,0,27,100.911a2.3,2.3,0,0,0-1.379-.472h-4.5V98.219a2.416,2.416,0,0,0-.56-1.569A1.79,1.79,0,0,0,19.208,96H3.281a1.79,1.79,0,0,0-1.351.651,2.416,2.416,0,0,0-.56,1.569V107.1a.846.846,0,0,0,.047.285.758.758,0,0,0,.138.242.64.64,0,0,0,.207.162.556.556,0,0,0,.49,0,.64.64,0,0,0,.207-.162.759.759,0,0,0,.138-.242.846.846,0,0,0,.047-.285V98.219a.805.805,0,0,1,.187-.523.6.6,0,0,1,.45-.217H19.208a.6.6,0,0,1,.45.217.805.805,0,0,1,.187.523v11.837a.805.805,0,0,1-.187.523.6.6,0,0,1-.45.217H11.563a.6.6,0,0,0-.447.219.827.827,0,0,0,0,1.041.6.6,0,0,0,.447.219h7.645a1.79,1.79,0,0,0,1.351-.651,2.416,2.416,0,0,0,.56-1.569v-8.138h4.5a1.152,1.152,0,0,1,.69.236,1.442,1.442,0,0,1,.47.631l.24.612H24.3a1.193,1.193,0,0,0-.9.434,1.61,1.61,0,0,0-.374,1.046v2.959a1.61,1.61,0,0,0,.374,1.046,1.193,1.193,0,0,0,.9.434h5a2.521,2.521,0,0,1,.092.641v3.058a.805.805,0,0,1-.187.523.6.6,0,0,1-.45.217H26.789a3.84,3.84,0,0,0-1.106-2.125,2.851,2.851,0,0,0-4.029,0,3.84,3.84,0,0,0-1.106,2.125H10.225a3.84,3.84,0,0,0-1.106-2.125,2.851,2.851,0,0,0-4.029,0,3.84,3.84,0,0,0-1.106,2.125h-.7a.6.6,0,0,1-.45-.217.805.805,0,0,1-.187-.523v-.74a.6.6,0,0,0,.446-.219.827.827,0,0,0,0-1.041.6.6,0,0,0-.446-.219H.733a.6.6,0,0,0-.446.219.827.827,0,0,0,0,1.041.6.6,0,0,0,.446.219H1.37v.74a2.416,2.416,0,0,0,.56,1.569,1.79,1.79,0,0,0,1.351.651h.7a3.84,3.84,0,0,0,1.106,2.125,2.851,2.851,0,0,0,4.029,0,3.84,3.84,0,0,0,1.106-2.125H20.547a3.84,3.84,0,0,0,1.106,2.125,2.851,2.851,0,0,0,4.029,0,3.84,3.84,0,0,0,1.106-2.125h1.976a1.79,1.79,0,0,0,1.351-.651,2.416,2.416,0,0,0,.56-1.569v-3.058a4.176,4.176,0,0,0-.286-1.53ZM7.1,116.715a1.729,1.729,0,0,1-1.062-.374,2.181,2.181,0,0,1-.7-1,2.554,2.554,0,0,1-.109-1.282,2.35,2.35,0,0,1,.523-1.136,1.846,1.846,0,0,1,.979-.607,1.666,1.666,0,0,1,1.1.126,2,2,0,0,1,.858.817,2.481,2.481,0,0,1,.322,1.233,2.416,2.416,0,0,1-.56,1.569,1.79,1.79,0,0,1-1.351.651Zm16.564,0a1.729,1.729,0,0,1-1.062-.374,2.181,2.181,0,0,1-.7-1,2.554,2.554,0,0,1-.109-1.282,2.349,2.349,0,0,1,.523-1.136,1.846,1.846,0,0,1,.979-.607,1.666,1.666,0,0,1,1.1.126,2,2,0,0,1,.858.817,2.481,2.481,0,0,1,.322,1.233,2.416,2.416,0,0,1-.56,1.569,1.79,1.79,0,0,1-1.351.651Zm.637-11.837h3.3l1.158,2.959H24.3Z" transform="translate(0.288 -89.342)"/><path d="M.734,278.814H3.92a.6.6,0,0,0,.447-.219.827.827,0,0,0,0-1.041.6.6,0,0,0-.447-.219H.734a.6.6,0,0,0-.446.219.827.827,0,0,0,0,1.041.6.6,0,0,0,.446.219Z" transform="translate(0.287 -258.099)"/></g></svg>