<svg xmlns="http://www.w3.org/2000/svg" width="31" height="29.54" viewBox="0 0 31 29.54"><rect width="29.523" height="28.063" rx="14.031" transform="translate(0.738 0.738)" fill="#2d4a60"/><ellipse cx="11.808" cy="11.077" rx="11.808" ry="11.077" transform="translate(3.692 3.692)" fill="#eaeff0"/><path d="M232.013,272.432a1.466,1.466,0,0,1-.9-.048,5.831,5.831,0,0,0-.445,6.687,8.1,8.1,0,0,0,3.068-.219,8.193,8.193,0,0,0,.917-.307,7.461,7.461,0,0,1-2.059-6.424,1.462,1.462,0,0,1-.578.31Z" transform="translate(-216.095 -256.236)" fill="#2d4a60"/><path d="M212.392,139.246a7.461,7.461,0,0,1,2.059,6.424,1.446,1.446,0,0,1,1.48-.262,5.831,5.831,0,0,0,.445-6.687,8.1,8.1,0,0,0-3.068.219A8.194,8.194,0,0,0,212.392,139.246Z" transform="translate(-199.947 -132.016)" fill="#2d4a60"/><path d="M269.978,252.709a1.465,1.465,0,0,1-.493.758,5.831,5.831,0,0,0,5.569,3.729,8.1,8.1,0,0,0,1.344-2.767,8.2,8.2,0,0,0,.193-.947A7.461,7.461,0,0,1,270,252.054,1.463,1.463,0,0,1,269.978,252.709Z" transform="translate(-252.759 -237.557)" fill="#2d4a60"/><path d="M139.881,189.366a7.461,7.461,0,0,1,6.593,1.428,1.446,1.446,0,0,1,.513-1.413,5.831,5.831,0,0,0-5.569-3.729,8.1,8.1,0,0,0-1.344,2.767,8.19,8.19,0,0,0-.193.947Z" transform="translate(-132.712 -175.752)" fill="#2d4a60"/><path d="M263.583,169.118a1.466,1.466,0,0,1,.41.806,5.831,5.831,0,0,0,6.014-2.958,8.1,8.1,0,0,0-1.724-2.548,8.188,8.188,0,0,0-.724-.64,7.461,7.461,0,0,1-4.533,5A1.462,1.462,0,0,1,263.583,169.118Z" transform="translate(-246.781 -155.392)" fill="#2d4a60"/><path d="M150.585,264.647a7.461,7.461,0,0,1,4.533-5,1.446,1.446,0,0,1-.967-1.151,5.831,5.831,0,0,0-6.014,2.958,8.1,8.1,0,0,0,1.724,2.548A8.184,8.184,0,0,0,150.585,264.647Z" transform="translate(-140.363 -243.492)" fill="#2d4a60"/><circle cx="1.477" cy="1.477" r="1.477" transform="translate(14.023 13.293)" fill="#8fa5a5"/><path d="M71.342,42.667H44.992a2.275,2.275,0,0,0-2.325,2.215V69.991a2.275,2.275,0,0,0,2.325,2.215h26.35a2.275,2.275,0,0,0,2.325-2.215V44.882A2.275,2.275,0,0,0,71.342,42.667Zm.775,27.324a.758.758,0,0,1-.775.739H44.992a.758.758,0,0,1-.775-.739V44.882a.758.758,0,0,1,.775-.739h26.35a.758.758,0,0,1,.775.739Z" transform="translate(-42.667 -42.667)"/><path d="M97.879,85.333c-6.918,0-12.546,5.3-12.546,11.816s5.629,11.816,12.546,11.816,12.546-5.3,12.546-11.816S104.8,85.333,97.879,85.333Zm0,22.155c-6.053,0-10.978-4.638-10.978-10.339S91.826,86.81,97.879,86.81s10.978,4.638,10.978,10.339S103.932,107.488,97.879,107.488Z" transform="translate(-82.379 -82.379)"/><ellipse cx="0.739" cy="0.739" rx="0.739" ry="0.739" transform="translate(2.954 2.954)"/><ellipse cx="0.739" cy="0.739" rx="0.739" ry="0.739" transform="translate(26.569 2.954)"/><ellipse cx="0.739" cy="0.739" rx="0.739" ry="0.739" transform="translate(2.954 25.109)"/><ellipse cx="0.739" cy="0.739" rx="0.739" ry="0.739" transform="translate(26.569 25.109)"/><path d="M147.961,137.456a.852.852,0,0,0-.734-.166,7.867,7.867,0,0,1-3.324.079,7.6,7.6,0,0,1-.75-.188,7.508,7.508,0,0,0,1.3-.454,7.009,7.009,0,0,0,3.058-2.717.688.688,0,0,0,.035-.647,8.935,8.935,0,0,0-2.891-3.478.854.854,0,0,0-.743-.122.768.768,0,0,0-.522.5,6.584,6.584,0,0,1-1.587,2.7,6.869,6.869,0,0,1-.552.507,6.135,6.135,0,0,0,.223-1.264,6.282,6.282,0,0,0-1.019-3.8.808.808,0,0,0-.59-.352,10.245,10.245,0,0,0-4.708.573.757.757,0,0,0-.486.533.7.7,0,0,0,.211.669,6.66,6.66,0,0,1,1.737,2.618,6.171,6.171,0,0,1,.2.7,7.345,7.345,0,0,0-5.154-1.9.824.824,0,0,0-.625.3,8.471,8.471,0,0,0-1.817,4.051.708.708,0,0,0,.257.655.849.849,0,0,0,.734.166,7.882,7.882,0,0,1,3.324-.079,7.6,7.6,0,0,1,.756.19,6.957,6.957,0,0,0-4.36,3.17.688.688,0,0,0-.035.647,8.815,8.815,0,0,0,2.037,2.78,9.481,9.481,0,0,0,.854.7.853.853,0,0,0,.744.122.768.768,0,0,0,.522-.5,6.583,6.583,0,0,1,1.587-2.7,6.879,6.879,0,0,1,.552-.507,6.132,6.132,0,0,0-.223,1.264,6.281,6.281,0,0,0,1.019,3.8.808.808,0,0,0,.59.352,10.3,10.3,0,0,0,4.708-.573.757.757,0,0,0,.486-.533.7.7,0,0,0-.211-.669,6.659,6.659,0,0,1-1.737-2.618,6.183,6.183,0,0,1-.2-.7,7.335,7.335,0,0,0,5.025,1.9h.129a.824.824,0,0,0,.625-.3,8.468,8.468,0,0,0,1.817-4.05A.708.708,0,0,0,147.961,137.456Zm-13.516,2.3a8.08,8.08,0,0,0-1.517,2.192,7.355,7.355,0,0,1-1.4-1.852,5.662,5.662,0,0,1,5.005-2.324,2.114,2.114,0,0,0,.178.3A8.819,8.819,0,0,0,134.445,139.752Zm2.128-3.9a9.4,9.4,0,0,0-2.714-.972,9.517,9.517,0,0,0-2.815-.117,7.1,7.1,0,0,1,1.039-2.042,5.545,5.545,0,0,1,4.683,2.839,2.184,2.184,0,0,0-.192.292Zm.261-6.184a8.575,8.575,0,0,1,2.435-.19,4.751,4.751,0,0,1-.322,5.163c-.079-.007-.157-.011-.236-.011-.045,0-.089,0-.134,0a7.646,7.646,0,0,0-.445-2.657A7.923,7.923,0,0,0,136.835,129.673Zm2.684,7.177a.8.8,0,1,1-.8-.739A.771.771,0,0,1,139.518,136.85Zm-1.351,7.368a4.752,4.752,0,0,1,.322-5.164,2.534,2.534,0,0,0,.37.007,7.643,7.643,0,0,0,.444,2.656,7.923,7.923,0,0,0,1.3,2.31,8.567,8.567,0,0,1-2.435.191Zm4.824-10.27a8.076,8.076,0,0,0,1.517-2.192,7.364,7.364,0,0,1,1.4,1.852,5.662,5.662,0,0,1-5.005,2.324,2.111,2.111,0,0,0-.178-.3,8.845,8.845,0,0,0,2.27-1.684Zm2.362,7.027a5.545,5.545,0,0,1-4.683-2.839,2.131,2.131,0,0,0,.192-.292,9.364,9.364,0,0,0,2.714.972,9.5,9.5,0,0,0,2.815.117,7.1,7.1,0,0,1-1.039,2.042Z" transform="translate(-123.218 -122.08)"/></svg>