<svg xmlns="http://www.w3.org/2000/svg" width="31" height="26.586" viewBox="0 0 31 26.586"><path d="M58.711,74.667h-23.9A2.886,2.886,0,0,0,32,77.621V95.345A2.886,2.886,0,0,0,34.812,98.3h23.9a2.886,2.886,0,0,0,2.812-2.954V77.621A2.886,2.886,0,0,0,58.711,74.667Z" transform="translate(-31.261 -73.928)" fill="#eaeff0"/><path d="M58.711,74.667h-23.9a2.745,2.745,0,0,0-1.988.865A3.031,3.031,0,0,0,32,77.621v2.215H61.523V77.621a3.032,3.032,0,0,0-.824-2.089A2.745,2.745,0,0,0,58.711,74.667Z" transform="translate(-31.261 -73.928)" fill="#bac2c6"/><path d="M58.711,346.5h-23.9a2.745,2.745,0,0,1-1.988-.865A3.032,3.032,0,0,1,32,343.548v-2.215H61.523v2.215a3.031,3.031,0,0,1-.824,2.089,2.745,2.745,0,0,1-1.988.865Z" transform="translate(-31.261 -322.132)" fill="#bac2c6"/><path d="M246.97,340.867c-1.089,1.089-1.634,4.9-1.634,4.9s3.813-.545,4.9-1.634l1.909-1.909-3.268-3.268Z" transform="translate(-230.729 -319.922)" fill="#263f52"/><path d="M268.076,217.28,265.9,215.1a.77.77,0,0,1,0-1.089l10.894-10.894a1.541,1.541,0,0,1,2.179,0l1.089,1.089a1.54,1.54,0,0,1,0,2.179L269.166,217.28a.77.77,0,0,1-1.09,0Z" transform="translate(-250.249 -193.067)" fill="#7b8c8c"/><path d="M250.633,192.682a2.282,2.282,0,0,0-3.223,0l-10.893,10.893c-1.228,1.228-1.784,4.9-1.843,5.32a.738.738,0,0,0,.836.835c.415-.059,4.092-.615,5.32-1.843l10.894-10.894a2.282,2.282,0,0,0,0-3.223Zm-13.784,13.359,1.517,1.517a17.447,17.447,0,0,1-2.054.534,17.49,17.49,0,0,1,.537-2.051Zm13.829-10.091-10.893,10.894a.029.029,0,0,1-.01.007l-.012,0-.012,0a.029.029,0,0,1-.01-.007h0l-2.179-2.179a.032.032,0,0,1,0-.045l10.893-10.893a.8.8,0,0,1,1.134,0l1.089,1.089a.8.8,0,0,1,0,1.134Z" transform="translate(-221.39 -183.153)"/><path d="M48.809,64H24.855a3.447,3.447,0,0,0-2.49,1.083,3.789,3.789,0,0,0-1.033,2.61V85.416a3.789,3.789,0,0,0,1.033,2.61,3.447,3.447,0,0,0,2.49,1.083h8.455a.689.689,0,0,0,.494-.219.764.764,0,0,0,0-1.039.689.689,0,0,0-.494-.219h-.7V83.939h2.114a.676.676,0,0,0,.272-.054.7.7,0,0,0,.231-.16.741.741,0,0,0,.154-.241.771.771,0,0,0,0-.568.741.741,0,0,0-.154-.241.7.7,0,0,0-.231-.16.676.676,0,0,0-.272-.054H22.741V70.646H50.923v.739a.757.757,0,0,0,.209.518.682.682,0,0,0,.992,0,.757.757,0,0,0,.209-.518V67.692a3.789,3.789,0,0,0-1.033-2.61A3.447,3.447,0,0,0,48.809,64ZM31.2,83.939v3.692H27.673V83.939Zm-4.932,0v3.692H24.855a2.068,2.068,0,0,1-1.494-.65,2.273,2.273,0,0,1-.62-1.566V83.939Zm-3.523-14.77V67.692a2.273,2.273,0,0,1,.62-1.566,2.068,2.068,0,0,1,1.494-.65h1.409v3.692Zm4.932,0V65.477H31.2v3.692Zm4.932,0V65.477h3.523v3.692Zm4.932,0V65.477h3.523v3.692Zm4.932,0V65.477h3.523v3.692Zm4.932,0V65.477h1.409a2.068,2.068,0,0,1,1.494.65,2.273,2.273,0,0,1,.62,1.566v1.477Z" transform="translate(-21.332 -64)"/></svg>