<svg xmlns="http://www.w3.org/2000/svg" width="31" height="30.803" viewBox="0 0 31 30.803"><path d="M26.068,4H9.934A2.934,2.934,0,0,0,7,6.934V30.4a2.934,2.934,0,0,0,2.934,2.934H26.068A2.934,2.934,0,0,0,29,30.4V6.934A2.934,2.934,0,0,0,26.068,4Z" transform="translate(-6.267 -3.267)" fill="#eaeff0"/><path d="M28.255,32.7,7.747,5.358A2.909,2.909,0,0,0,7,7.3V30.764A2.934,2.934,0,0,0,9.934,33.7H26.068a2.914,2.914,0,0,0,2.187-1Z" transform="translate(-6.267 -3.629)" fill="#d9e1e2"/><path d="M28.824,29.025,27.2,30.094a.733.733,0,0,1-1.137-.656l.117-1.938a2.929,2.929,0,0,1,.388-1.291l8.54-14.793a1.467,1.467,0,0,1,2-.537l.635.367a1.467,1.467,0,0,1,.537,2l-8.54,14.793a2.934,2.934,0,0,1-.924.981Z" transform="translate(-8.22 -5.048)" fill="#009ae0"/><path d="M40.641,11.246l-.635-.367a1.467,1.467,0,0,0-2,.537l-1.1,1.907,3.176,1.833,1.1-1.907a1.467,1.467,0,0,0-.537-2Z" transform="translate(-11.109 -5.048)" fill="#eaeff0"/><path d="M31.767,22.8a.89.89,0,0,0-.588.215.693.693,0,0,0-.243.519v6.6a2.078,2.078,0,0,1-.73,1.556,2.672,2.672,0,0,1-1.763.644H10.156a2.672,2.672,0,0,1-1.763-.644,2.078,2.078,0,0,1-.73-1.556V6.667a2.078,2.078,0,0,1,.73-1.556,2.672,2.672,0,0,1,1.763-.644H28.443A2.689,2.689,0,0,1,30,4.945a2.165,2.165,0,0,1,.871,1.237.743.743,0,0,0,.366.459.926.926,0,0,0,.627.1.837.837,0,0,0,.52-.323A.662.662,0,0,0,32.5,5.86,3.612,3.612,0,0,0,31.042,3.8a4.487,4.487,0,0,0-2.6-.8H10.156A4.458,4.458,0,0,0,7.219,4.075,3.467,3.467,0,0,0,6,6.667V30.136a3.467,3.467,0,0,0,1.219,2.592A4.458,4.458,0,0,0,10.156,33.8H28.443a4.458,4.458,0,0,0,2.937-1.075A3.468,3.468,0,0,0,32.6,30.136v-6.6a.693.693,0,0,0-.243-.519A.89.89,0,0,0,31.767,22.8Z" transform="translate(-6 -3)"/><path d="M37.852,10.344l-.635-.367a2.2,2.2,0,0,0-3.007.807l-8.54,14.792a3.676,3.676,0,0,0-.485,1.613l-.117,1.941a1.467,1.467,0,0,0,2.274,1.312l1.619-1.069a3.7,3.7,0,0,0,1.155-1.227l8.542-14.8a2.2,2.2,0,0,0-.807-3.005ZM28.846,27.41a2.209,2.209,0,0,1-.694.733l-1.619,1.069.117-1.937a2.21,2.21,0,0,1,.293-.968l7.074-12.253,1.907,1.1Zm8.541-14.793-.733,1.27-1.907-1.1.733-1.27a.733.733,0,0,1,1-.269l.635.367a.733.733,0,0,1,.269,1Z" transform="translate(-7.953 -4.782)"/><path d="M28.2,11.733A.733.733,0,0,0,27.468,11H15.733a.733.733,0,0,0,0,1.467H27.468a.733.733,0,0,0,.733-.733Z" transform="translate(-6.991 -5.133)"/><path d="M26.03,17.733A.733.733,0,0,0,25.3,17H12.733a.733.733,0,0,0,0,1.467H25.3a.733.733,0,0,0,.733-.733Z" transform="translate(-6.605 -6.733)"/><path d="M23.492,23.733A.733.733,0,0,0,22.759,23H12.733a.733.733,0,0,0,0,1.467H22.759a.733.733,0,0,0,.733-.733Z" transform="translate(-6.759 -8.332)"/><path d="M20.955,29.733A.733.733,0,0,0,20.221,29H12.733a.733.733,0,0,0,0,1.467h7.488a.733.733,0,0,0,.733-.733Z" transform="translate(-6.872 -9.932)"/><path d="M12.733,35a.733.733,0,0,0,0,1.467h6.659a.733.733,0,0,0,0-1.467Z" transform="translate(-6.902 -11.531)"/></svg>