<svg xmlns="http://www.w3.org/2000/svg" width="31" height="31.002" viewBox="0 0 31 31.002"><path d="M21.064,29.128A6.064,6.064,0,1,0,15,23.064,6.064,6.064,0,0,0,21.064,29.128Z" transform="translate(-5.564 -5.843)" fill="#8fa5a5"/><path d="M17.673,23.064a6.4,6.4,0,0,1,4.193-6,6.064,6.064,0,1,0,0,12,6.4,6.4,0,0,1-4.193-6Z" transform="translate(-6.077 -5.843)" fill="#7b8c8c"/><path d="M22.206,12.412A3.706,3.706,0,1,0,18.5,8.706,3.706,3.706,0,0,0,22.206,12.412Z" transform="translate(-6.706 -4.319)" fill="#8fa5a5"/><path d="M23.217,10.39a2.691,2.691,0,0,1-.456-5.345A3.753,3.753,0,0,0,22.206,5a3.706,3.706,0,1,0,3.706,3.706,3.761,3.761,0,0,0-.046-.555,2.69,2.69,0,0,1-2.649,2.239Z" transform="translate(-6.706 -4.319)" fill="#7b8c8c"/><path d="M9.044,30.021l1.1,5.81a2.621,2.621,0,0,0,1.094,1.629,3.643,3.643,0,0,0,2.1.646H28.867a3.646,3.646,0,0,0,2.09-.639,2.629,2.629,0,0,0,1.1-1.613l1.17-5.834V28H9Z" transform="translate(-5.631 -7.778)" fill="#e67244"/><path d="M9.044,30.021l1.1,5.81a2.621,2.621,0,0,0,1.094,1.629,3.643,3.643,0,0,0,2.1.646H28.867a3.646,3.646,0,0,0,2.09-.639,2.629,2.629,0,0,0,1.1-1.613l1.17-5.834V28H9Z" transform="translate(-5.631 -7.778)" fill="#e67244"/><path d="M9.044,30.021l.51,2.7H32.687l.539-2.7V28H9Z" transform="translate(-5.631 -8.881)" fill="#c6512b"/><path d="M33.092,26H6.561A1.466,1.466,0,0,0,5,27.348v.674a1.466,1.466,0,0,0,1.561,1.348H33.092a1.466,1.466,0,0,0,1.561-1.348v-.674A1.466,1.466,0,0,0,33.092,26Z" transform="translate(-4.326 -8.627)" fill="#e67244"/><path d="M33.019,14.589a1.011,1.011,0,0,0-1.429,1.429l.953.953a1.011,1.011,0,1,0,1.429-1.429Z" transform="translate(-9.798 -6.18)" fill="#2d4a60"/><path d="M13.542,14.589l-.953.953a1.011,1.011,0,1,0,1.429,1.429l.953-.953a1.011,1.011,0,0,0-1.429-1.429Z" transform="translate(-5.762 -6.18)" fill="#2d4a60"/><path d="M32.675,20.269h-1.55V18.454a3.848,3.848,0,0,0-1.135-2.739l-.775-.775a1.927,1.927,0,0,0-.432-2.076l-1.1-1.1a1.986,1.986,0,0,0-2.74,0,1.937,1.937,0,0,0,0,2.74l1.1,1.1a1.928,1.928,0,0,0,2.076.432l.775.775a2.34,2.34,0,0,1,.68,1.643v1.815H27.212a7.771,7.771,0,0,0-5.588-6.675,5.038,5.038,0,1,0-4.242,0,7.761,7.761,0,0,0-5.592,6.675H9.425V18.454a2.34,2.34,0,0,1,.68-1.643l.775-.775a1.928,1.928,0,0,0,2.076-.432l1.1-1.1a1.937,1.937,0,0,0,0-2.74,1.986,1.986,0,0,0-2.74,0l-1.1,1.1a1.927,1.927,0,0,0-.432,2.076l-.775.775a3.848,3.848,0,0,0-1.135,2.739v1.815H6.325A2.325,2.325,0,0,0,4,22.594v.775a2.325,2.325,0,0,0,2.325,2.325h.93l.951,6.028a3.857,3.857,0,0,0,3.827,3.271H26.907a3.862,3.862,0,0,0,3.822-3.237l1.01-6.061h.935A2.325,2.325,0,0,0,35,23.369v-.775a2.325,2.325,0,0,0-2.325-2.325Zm-5.538-5.764-1.1-1.1a.387.387,0,0,1,.548-.548l1.1,1.1a.387.387,0,0,1,0,.547h0a.388.388,0,0,1-.547,0Zm-15.822-.548,1.1-1.1a.387.387,0,0,1,.548.548l-1.1,1.1a.388.388,0,0,1-.547,0h0a.387.387,0,0,1,0-.547Zm4.7-4.923A3.491,3.491,0,1,1,17.035,11.5a3.486,3.486,0,0,1-1.023-2.464ZM19.5,14.845a6.2,6.2,0,0,1,6.147,5.424H13.353A6.206,6.206,0,0,1,19.5,14.845ZM29.2,31.5a2.317,2.317,0,0,1-2.293,1.943H12.033a2.315,2.315,0,0,1-2.3-1.963l-.911-5.786H30.169Zm4.249-8.131a.775.775,0,0,1-.775.775H6.325a.775.775,0,0,1-.775-.775v-.775a.775.775,0,0,1,.775-.775h26.35a.775.775,0,0,1,.775.775Z" transform="translate(-4 -3.989)"/></svg>